G04 #@! TF.GenerationSoftware,KiCad,Pcbnew,9.0.6*
G04 #@! TF.CreationDate,2025-12-02T23:01:08+01:00*
G04 #@! TF.ProjectId,floppyv3_expansion,666c6f70-7079-4763-935f-657870616e73,rev?*
G04 #@! TF.SameCoordinates,Original*
G04 #@! TF.FileFunction,Soldermask,Bot*
G04 #@! TF.FilePolarity,Negative*
%FSLAX46Y46*%
G04 Gerber Fmt 4.6, Leading zero omitted, Abs format (unit mm)*
G04 Created by KiCad (PCBNEW 9.0.6) date 2025-12-02 23:01:08*
%MOMM*%
%LPD*%
G01*
G04 APERTURE LIST*
G04 Aperture macros list*
%AMRoundRect*
0 Rectangle with rounded corners*
0 $1 Rounding radius*
0 $2 $3 $4 $5 $6 $7 $8 $9 X,Y pos of 4 corners*
0 Add a 4 corners polygon primitive as box body*
4,1,4,$2,$3,$4,$5,$6,$7,$8,$9,$2,$3,0*
0 Add four circle primitives for the rounded corners*
1,1,$1+$1,$2,$3*
1,1,$1+$1,$4,$5*
1,1,$1+$1,$6,$7*
1,1,$1+$1,$8,$9*
0 Add four rect primitives between the rounded corners*
20,1,$1+$1,$2,$3,$4,$5,0*
20,1,$1+$1,$4,$5,$6,$7,0*
20,1,$1+$1,$6,$7,$8,$9,0*
20,1,$1+$1,$8,$9,$2,$3,0*%
G04 Aperture macros list end*
%ADD10O,3.200000X1.900000*%
%ADD11R,1.800000X1.800000*%
%ADD12C,1.800000*%
%ADD13RoundRect,0.750000X-0.750000X1.250000X-0.750000X-1.250000X0.750000X-1.250000X0.750000X1.250000X0*%
%ADD14C,0.700000*%
%ADD15C,4.400000*%
%ADD16R,1.700000X1.700000*%
%ADD17C,1.700000*%
%ADD18RoundRect,0.175000X0.175000X0.325000X-0.175000X0.325000X-0.175000X-0.325000X0.175000X-0.325000X0*%
%ADD19RoundRect,0.150000X0.200000X0.150000X-0.200000X0.150000X-0.200000X-0.150000X0.200000X-0.150000X0*%
%ADD20RoundRect,0.250000X0.475000X-0.250000X0.475000X0.250000X-0.475000X0.250000X-0.475000X-0.250000X0*%
%ADD21RoundRect,0.250000X-0.250000X-0.475000X0.250000X-0.475000X0.250000X0.475000X-0.250000X0.475000X0*%
%ADD22R,0.740000X2.790000*%
G04 APERTURE END LIST*
D10*
G04 #@! TO.C,SW1*
X108902500Y-116260000D03*
X121402500Y-116260000D03*
X108902500Y-121260000D03*
X121402500Y-121260000D03*
G04 #@! TD*
D11*
G04 #@! TO.C,RV1*
X138100000Y-113550000D03*
D12*
X135600000Y-113550000D03*
X133100000Y-113550000D03*
D13*
X140000000Y-120550000D03*
X131200000Y-120550000D03*
G04 #@! TD*
D14*
G04 #@! TO.C,H1*
X83464200Y-68914200D03*
X83947474Y-67747474D03*
X83947474Y-70080926D03*
X85114200Y-67264200D03*
D15*
X85114200Y-68914200D03*
D14*
X85114200Y-70564200D03*
X86280926Y-67747474D03*
X86280926Y-70080926D03*
X86764200Y-68914200D03*
G04 #@! TD*
D16*
G04 #@! TO.C,JP2*
X104800000Y-119800000D03*
D17*
X104800000Y-117260000D03*
G04 #@! TD*
D16*
G04 #@! TO.C,JP3*
X97780000Y-110400000D03*
D17*
X95240000Y-110400000D03*
G04 #@! TD*
D16*
G04 #@! TO.C,J5*
X139008414Y-75016440D03*
D17*
X139008414Y-77556440D03*
X139008414Y-80096440D03*
X139008414Y-82636440D03*
X139008414Y-85176440D03*
X139008414Y-87716440D03*
X139008414Y-90256440D03*
X139008414Y-92796440D03*
X139008414Y-95336440D03*
X139008414Y-97876440D03*
X139008414Y-100416440D03*
X139008414Y-102956440D03*
G04 #@! TD*
D16*
G04 #@! TO.C,J1*
X91228414Y-77556440D03*
D17*
X91228414Y-80096440D03*
X91228414Y-82636440D03*
X91228414Y-85176440D03*
X91228414Y-87716440D03*
X91228414Y-90256440D03*
X91228414Y-92796440D03*
X91228414Y-95336440D03*
X91228414Y-97876440D03*
X91228414Y-100416440D03*
X91228414Y-102956440D03*
G04 #@! TD*
D16*
G04 #@! TO.C,J3*
X115888414Y-106701440D03*
D17*
X118428414Y-106701440D03*
X120968414Y-106701440D03*
X123508414Y-106701440D03*
G04 #@! TD*
D14*
G04 #@! TO.C,H3*
X143464200Y-128914278D03*
X143947474Y-127747552D03*
X143947474Y-130081004D03*
X145114200Y-127264278D03*
D15*
X145114200Y-128914278D03*
D14*
X145114200Y-130564278D03*
X146280926Y-127747552D03*
X146280926Y-130081004D03*
X146764200Y-128914278D03*
G04 #@! TD*
D16*
G04 #@! TO.C,J4*
X124008414Y-75016440D03*
D17*
X124008414Y-77556440D03*
X124008414Y-80096440D03*
X124008414Y-82636440D03*
X124008414Y-85176440D03*
X124008414Y-87716440D03*
X124008414Y-90256440D03*
X124008414Y-92796440D03*
X124008414Y-95336440D03*
X124008414Y-97876440D03*
X124008414Y-100416440D03*
X124008414Y-102956440D03*
G04 #@! TD*
D14*
G04 #@! TO.C,H4*
X83449986Y-128899964D03*
X83933260Y-127733238D03*
X83933260Y-130066690D03*
X85099986Y-127249964D03*
D15*
X85099986Y-128899964D03*
D14*
X85099986Y-130549964D03*
X86266712Y-127733238D03*
X86266712Y-130066690D03*
X86749986Y-128899964D03*
G04 #@! TD*
D16*
G04 #@! TO.C,JP1*
X137925000Y-110000000D03*
D17*
X140465000Y-110000000D03*
G04 #@! TD*
D16*
G04 #@! TO.C,J2*
X106228414Y-77556440D03*
D17*
X106228414Y-80096440D03*
X106228414Y-82636440D03*
X106228414Y-85176440D03*
X106228414Y-87716440D03*
X106228414Y-90256440D03*
X106228414Y-92796440D03*
X106228414Y-95336440D03*
X106228414Y-97876440D03*
X106228414Y-100416440D03*
X106228414Y-102956440D03*
G04 #@! TD*
D14*
G04 #@! TO.C,H2*
X143464200Y-68914200D03*
X143947474Y-67747474D03*
X143947474Y-70080926D03*
X145114200Y-67264200D03*
D15*
X145114200Y-68914200D03*
D14*
X145114200Y-70564200D03*
X146280926Y-67747474D03*
X146280926Y-70080926D03*
X146764200Y-68914200D03*
G04 #@! TD*
D18*
G04 #@! TO.C,U1*
X116130000Y-119560000D03*
D19*
X116130000Y-121260000D03*
X114130000Y-121260000D03*
X114130000Y-119360000D03*
G04 #@! TD*
D20*
G04 #@! TO.C,C2*
X91800000Y-118940000D03*
X91800000Y-117040000D03*
G04 #@! TD*
D21*
G04 #@! TO.C,C1*
X114200000Y-117600000D03*
X116100000Y-117600000D03*
G04 #@! TD*
D22*
G04 #@! TO.C,J6*
X111290000Y-87145000D03*
X111290000Y-91215000D03*
X112560000Y-87145000D03*
X112560000Y-91215000D03*
X113830000Y-87145000D03*
X113830000Y-91215000D03*
X115100000Y-87145000D03*
X115100000Y-91215000D03*
X116370000Y-87145000D03*
X116370000Y-91215000D03*
X117640000Y-87145000D03*
X117640000Y-91215000D03*
X118910000Y-87145000D03*
X118910000Y-91215000D03*
G04 #@! TD*
M02*
