%TF.GenerationSoftware,KiCad,Pcbnew,9.0.6*%
%TF.CreationDate,2025-12-02T23:01:08+01:00*%
%TF.ProjectId,floppyv3_expansion,666c6f70-7079-4763-935f-657870616e73,rev?*%
%TF.SameCoordinates,Original*%
%TF.FileFunction,Drillmap*%
%TF.FilePolarity,Positive*%
%FSLAX45Y45*%
G04 Gerber Fmt 4.5, Leading zero omitted, Abs format (unit mm)*
G04 Created by KiCad (PCBNEW 9.0.6) date 2025-12-02 23:01:08*
%MOMM*%
%LPD*%
G01*
G04 APERTURE LIST*
%ADD10C,0.100000*%
%ADD11C,0.200000*%
%ADD12C,0.130000*%
%ADD13C,0.180000*%
%ADD14C,0.220000*%
G04 APERTURE END LIST*
D10*
X8061421Y-6641421D02*
X8060000Y-13139919D01*
X14961421Y-13141424D02*
G75*
G02*
X14761421Y-13341421I-199991J-6D01*
G01*
X14761421Y-13341424D02*
X8259999Y-13339995D01*
X8061421Y-6641421D02*
G75*
G02*
X8261421Y-6441421I199999J1D01*
G01*
X8259999Y-13339995D02*
G75*
G02*
X8059995Y-13139919I1J200005D01*
G01*
X14761420Y-6441424D02*
X8261420Y-6441421D01*
X14761421Y-6441424D02*
G75*
G02*
X14961416Y-6641424I-1J-199996D01*
G01*
X14961421Y-13141424D02*
X14961421Y-6641424D01*
D11*
D10*
X9165000Y-11879000D02*
X9195000Y-11909000D01*
X9195000Y-11879000D02*
X9165000Y-11909000D01*
X10766000Y-11023000D02*
X10796000Y-11053000D01*
X10796000Y-11023000D02*
X10766000Y-11053000D01*
X10905000Y-7925000D02*
X10935000Y-7955000D01*
X10935000Y-7925000D02*
X10905000Y-7955000D01*
X11281000Y-9331000D02*
X11311000Y-9361000D01*
X11311000Y-9331000D02*
X11281000Y-9361000D01*
X11428000Y-9403000D02*
X11458000Y-9433000D01*
X11458000Y-9403000D02*
X11428000Y-9433000D01*
X11493000Y-8900000D02*
X11523000Y-8930000D01*
X11523000Y-8900000D02*
X11493000Y-8930000D01*
X8364999Y-12889996D02*
G75*
G02*
X8324999Y-12889996I-20000J0D01*
G01*
X8324999Y-12889996D02*
G75*
G02*
X8364999Y-12889996I20000J0D01*
G01*
X8366420Y-6891420D02*
G75*
G02*
X8326420Y-6891420I-20000J0D01*
G01*
X8326420Y-6891420D02*
G75*
G02*
X8366420Y-6891420I20000J0D01*
G01*
X8413326Y-12773324D02*
G75*
G02*
X8373326Y-12773324I-20000J0D01*
G01*
X8373326Y-12773324D02*
G75*
G02*
X8413326Y-12773324I20000J0D01*
G01*
X8413326Y-13006669D02*
G75*
G02*
X8373326Y-13006669I-20000J0D01*
G01*
X8373326Y-13006669D02*
G75*
G02*
X8413326Y-13006669I20000J0D01*
G01*
X8414747Y-6774747D02*
G75*
G02*
X8374747Y-6774747I-20000J0D01*
G01*
X8374747Y-6774747D02*
G75*
G02*
X8414747Y-6774747I20000J0D01*
G01*
X8414747Y-7008093D02*
G75*
G02*
X8374747Y-7008093I-20000J0D01*
G01*
X8374747Y-7008093D02*
G75*
G02*
X8414747Y-7008093I20000J0D01*
G01*
X8529999Y-12724996D02*
G75*
G02*
X8489999Y-12724996I-20000J0D01*
G01*
X8489999Y-12724996D02*
G75*
G02*
X8529999Y-12724996I20000J0D01*
G01*
X8529999Y-13054996D02*
G75*
G02*
X8489999Y-13054996I-20000J0D01*
G01*
X8489999Y-13054996D02*
G75*
G02*
X8529999Y-13054996I20000J0D01*
G01*
X8531420Y-6726420D02*
G75*
G02*
X8491420Y-6726420I-20000J0D01*
G01*
X8491420Y-6726420D02*
G75*
G02*
X8531420Y-6726420I20000J0D01*
G01*
X8531420Y-7056420D02*
G75*
G02*
X8491420Y-7056420I-20000J0D01*
G01*
X8491420Y-7056420D02*
G75*
G02*
X8531420Y-7056420I20000J0D01*
G01*
X8646671Y-12773324D02*
G75*
G02*
X8606671Y-12773324I-20000J0D01*
G01*
X8606671Y-12773324D02*
G75*
G02*
X8646671Y-12773324I20000J0D01*
G01*
X8646671Y-13006669D02*
G75*
G02*
X8606671Y-13006669I-20000J0D01*
G01*
X8606671Y-13006669D02*
G75*
G02*
X8646671Y-13006669I20000J0D01*
G01*
X8648093Y-6774747D02*
G75*
G02*
X8608093Y-6774747I-20000J0D01*
G01*
X8608093Y-6774747D02*
G75*
G02*
X8648093Y-6774747I20000J0D01*
G01*
X8648093Y-7008093D02*
G75*
G02*
X8608093Y-7008093I-20000J0D01*
G01*
X8608093Y-7008093D02*
G75*
G02*
X8648093Y-7008093I20000J0D01*
G01*
X8694999Y-12889996D02*
G75*
G02*
X8654999Y-12889996I-20000J0D01*
G01*
X8654999Y-12889996D02*
G75*
G02*
X8694999Y-12889996I20000J0D01*
G01*
X8696420Y-6891420D02*
G75*
G02*
X8656420Y-6891420I-20000J0D01*
G01*
X8656420Y-6891420D02*
G75*
G02*
X8696420Y-6891420I20000J0D01*
G01*
X14366420Y-6891420D02*
G75*
G02*
X14326420Y-6891420I-20000J0D01*
G01*
X14326420Y-6891420D02*
G75*
G02*
X14366420Y-6891420I20000J0D01*
G01*
X14366420Y-12891428D02*
G75*
G02*
X14326420Y-12891428I-20000J0D01*
G01*
X14326420Y-12891428D02*
G75*
G02*
X14366420Y-12891428I20000J0D01*
G01*
X14414747Y-6774747D02*
G75*
G02*
X14374747Y-6774747I-20000J0D01*
G01*
X14374747Y-6774747D02*
G75*
G02*
X14414747Y-6774747I20000J0D01*
G01*
X14414747Y-7008093D02*
G75*
G02*
X14374747Y-7008093I-20000J0D01*
G01*
X14374747Y-7008093D02*
G75*
G02*
X14414747Y-7008093I20000J0D01*
G01*
X14414747Y-12774755D02*
G75*
G02*
X14374747Y-12774755I-20000J0D01*
G01*
X14374747Y-12774755D02*
G75*
G02*
X14414747Y-12774755I20000J0D01*
G01*
X14414747Y-13008100D02*
G75*
G02*
X14374747Y-13008100I-20000J0D01*
G01*
X14374747Y-13008100D02*
G75*
G02*
X14414747Y-13008100I20000J0D01*
G01*
X14531420Y-6726420D02*
G75*
G02*
X14491420Y-6726420I-20000J0D01*
G01*
X14491420Y-6726420D02*
G75*
G02*
X14531420Y-6726420I20000J0D01*
G01*
X14531420Y-7056420D02*
G75*
G02*
X14491420Y-7056420I-20000J0D01*
G01*
X14491420Y-7056420D02*
G75*
G02*
X14531420Y-7056420I20000J0D01*
G01*
X14531420Y-12726428D02*
G75*
G02*
X14491420Y-12726428I-20000J0D01*
G01*
X14491420Y-12726428D02*
G75*
G02*
X14531420Y-12726428I20000J0D01*
G01*
X14531420Y-13056428D02*
G75*
G02*
X14491420Y-13056428I-20000J0D01*
G01*
X14491420Y-13056428D02*
G75*
G02*
X14531420Y-13056428I20000J0D01*
G01*
X14648093Y-6774747D02*
G75*
G02*
X14608093Y-6774747I-20000J0D01*
G01*
X14608093Y-6774747D02*
G75*
G02*
X14648093Y-6774747I20000J0D01*
G01*
X14648093Y-7008093D02*
G75*
G02*
X14608093Y-7008093I-20000J0D01*
G01*
X14608093Y-7008093D02*
G75*
G02*
X14648093Y-7008093I20000J0D01*
G01*
X14648093Y-12774755D02*
G75*
G02*
X14608093Y-12774755I-20000J0D01*
G01*
X14608093Y-12774755D02*
G75*
G02*
X14648093Y-12774755I20000J0D01*
G01*
X14648093Y-13008100D02*
G75*
G02*
X14608093Y-13008100I-20000J0D01*
G01*
X14608093Y-13008100D02*
G75*
G02*
X14648093Y-13008100I20000J0D01*
G01*
X14696420Y-6891420D02*
G75*
G02*
X14656420Y-6891420I-20000J0D01*
G01*
X14656420Y-6891420D02*
G75*
G02*
X14696420Y-6891420I20000J0D01*
G01*
X14696420Y-12891428D02*
G75*
G02*
X14656420Y-12891428I-20000J0D01*
G01*
X14656420Y-12891428D02*
G75*
G02*
X14696420Y-12891428I20000J0D01*
G01*
X9122841Y-7705644D02*
X9122841Y-7805644D01*
X9072841Y-7755644D02*
X9172841Y-7755644D01*
X9122841Y-7959644D02*
X9122841Y-8059644D01*
X9072841Y-8009644D02*
X9172841Y-8009644D01*
X9122841Y-8213644D02*
X9122841Y-8313644D01*
X9072841Y-8263644D02*
X9172841Y-8263644D01*
X9122841Y-8467644D02*
X9122841Y-8567644D01*
X9072841Y-8517644D02*
X9172841Y-8517644D01*
X9122841Y-8721644D02*
X9122841Y-8821644D01*
X9072841Y-8771644D02*
X9172841Y-8771644D01*
X9122841Y-8975644D02*
X9122841Y-9075644D01*
X9072841Y-9025644D02*
X9172841Y-9025644D01*
X9122841Y-9229644D02*
X9122841Y-9329644D01*
X9072841Y-9279644D02*
X9172841Y-9279644D01*
X9122841Y-9483644D02*
X9122841Y-9583644D01*
X9072841Y-9533644D02*
X9172841Y-9533644D01*
X9122841Y-9737644D02*
X9122841Y-9837644D01*
X9072841Y-9787644D02*
X9172841Y-9787644D01*
X9122841Y-9991644D02*
X9122841Y-10091644D01*
X9072841Y-10041644D02*
X9172841Y-10041644D01*
X9122841Y-10245644D02*
X9122841Y-10345644D01*
X9072841Y-10295644D02*
X9172841Y-10295644D01*
X9524000Y-10990000D02*
X9524000Y-11090000D01*
X9474000Y-11040000D02*
X9574000Y-11040000D01*
X9778000Y-10990000D02*
X9778000Y-11090000D01*
X9728000Y-11040000D02*
X9828000Y-11040000D01*
X10480000Y-11676000D02*
X10480000Y-11776000D01*
X10430000Y-11726000D02*
X10530000Y-11726000D01*
X10480000Y-11930000D02*
X10480000Y-12030000D01*
X10430000Y-11980000D02*
X10530000Y-11980000D01*
X10622841Y-7705644D02*
X10622841Y-7805644D01*
X10572841Y-7755644D02*
X10672841Y-7755644D01*
X10622841Y-7959644D02*
X10622841Y-8059644D01*
X10572841Y-8009644D02*
X10672841Y-8009644D01*
X10622841Y-8213644D02*
X10622841Y-8313644D01*
X10572841Y-8263644D02*
X10672841Y-8263644D01*
X10622841Y-8467644D02*
X10622841Y-8567644D01*
X10572841Y-8517644D02*
X10672841Y-8517644D01*
X10622841Y-8721644D02*
X10622841Y-8821644D01*
X10572841Y-8771644D02*
X10672841Y-8771644D01*
X10622841Y-8975644D02*
X10622841Y-9075644D01*
X10572841Y-9025644D02*
X10672841Y-9025644D01*
X10622841Y-9229644D02*
X10622841Y-9329644D01*
X10572841Y-9279644D02*
X10672841Y-9279644D01*
X10622841Y-9483644D02*
X10622841Y-9583644D01*
X10572841Y-9533644D02*
X10672841Y-9533644D01*
X10622841Y-9737644D02*
X10622841Y-9837644D01*
X10572841Y-9787644D02*
X10672841Y-9787644D01*
X10622841Y-9991644D02*
X10622841Y-10091644D01*
X10572841Y-10041644D02*
X10672841Y-10041644D01*
X10622841Y-10245644D02*
X10622841Y-10345644D01*
X10572841Y-10295644D02*
X10672841Y-10295644D01*
X11588841Y-10620144D02*
X11588841Y-10720144D01*
X11538841Y-10670144D02*
X11638841Y-10670144D01*
X11842841Y-10620144D02*
X11842841Y-10720144D01*
X11792841Y-10670144D02*
X11892841Y-10670144D01*
X12096841Y-10620144D02*
X12096841Y-10720144D01*
X12046841Y-10670144D02*
X12146841Y-10670144D01*
X12350841Y-10620144D02*
X12350841Y-10720144D01*
X12300841Y-10670144D02*
X12400841Y-10670144D01*
X12400841Y-7451644D02*
X12400841Y-7551644D01*
X12350841Y-7501644D02*
X12450841Y-7501644D01*
X12400841Y-7705644D02*
X12400841Y-7805644D01*
X12350841Y-7755644D02*
X12450841Y-7755644D01*
X12400841Y-7959644D02*
X12400841Y-8059644D01*
X12350841Y-8009644D02*
X12450841Y-8009644D01*
X12400841Y-8213644D02*
X12400841Y-8313644D01*
X12350841Y-8263644D02*
X12450841Y-8263644D01*
X12400841Y-8467644D02*
X12400841Y-8567644D01*
X12350841Y-8517644D02*
X12450841Y-8517644D01*
X12400841Y-8721644D02*
X12400841Y-8821644D01*
X12350841Y-8771644D02*
X12450841Y-8771644D01*
X12400841Y-8975644D02*
X12400841Y-9075644D01*
X12350841Y-9025644D02*
X12450841Y-9025644D01*
X12400841Y-9229644D02*
X12400841Y-9329644D01*
X12350841Y-9279644D02*
X12450841Y-9279644D01*
X12400841Y-9483644D02*
X12400841Y-9583644D01*
X12350841Y-9533644D02*
X12450841Y-9533644D01*
X12400841Y-9737644D02*
X12400841Y-9837644D01*
X12350841Y-9787644D02*
X12450841Y-9787644D01*
X12400841Y-9991644D02*
X12400841Y-10091644D01*
X12350841Y-10041644D02*
X12450841Y-10041644D01*
X12400841Y-10245644D02*
X12400841Y-10345644D01*
X12350841Y-10295644D02*
X12450841Y-10295644D01*
X13310000Y-11305000D02*
X13310000Y-11405000D01*
X13260000Y-11355000D02*
X13360000Y-11355000D01*
X13560000Y-11305000D02*
X13560000Y-11405000D01*
X13510000Y-11355000D02*
X13610000Y-11355000D01*
X13792500Y-10950000D02*
X13792500Y-11050000D01*
X13742500Y-11000000D02*
X13842500Y-11000000D01*
X13810000Y-11305000D02*
X13810000Y-11405000D01*
X13760000Y-11355000D02*
X13860000Y-11355000D01*
X13900841Y-7451644D02*
X13900841Y-7551644D01*
X13850841Y-7501644D02*
X13950841Y-7501644D01*
X13900841Y-7705644D02*
X13900841Y-7805644D01*
X13850841Y-7755644D02*
X13950841Y-7755644D01*
X13900841Y-7959644D02*
X13900841Y-8059644D01*
X13850841Y-8009644D02*
X13950841Y-8009644D01*
X13900841Y-8213644D02*
X13900841Y-8313644D01*
X13850841Y-8263644D02*
X13950841Y-8263644D01*
X13900841Y-8467644D02*
X13900841Y-8567644D01*
X13850841Y-8517644D02*
X13950841Y-8517644D01*
X13900841Y-8721644D02*
X13900841Y-8821644D01*
X13850841Y-8771644D02*
X13950841Y-8771644D01*
X13900841Y-8975644D02*
X13900841Y-9075644D01*
X13850841Y-9025644D02*
X13950841Y-9025644D01*
X13900841Y-9229644D02*
X13900841Y-9329644D01*
X13850841Y-9279644D02*
X13950841Y-9279644D01*
X13900841Y-9483644D02*
X13900841Y-9583644D01*
X13850841Y-9533644D02*
X13950841Y-9533644D01*
X13900841Y-9737644D02*
X13900841Y-9837644D01*
X13850841Y-9787644D02*
X13950841Y-9787644D01*
X13900841Y-9991644D02*
X13900841Y-10091644D01*
X13850841Y-10041644D02*
X13950841Y-10041644D01*
X13900841Y-10245644D02*
X13900841Y-10345644D01*
X13850841Y-10295644D02*
X13950841Y-10295644D01*
X14046500Y-10950000D02*
X14046500Y-11050000D01*
X13996500Y-11000000D02*
X14096500Y-11000000D01*
D12*
X10936212Y-11671962D02*
X10936212Y-11580038D01*
X10844288Y-11580038D01*
X10844288Y-11671962D01*
X10936212Y-11671962D01*
X10936212Y-12171962D02*
X10936212Y-12080038D01*
X10844288Y-12080038D01*
X10844288Y-12171962D01*
X10936212Y-12171962D01*
X12186212Y-11671962D02*
X12186212Y-11580038D01*
X12094288Y-11580038D01*
X12094288Y-11671962D01*
X12186212Y-11671962D01*
X12186212Y-12171962D02*
X12186212Y-12080038D01*
X12094288Y-12080038D01*
X12094288Y-12171962D01*
X12186212Y-12171962D01*
D13*
X13120000Y-12145000D02*
X13210000Y-12055000D01*
X13120000Y-11965000D01*
X13030000Y-12055000D01*
X13120000Y-12145000D01*
D10*
X13030000Y-12040000D02*
X13030000Y-12070000D01*
X13210000Y-12070000D02*
G75*
G02*
X13030000Y-12070000I-90000J0D01*
G01*
X13210000Y-12070000D02*
X13210000Y-12040000D01*
X13210000Y-12040000D02*
G75*
G03*
X13030000Y-12040000I-90000J0D01*
G01*
D13*
X14000000Y-12145000D02*
X14090000Y-12055000D01*
X14000000Y-11965000D01*
X13910000Y-12055000D01*
X14000000Y-12145000D01*
D10*
X13910000Y-12040000D02*
X13910000Y-12070000D01*
X14090000Y-12070000D02*
G75*
G02*
X13910000Y-12070000I-90000J0D01*
G01*
X14090000Y-12070000D02*
X14090000Y-12040000D01*
X14090000Y-12040000D02*
G75*
G03*
X13910000Y-12040000I-90000J0D01*
G01*
D14*
X8399999Y-12779996D02*
X8619999Y-12999996D01*
X8619999Y-12779996D02*
X8399999Y-12999996D01*
X8619999Y-12889996D02*
G75*
G02*
X8399999Y-12889996I-110000J0D01*
G01*
X8399999Y-12889996D02*
G75*
G02*
X8619999Y-12889996I110000J0D01*
G01*
X8401420Y-6781420D02*
X8621420Y-7001420D01*
X8621420Y-6781420D02*
X8401420Y-7001420D01*
X8621420Y-6891420D02*
G75*
G02*
X8401420Y-6891420I-110000J0D01*
G01*
X8401420Y-6891420D02*
G75*
G02*
X8621420Y-6891420I110000J0D01*
G01*
X14401420Y-6781420D02*
X14621420Y-7001420D01*
X14621420Y-6781420D02*
X14401420Y-7001420D01*
X14621420Y-6891420D02*
G75*
G02*
X14401420Y-6891420I-110000J0D01*
G01*
X14401420Y-6891420D02*
G75*
G02*
X14621420Y-6891420I110000J0D01*
G01*
X14401420Y-12781428D02*
X14621420Y-13001428D01*
X14621420Y-12781428D02*
X14401420Y-13001428D01*
X14621420Y-12891428D02*
G75*
G02*
X14401420Y-12891428I-110000J0D01*
G01*
X14401420Y-12891428D02*
G75*
G02*
X14621420Y-12891428I110000J0D01*
G01*
D11*
X8315772Y-13657907D02*
X8315772Y-13457907D01*
X8315772Y-13457907D02*
X8363391Y-13457907D01*
X8363391Y-13457907D02*
X8391962Y-13467431D01*
X8391962Y-13467431D02*
X8411010Y-13486479D01*
X8411010Y-13486479D02*
X8420534Y-13505526D01*
X8420534Y-13505526D02*
X8430058Y-13543622D01*
X8430058Y-13543622D02*
X8430058Y-13572193D01*
X8430058Y-13572193D02*
X8420534Y-13610288D01*
X8420534Y-13610288D02*
X8411010Y-13629336D01*
X8411010Y-13629336D02*
X8391962Y-13648384D01*
X8391962Y-13648384D02*
X8363391Y-13657907D01*
X8363391Y-13657907D02*
X8315772Y-13657907D01*
X8515772Y-13657907D02*
X8515772Y-13524574D01*
X8515772Y-13562669D02*
X8525296Y-13543622D01*
X8525296Y-13543622D02*
X8534820Y-13534098D01*
X8534820Y-13534098D02*
X8553867Y-13524574D01*
X8553867Y-13524574D02*
X8572915Y-13524574D01*
X8639581Y-13657907D02*
X8639581Y-13524574D01*
X8639581Y-13457907D02*
X8630058Y-13467431D01*
X8630058Y-13467431D02*
X8639581Y-13476955D01*
X8639581Y-13476955D02*
X8649105Y-13467431D01*
X8649105Y-13467431D02*
X8639581Y-13457907D01*
X8639581Y-13457907D02*
X8639581Y-13476955D01*
X8763391Y-13657907D02*
X8744343Y-13648384D01*
X8744343Y-13648384D02*
X8734820Y-13629336D01*
X8734820Y-13629336D02*
X8734820Y-13457907D01*
X8868153Y-13657907D02*
X8849105Y-13648384D01*
X8849105Y-13648384D02*
X8839581Y-13629336D01*
X8839581Y-13629336D02*
X8839581Y-13457907D01*
X9096724Y-13657907D02*
X9096724Y-13457907D01*
X9096724Y-13457907D02*
X9163391Y-13600764D01*
X9163391Y-13600764D02*
X9230058Y-13457907D01*
X9230058Y-13457907D02*
X9230058Y-13657907D01*
X9411010Y-13657907D02*
X9411010Y-13553145D01*
X9411010Y-13553145D02*
X9401486Y-13534098D01*
X9401486Y-13534098D02*
X9382439Y-13524574D01*
X9382439Y-13524574D02*
X9344343Y-13524574D01*
X9344343Y-13524574D02*
X9325296Y-13534098D01*
X9411010Y-13648384D02*
X9391962Y-13657907D01*
X9391962Y-13657907D02*
X9344343Y-13657907D01*
X9344343Y-13657907D02*
X9325296Y-13648384D01*
X9325296Y-13648384D02*
X9315772Y-13629336D01*
X9315772Y-13629336D02*
X9315772Y-13610288D01*
X9315772Y-13610288D02*
X9325296Y-13591241D01*
X9325296Y-13591241D02*
X9344343Y-13581717D01*
X9344343Y-13581717D02*
X9391962Y-13581717D01*
X9391962Y-13581717D02*
X9411010Y-13572193D01*
X9506248Y-13524574D02*
X9506248Y-13724574D01*
X9506248Y-13534098D02*
X9525296Y-13524574D01*
X9525296Y-13524574D02*
X9563391Y-13524574D01*
X9563391Y-13524574D02*
X9582439Y-13534098D01*
X9582439Y-13534098D02*
X9591962Y-13543622D01*
X9591962Y-13543622D02*
X9601486Y-13562669D01*
X9601486Y-13562669D02*
X9601486Y-13619812D01*
X9601486Y-13619812D02*
X9591962Y-13638860D01*
X9591962Y-13638860D02*
X9582439Y-13648384D01*
X9582439Y-13648384D02*
X9563391Y-13657907D01*
X9563391Y-13657907D02*
X9525296Y-13657907D01*
X9525296Y-13657907D02*
X9506248Y-13648384D01*
X9687201Y-13638860D02*
X9696724Y-13648384D01*
X9696724Y-13648384D02*
X9687201Y-13657907D01*
X9687201Y-13657907D02*
X9677677Y-13648384D01*
X9677677Y-13648384D02*
X9687201Y-13638860D01*
X9687201Y-13638860D02*
X9687201Y-13657907D01*
X9687201Y-13534098D02*
X9696724Y-13543622D01*
X9696724Y-13543622D02*
X9687201Y-13553145D01*
X9687201Y-13553145D02*
X9677677Y-13543622D01*
X9677677Y-13543622D02*
X9687201Y-13534098D01*
X9687201Y-13534098D02*
X9687201Y-13553145D01*
D10*
X8024995Y-13971424D02*
X8054995Y-14001424D01*
X8054995Y-13971424D02*
X8024995Y-14001424D01*
D11*
X8353867Y-13877907D02*
X8372915Y-13877907D01*
X8372915Y-13877907D02*
X8391962Y-13887431D01*
X8391962Y-13887431D02*
X8401486Y-13896955D01*
X8401486Y-13896955D02*
X8411010Y-13916003D01*
X8411010Y-13916003D02*
X8420534Y-13954098D01*
X8420534Y-13954098D02*
X8420534Y-14001717D01*
X8420534Y-14001717D02*
X8411010Y-14039812D01*
X8411010Y-14039812D02*
X8401486Y-14058860D01*
X8401486Y-14058860D02*
X8391962Y-14068384D01*
X8391962Y-14068384D02*
X8372915Y-14077907D01*
X8372915Y-14077907D02*
X8353867Y-14077907D01*
X8353867Y-14077907D02*
X8334819Y-14068384D01*
X8334819Y-14068384D02*
X8325296Y-14058860D01*
X8325296Y-14058860D02*
X8315772Y-14039812D01*
X8315772Y-14039812D02*
X8306248Y-14001717D01*
X8306248Y-14001717D02*
X8306248Y-13954098D01*
X8306248Y-13954098D02*
X8315772Y-13916003D01*
X8315772Y-13916003D02*
X8325296Y-13896955D01*
X8325296Y-13896955D02*
X8334819Y-13887431D01*
X8334819Y-13887431D02*
X8353867Y-13877907D01*
X8506248Y-14058860D02*
X8515772Y-14068384D01*
X8515772Y-14068384D02*
X8506248Y-14077907D01*
X8506248Y-14077907D02*
X8496724Y-14068384D01*
X8496724Y-14068384D02*
X8506248Y-14058860D01*
X8506248Y-14058860D02*
X8506248Y-14077907D01*
X8582439Y-13877907D02*
X8706248Y-13877907D01*
X8706248Y-13877907D02*
X8639581Y-13954098D01*
X8639581Y-13954098D02*
X8668153Y-13954098D01*
X8668153Y-13954098D02*
X8687201Y-13963622D01*
X8687201Y-13963622D02*
X8696724Y-13973145D01*
X8696724Y-13973145D02*
X8706248Y-13992193D01*
X8706248Y-13992193D02*
X8706248Y-14039812D01*
X8706248Y-14039812D02*
X8696724Y-14058860D01*
X8696724Y-14058860D02*
X8687201Y-14068384D01*
X8687201Y-14068384D02*
X8668153Y-14077907D01*
X8668153Y-14077907D02*
X8611010Y-14077907D01*
X8611010Y-14077907D02*
X8591962Y-14068384D01*
X8591962Y-14068384D02*
X8582439Y-14058860D01*
X8830058Y-13877907D02*
X8849105Y-13877907D01*
X8849105Y-13877907D02*
X8868153Y-13887431D01*
X8868153Y-13887431D02*
X8877677Y-13896955D01*
X8877677Y-13896955D02*
X8887201Y-13916003D01*
X8887201Y-13916003D02*
X8896724Y-13954098D01*
X8896724Y-13954098D02*
X8896724Y-14001717D01*
X8896724Y-14001717D02*
X8887201Y-14039812D01*
X8887201Y-14039812D02*
X8877677Y-14058860D01*
X8877677Y-14058860D02*
X8868153Y-14068384D01*
X8868153Y-14068384D02*
X8849105Y-14077907D01*
X8849105Y-14077907D02*
X8830058Y-14077907D01*
X8830058Y-14077907D02*
X8811010Y-14068384D01*
X8811010Y-14068384D02*
X8801486Y-14058860D01*
X8801486Y-14058860D02*
X8791962Y-14039812D01*
X8791962Y-14039812D02*
X8782439Y-14001717D01*
X8782439Y-14001717D02*
X8782439Y-13954098D01*
X8782439Y-13954098D02*
X8791962Y-13916003D01*
X8791962Y-13916003D02*
X8801486Y-13896955D01*
X8801486Y-13896955D02*
X8811010Y-13887431D01*
X8811010Y-13887431D02*
X8830058Y-13877907D01*
X9020534Y-13877907D02*
X9039582Y-13877907D01*
X9039582Y-13877907D02*
X9058629Y-13887431D01*
X9058629Y-13887431D02*
X9068153Y-13896955D01*
X9068153Y-13896955D02*
X9077677Y-13916003D01*
X9077677Y-13916003D02*
X9087201Y-13954098D01*
X9087201Y-13954098D02*
X9087201Y-14001717D01*
X9087201Y-14001717D02*
X9077677Y-14039812D01*
X9077677Y-14039812D02*
X9068153Y-14058860D01*
X9068153Y-14058860D02*
X9058629Y-14068384D01*
X9058629Y-14068384D02*
X9039582Y-14077907D01*
X9039582Y-14077907D02*
X9020534Y-14077907D01*
X9020534Y-14077907D02*
X9001486Y-14068384D01*
X9001486Y-14068384D02*
X8991962Y-14058860D01*
X8991962Y-14058860D02*
X8982439Y-14039812D01*
X8982439Y-14039812D02*
X8972915Y-14001717D01*
X8972915Y-14001717D02*
X8972915Y-13954098D01*
X8972915Y-13954098D02*
X8982439Y-13916003D01*
X8982439Y-13916003D02*
X8991962Y-13896955D01*
X8991962Y-13896955D02*
X9001486Y-13887431D01*
X9001486Y-13887431D02*
X9020534Y-13877907D01*
X9172915Y-14077907D02*
X9172915Y-13944574D01*
X9172915Y-13963622D02*
X9182439Y-13954098D01*
X9182439Y-13954098D02*
X9201486Y-13944574D01*
X9201486Y-13944574D02*
X9230058Y-13944574D01*
X9230058Y-13944574D02*
X9249105Y-13954098D01*
X9249105Y-13954098D02*
X9258629Y-13973145D01*
X9258629Y-13973145D02*
X9258629Y-14077907D01*
X9258629Y-13973145D02*
X9268153Y-13954098D01*
X9268153Y-13954098D02*
X9287201Y-13944574D01*
X9287201Y-13944574D02*
X9315772Y-13944574D01*
X9315772Y-13944574D02*
X9334820Y-13954098D01*
X9334820Y-13954098D02*
X9344343Y-13973145D01*
X9344343Y-13973145D02*
X9344343Y-14077907D01*
X9439582Y-14077907D02*
X9439582Y-13944574D01*
X9439582Y-13963622D02*
X9449105Y-13954098D01*
X9449105Y-13954098D02*
X9468153Y-13944574D01*
X9468153Y-13944574D02*
X9496724Y-13944574D01*
X9496724Y-13944574D02*
X9515772Y-13954098D01*
X9515772Y-13954098D02*
X9525296Y-13973145D01*
X9525296Y-13973145D02*
X9525296Y-14077907D01*
X9525296Y-13973145D02*
X9534820Y-13954098D01*
X9534820Y-13954098D02*
X9553867Y-13944574D01*
X9553867Y-13944574D02*
X9582439Y-13944574D01*
X9582439Y-13944574D02*
X9601486Y-13954098D01*
X9601486Y-13954098D02*
X9611010Y-13973145D01*
X9611010Y-13973145D02*
X9611010Y-14077907D01*
X10001486Y-13868384D02*
X9830058Y-14125526D01*
X10258629Y-13877907D02*
X10277677Y-13877907D01*
X10277677Y-13877907D02*
X10296725Y-13887431D01*
X10296725Y-13887431D02*
X10306248Y-13896955D01*
X10306248Y-13896955D02*
X10315772Y-13916003D01*
X10315772Y-13916003D02*
X10325296Y-13954098D01*
X10325296Y-13954098D02*
X10325296Y-14001717D01*
X10325296Y-14001717D02*
X10315772Y-14039812D01*
X10315772Y-14039812D02*
X10306248Y-14058860D01*
X10306248Y-14058860D02*
X10296725Y-14068384D01*
X10296725Y-14068384D02*
X10277677Y-14077907D01*
X10277677Y-14077907D02*
X10258629Y-14077907D01*
X10258629Y-14077907D02*
X10239582Y-14068384D01*
X10239582Y-14068384D02*
X10230058Y-14058860D01*
X10230058Y-14058860D02*
X10220534Y-14039812D01*
X10220534Y-14039812D02*
X10211010Y-14001717D01*
X10211010Y-14001717D02*
X10211010Y-13954098D01*
X10211010Y-13954098D02*
X10220534Y-13916003D01*
X10220534Y-13916003D02*
X10230058Y-13896955D01*
X10230058Y-13896955D02*
X10239582Y-13887431D01*
X10239582Y-13887431D02*
X10258629Y-13877907D01*
X10411010Y-14058860D02*
X10420534Y-14068384D01*
X10420534Y-14068384D02*
X10411010Y-14077907D01*
X10411010Y-14077907D02*
X10401486Y-14068384D01*
X10401486Y-14068384D02*
X10411010Y-14058860D01*
X10411010Y-14058860D02*
X10411010Y-14077907D01*
X10544344Y-13877907D02*
X10563391Y-13877907D01*
X10563391Y-13877907D02*
X10582439Y-13887431D01*
X10582439Y-13887431D02*
X10591963Y-13896955D01*
X10591963Y-13896955D02*
X10601486Y-13916003D01*
X10601486Y-13916003D02*
X10611010Y-13954098D01*
X10611010Y-13954098D02*
X10611010Y-14001717D01*
X10611010Y-14001717D02*
X10601486Y-14039812D01*
X10601486Y-14039812D02*
X10591963Y-14058860D01*
X10591963Y-14058860D02*
X10582439Y-14068384D01*
X10582439Y-14068384D02*
X10563391Y-14077907D01*
X10563391Y-14077907D02*
X10544344Y-14077907D01*
X10544344Y-14077907D02*
X10525296Y-14068384D01*
X10525296Y-14068384D02*
X10515772Y-14058860D01*
X10515772Y-14058860D02*
X10506248Y-14039812D01*
X10506248Y-14039812D02*
X10496725Y-14001717D01*
X10496725Y-14001717D02*
X10496725Y-13954098D01*
X10496725Y-13954098D02*
X10506248Y-13916003D01*
X10506248Y-13916003D02*
X10515772Y-13896955D01*
X10515772Y-13896955D02*
X10525296Y-13887431D01*
X10525296Y-13887431D02*
X10544344Y-13877907D01*
X10801486Y-14077907D02*
X10687201Y-14077907D01*
X10744344Y-14077907D02*
X10744344Y-13877907D01*
X10744344Y-13877907D02*
X10725296Y-13906479D01*
X10725296Y-13906479D02*
X10706248Y-13925526D01*
X10706248Y-13925526D02*
X10687201Y-13935050D01*
X10991963Y-14077907D02*
X10877677Y-14077907D01*
X10934820Y-14077907D02*
X10934820Y-13877907D01*
X10934820Y-13877907D02*
X10915772Y-13906479D01*
X10915772Y-13906479D02*
X10896725Y-13925526D01*
X10896725Y-13925526D02*
X10877677Y-13935050D01*
X11106248Y-13963622D02*
X11087201Y-13954098D01*
X11087201Y-13954098D02*
X11077677Y-13944574D01*
X11077677Y-13944574D02*
X11068153Y-13925526D01*
X11068153Y-13925526D02*
X11068153Y-13916003D01*
X11068153Y-13916003D02*
X11077677Y-13896955D01*
X11077677Y-13896955D02*
X11087201Y-13887431D01*
X11087201Y-13887431D02*
X11106248Y-13877907D01*
X11106248Y-13877907D02*
X11144344Y-13877907D01*
X11144344Y-13877907D02*
X11163391Y-13887431D01*
X11163391Y-13887431D02*
X11172915Y-13896955D01*
X11172915Y-13896955D02*
X11182439Y-13916003D01*
X11182439Y-13916003D02*
X11182439Y-13925526D01*
X11182439Y-13925526D02*
X11172915Y-13944574D01*
X11172915Y-13944574D02*
X11163391Y-13954098D01*
X11163391Y-13954098D02*
X11144344Y-13963622D01*
X11144344Y-13963622D02*
X11106248Y-13963622D01*
X11106248Y-13963622D02*
X11087201Y-13973145D01*
X11087201Y-13973145D02*
X11077677Y-13982669D01*
X11077677Y-13982669D02*
X11068153Y-14001717D01*
X11068153Y-14001717D02*
X11068153Y-14039812D01*
X11068153Y-14039812D02*
X11077677Y-14058860D01*
X11077677Y-14058860D02*
X11087201Y-14068384D01*
X11087201Y-14068384D02*
X11106248Y-14077907D01*
X11106248Y-14077907D02*
X11144344Y-14077907D01*
X11144344Y-14077907D02*
X11163391Y-14068384D01*
X11163391Y-14068384D02*
X11172915Y-14058860D01*
X11172915Y-14058860D02*
X11182439Y-14039812D01*
X11182439Y-14039812D02*
X11182439Y-14001717D01*
X11182439Y-14001717D02*
X11172915Y-13982669D01*
X11172915Y-13982669D02*
X11163391Y-13973145D01*
X11163391Y-13973145D02*
X11144344Y-13963622D01*
X11258629Y-13877907D02*
X11258629Y-13916003D01*
X11334820Y-13877907D02*
X11334820Y-13916003D01*
X11630058Y-14154098D02*
X11620534Y-14144574D01*
X11620534Y-14144574D02*
X11601486Y-14116003D01*
X11601486Y-14116003D02*
X11591963Y-14096955D01*
X11591963Y-14096955D02*
X11582439Y-14068384D01*
X11582439Y-14068384D02*
X11572915Y-14020764D01*
X11572915Y-14020764D02*
X11572915Y-13982669D01*
X11572915Y-13982669D02*
X11582439Y-13935050D01*
X11582439Y-13935050D02*
X11591963Y-13906479D01*
X11591963Y-13906479D02*
X11601486Y-13887431D01*
X11601486Y-13887431D02*
X11620534Y-13858860D01*
X11620534Y-13858860D02*
X11630058Y-13849336D01*
X11791963Y-13877907D02*
X11753867Y-13877907D01*
X11753867Y-13877907D02*
X11734820Y-13887431D01*
X11734820Y-13887431D02*
X11725296Y-13896955D01*
X11725296Y-13896955D02*
X11706248Y-13925526D01*
X11706248Y-13925526D02*
X11696725Y-13963622D01*
X11696725Y-13963622D02*
X11696725Y-14039812D01*
X11696725Y-14039812D02*
X11706248Y-14058860D01*
X11706248Y-14058860D02*
X11715772Y-14068384D01*
X11715772Y-14068384D02*
X11734820Y-14077907D01*
X11734820Y-14077907D02*
X11772915Y-14077907D01*
X11772915Y-14077907D02*
X11791963Y-14068384D01*
X11791963Y-14068384D02*
X11801486Y-14058860D01*
X11801486Y-14058860D02*
X11811010Y-14039812D01*
X11811010Y-14039812D02*
X11811010Y-13992193D01*
X11811010Y-13992193D02*
X11801486Y-13973145D01*
X11801486Y-13973145D02*
X11791963Y-13963622D01*
X11791963Y-13963622D02*
X11772915Y-13954098D01*
X11772915Y-13954098D02*
X11734820Y-13954098D01*
X11734820Y-13954098D02*
X11715772Y-13963622D01*
X11715772Y-13963622D02*
X11706248Y-13973145D01*
X11706248Y-13973145D02*
X11696725Y-13992193D01*
X12049106Y-14077907D02*
X12049106Y-13877907D01*
X12134820Y-14077907D02*
X12134820Y-13973145D01*
X12134820Y-13973145D02*
X12125296Y-13954098D01*
X12125296Y-13954098D02*
X12106248Y-13944574D01*
X12106248Y-13944574D02*
X12077677Y-13944574D01*
X12077677Y-13944574D02*
X12058629Y-13954098D01*
X12058629Y-13954098D02*
X12049106Y-13963622D01*
X12258629Y-14077907D02*
X12239582Y-14068384D01*
X12239582Y-14068384D02*
X12230058Y-14058860D01*
X12230058Y-14058860D02*
X12220534Y-14039812D01*
X12220534Y-14039812D02*
X12220534Y-13982669D01*
X12220534Y-13982669D02*
X12230058Y-13963622D01*
X12230058Y-13963622D02*
X12239582Y-13954098D01*
X12239582Y-13954098D02*
X12258629Y-13944574D01*
X12258629Y-13944574D02*
X12287201Y-13944574D01*
X12287201Y-13944574D02*
X12306248Y-13954098D01*
X12306248Y-13954098D02*
X12315772Y-13963622D01*
X12315772Y-13963622D02*
X12325296Y-13982669D01*
X12325296Y-13982669D02*
X12325296Y-14039812D01*
X12325296Y-14039812D02*
X12315772Y-14058860D01*
X12315772Y-14058860D02*
X12306248Y-14068384D01*
X12306248Y-14068384D02*
X12287201Y-14077907D01*
X12287201Y-14077907D02*
X12258629Y-14077907D01*
X12439582Y-14077907D02*
X12420534Y-14068384D01*
X12420534Y-14068384D02*
X12411010Y-14049336D01*
X12411010Y-14049336D02*
X12411010Y-13877907D01*
X12591963Y-14068384D02*
X12572915Y-14077907D01*
X12572915Y-14077907D02*
X12534820Y-14077907D01*
X12534820Y-14077907D02*
X12515772Y-14068384D01*
X12515772Y-14068384D02*
X12506248Y-14049336D01*
X12506248Y-14049336D02*
X12506248Y-13973145D01*
X12506248Y-13973145D02*
X12515772Y-13954098D01*
X12515772Y-13954098D02*
X12534820Y-13944574D01*
X12534820Y-13944574D02*
X12572915Y-13944574D01*
X12572915Y-13944574D02*
X12591963Y-13954098D01*
X12591963Y-13954098D02*
X12601487Y-13973145D01*
X12601487Y-13973145D02*
X12601487Y-13992193D01*
X12601487Y-13992193D02*
X12506248Y-14011241D01*
X12677677Y-14068384D02*
X12696725Y-14077907D01*
X12696725Y-14077907D02*
X12734820Y-14077907D01*
X12734820Y-14077907D02*
X12753868Y-14068384D01*
X12753868Y-14068384D02*
X12763391Y-14049336D01*
X12763391Y-14049336D02*
X12763391Y-14039812D01*
X12763391Y-14039812D02*
X12753868Y-14020764D01*
X12753868Y-14020764D02*
X12734820Y-14011241D01*
X12734820Y-14011241D02*
X12706248Y-14011241D01*
X12706248Y-14011241D02*
X12687201Y-14001717D01*
X12687201Y-14001717D02*
X12677677Y-13982669D01*
X12677677Y-13982669D02*
X12677677Y-13973145D01*
X12677677Y-13973145D02*
X12687201Y-13954098D01*
X12687201Y-13954098D02*
X12706248Y-13944574D01*
X12706248Y-13944574D02*
X12734820Y-13944574D01*
X12734820Y-13944574D02*
X12753868Y-13954098D01*
X12830058Y-14154098D02*
X12839582Y-14144574D01*
X12839582Y-14144574D02*
X12858629Y-14116003D01*
X12858629Y-14116003D02*
X12868153Y-14096955D01*
X12868153Y-14096955D02*
X12877677Y-14068384D01*
X12877677Y-14068384D02*
X12887201Y-14020764D01*
X12887201Y-14020764D02*
X12887201Y-13982669D01*
X12887201Y-13982669D02*
X12877677Y-13935050D01*
X12877677Y-13935050D02*
X12868153Y-13906479D01*
X12868153Y-13906479D02*
X12858629Y-13887431D01*
X12858629Y-13887431D02*
X12839582Y-13858860D01*
X12839582Y-13858860D02*
X12830058Y-13849336D01*
D10*
X8054995Y-14250424D02*
G75*
G02*
X8014995Y-14250424I-20000J0D01*
G01*
X8014995Y-14250424D02*
G75*
G02*
X8054995Y-14250424I20000J0D01*
G01*
D11*
X8353867Y-14141907D02*
X8372915Y-14141907D01*
X8372915Y-14141907D02*
X8391962Y-14151431D01*
X8391962Y-14151431D02*
X8401486Y-14160955D01*
X8401486Y-14160955D02*
X8411010Y-14180003D01*
X8411010Y-14180003D02*
X8420534Y-14218098D01*
X8420534Y-14218098D02*
X8420534Y-14265717D01*
X8420534Y-14265717D02*
X8411010Y-14303812D01*
X8411010Y-14303812D02*
X8401486Y-14322860D01*
X8401486Y-14322860D02*
X8391962Y-14332384D01*
X8391962Y-14332384D02*
X8372915Y-14341907D01*
X8372915Y-14341907D02*
X8353867Y-14341907D01*
X8353867Y-14341907D02*
X8334819Y-14332384D01*
X8334819Y-14332384D02*
X8325296Y-14322860D01*
X8325296Y-14322860D02*
X8315772Y-14303812D01*
X8315772Y-14303812D02*
X8306248Y-14265717D01*
X8306248Y-14265717D02*
X8306248Y-14218098D01*
X8306248Y-14218098D02*
X8315772Y-14180003D01*
X8315772Y-14180003D02*
X8325296Y-14160955D01*
X8325296Y-14160955D02*
X8334819Y-14151431D01*
X8334819Y-14151431D02*
X8353867Y-14141907D01*
X8506248Y-14322860D02*
X8515772Y-14332384D01*
X8515772Y-14332384D02*
X8506248Y-14341907D01*
X8506248Y-14341907D02*
X8496724Y-14332384D01*
X8496724Y-14332384D02*
X8506248Y-14322860D01*
X8506248Y-14322860D02*
X8506248Y-14341907D01*
X8687201Y-14208574D02*
X8687201Y-14341907D01*
X8639581Y-14132384D02*
X8591962Y-14275241D01*
X8591962Y-14275241D02*
X8715772Y-14275241D01*
X8830058Y-14141907D02*
X8849105Y-14141907D01*
X8849105Y-14141907D02*
X8868153Y-14151431D01*
X8868153Y-14151431D02*
X8877677Y-14160955D01*
X8877677Y-14160955D02*
X8887201Y-14180003D01*
X8887201Y-14180003D02*
X8896724Y-14218098D01*
X8896724Y-14218098D02*
X8896724Y-14265717D01*
X8896724Y-14265717D02*
X8887201Y-14303812D01*
X8887201Y-14303812D02*
X8877677Y-14322860D01*
X8877677Y-14322860D02*
X8868153Y-14332384D01*
X8868153Y-14332384D02*
X8849105Y-14341907D01*
X8849105Y-14341907D02*
X8830058Y-14341907D01*
X8830058Y-14341907D02*
X8811010Y-14332384D01*
X8811010Y-14332384D02*
X8801486Y-14322860D01*
X8801486Y-14322860D02*
X8791962Y-14303812D01*
X8791962Y-14303812D02*
X8782439Y-14265717D01*
X8782439Y-14265717D02*
X8782439Y-14218098D01*
X8782439Y-14218098D02*
X8791962Y-14180003D01*
X8791962Y-14180003D02*
X8801486Y-14160955D01*
X8801486Y-14160955D02*
X8811010Y-14151431D01*
X8811010Y-14151431D02*
X8830058Y-14141907D01*
X9020534Y-14141907D02*
X9039582Y-14141907D01*
X9039582Y-14141907D02*
X9058629Y-14151431D01*
X9058629Y-14151431D02*
X9068153Y-14160955D01*
X9068153Y-14160955D02*
X9077677Y-14180003D01*
X9077677Y-14180003D02*
X9087201Y-14218098D01*
X9087201Y-14218098D02*
X9087201Y-14265717D01*
X9087201Y-14265717D02*
X9077677Y-14303812D01*
X9077677Y-14303812D02*
X9068153Y-14322860D01*
X9068153Y-14322860D02*
X9058629Y-14332384D01*
X9058629Y-14332384D02*
X9039582Y-14341907D01*
X9039582Y-14341907D02*
X9020534Y-14341907D01*
X9020534Y-14341907D02*
X9001486Y-14332384D01*
X9001486Y-14332384D02*
X8991962Y-14322860D01*
X8991962Y-14322860D02*
X8982439Y-14303812D01*
X8982439Y-14303812D02*
X8972915Y-14265717D01*
X8972915Y-14265717D02*
X8972915Y-14218098D01*
X8972915Y-14218098D02*
X8982439Y-14180003D01*
X8982439Y-14180003D02*
X8991962Y-14160955D01*
X8991962Y-14160955D02*
X9001486Y-14151431D01*
X9001486Y-14151431D02*
X9020534Y-14141907D01*
X9172915Y-14341907D02*
X9172915Y-14208574D01*
X9172915Y-14227622D02*
X9182439Y-14218098D01*
X9182439Y-14218098D02*
X9201486Y-14208574D01*
X9201486Y-14208574D02*
X9230058Y-14208574D01*
X9230058Y-14208574D02*
X9249105Y-14218098D01*
X9249105Y-14218098D02*
X9258629Y-14237145D01*
X9258629Y-14237145D02*
X9258629Y-14341907D01*
X9258629Y-14237145D02*
X9268153Y-14218098D01*
X9268153Y-14218098D02*
X9287201Y-14208574D01*
X9287201Y-14208574D02*
X9315772Y-14208574D01*
X9315772Y-14208574D02*
X9334820Y-14218098D01*
X9334820Y-14218098D02*
X9344343Y-14237145D01*
X9344343Y-14237145D02*
X9344343Y-14341907D01*
X9439582Y-14341907D02*
X9439582Y-14208574D01*
X9439582Y-14227622D02*
X9449105Y-14218098D01*
X9449105Y-14218098D02*
X9468153Y-14208574D01*
X9468153Y-14208574D02*
X9496724Y-14208574D01*
X9496724Y-14208574D02*
X9515772Y-14218098D01*
X9515772Y-14218098D02*
X9525296Y-14237145D01*
X9525296Y-14237145D02*
X9525296Y-14341907D01*
X9525296Y-14237145D02*
X9534820Y-14218098D01*
X9534820Y-14218098D02*
X9553867Y-14208574D01*
X9553867Y-14208574D02*
X9582439Y-14208574D01*
X9582439Y-14208574D02*
X9601486Y-14218098D01*
X9601486Y-14218098D02*
X9611010Y-14237145D01*
X9611010Y-14237145D02*
X9611010Y-14341907D01*
X10001486Y-14132384D02*
X9830058Y-14389526D01*
X10258629Y-14141907D02*
X10277677Y-14141907D01*
X10277677Y-14141907D02*
X10296725Y-14151431D01*
X10296725Y-14151431D02*
X10306248Y-14160955D01*
X10306248Y-14160955D02*
X10315772Y-14180003D01*
X10315772Y-14180003D02*
X10325296Y-14218098D01*
X10325296Y-14218098D02*
X10325296Y-14265717D01*
X10325296Y-14265717D02*
X10315772Y-14303812D01*
X10315772Y-14303812D02*
X10306248Y-14322860D01*
X10306248Y-14322860D02*
X10296725Y-14332384D01*
X10296725Y-14332384D02*
X10277677Y-14341907D01*
X10277677Y-14341907D02*
X10258629Y-14341907D01*
X10258629Y-14341907D02*
X10239582Y-14332384D01*
X10239582Y-14332384D02*
X10230058Y-14322860D01*
X10230058Y-14322860D02*
X10220534Y-14303812D01*
X10220534Y-14303812D02*
X10211010Y-14265717D01*
X10211010Y-14265717D02*
X10211010Y-14218098D01*
X10211010Y-14218098D02*
X10220534Y-14180003D01*
X10220534Y-14180003D02*
X10230058Y-14160955D01*
X10230058Y-14160955D02*
X10239582Y-14151431D01*
X10239582Y-14151431D02*
X10258629Y-14141907D01*
X10411010Y-14322860D02*
X10420534Y-14332384D01*
X10420534Y-14332384D02*
X10411010Y-14341907D01*
X10411010Y-14341907D02*
X10401486Y-14332384D01*
X10401486Y-14332384D02*
X10411010Y-14322860D01*
X10411010Y-14322860D02*
X10411010Y-14341907D01*
X10544344Y-14141907D02*
X10563391Y-14141907D01*
X10563391Y-14141907D02*
X10582439Y-14151431D01*
X10582439Y-14151431D02*
X10591963Y-14160955D01*
X10591963Y-14160955D02*
X10601486Y-14180003D01*
X10601486Y-14180003D02*
X10611010Y-14218098D01*
X10611010Y-14218098D02*
X10611010Y-14265717D01*
X10611010Y-14265717D02*
X10601486Y-14303812D01*
X10601486Y-14303812D02*
X10591963Y-14322860D01*
X10591963Y-14322860D02*
X10582439Y-14332384D01*
X10582439Y-14332384D02*
X10563391Y-14341907D01*
X10563391Y-14341907D02*
X10544344Y-14341907D01*
X10544344Y-14341907D02*
X10525296Y-14332384D01*
X10525296Y-14332384D02*
X10515772Y-14322860D01*
X10515772Y-14322860D02*
X10506248Y-14303812D01*
X10506248Y-14303812D02*
X10496725Y-14265717D01*
X10496725Y-14265717D02*
X10496725Y-14218098D01*
X10496725Y-14218098D02*
X10506248Y-14180003D01*
X10506248Y-14180003D02*
X10515772Y-14160955D01*
X10515772Y-14160955D02*
X10525296Y-14151431D01*
X10525296Y-14151431D02*
X10544344Y-14141907D01*
X10801486Y-14341907D02*
X10687201Y-14341907D01*
X10744344Y-14341907D02*
X10744344Y-14141907D01*
X10744344Y-14141907D02*
X10725296Y-14170479D01*
X10725296Y-14170479D02*
X10706248Y-14189526D01*
X10706248Y-14189526D02*
X10687201Y-14199050D01*
X10982439Y-14141907D02*
X10887201Y-14141907D01*
X10887201Y-14141907D02*
X10877677Y-14237145D01*
X10877677Y-14237145D02*
X10887201Y-14227622D01*
X10887201Y-14227622D02*
X10906248Y-14218098D01*
X10906248Y-14218098D02*
X10953867Y-14218098D01*
X10953867Y-14218098D02*
X10972915Y-14227622D01*
X10972915Y-14227622D02*
X10982439Y-14237145D01*
X10982439Y-14237145D02*
X10991963Y-14256193D01*
X10991963Y-14256193D02*
X10991963Y-14303812D01*
X10991963Y-14303812D02*
X10982439Y-14322860D01*
X10982439Y-14322860D02*
X10972915Y-14332384D01*
X10972915Y-14332384D02*
X10953867Y-14341907D01*
X10953867Y-14341907D02*
X10906248Y-14341907D01*
X10906248Y-14341907D02*
X10887201Y-14332384D01*
X10887201Y-14332384D02*
X10877677Y-14322860D01*
X11058629Y-14141907D02*
X11191963Y-14141907D01*
X11191963Y-14141907D02*
X11106248Y-14341907D01*
X11258629Y-14141907D02*
X11258629Y-14180003D01*
X11334820Y-14141907D02*
X11334820Y-14180003D01*
X11630058Y-14418098D02*
X11620534Y-14408574D01*
X11620534Y-14408574D02*
X11601486Y-14380003D01*
X11601486Y-14380003D02*
X11591963Y-14360955D01*
X11591963Y-14360955D02*
X11582439Y-14332384D01*
X11582439Y-14332384D02*
X11572915Y-14284764D01*
X11572915Y-14284764D02*
X11572915Y-14246669D01*
X11572915Y-14246669D02*
X11582439Y-14199050D01*
X11582439Y-14199050D02*
X11591963Y-14170479D01*
X11591963Y-14170479D02*
X11601486Y-14151431D01*
X11601486Y-14151431D02*
X11620534Y-14122860D01*
X11620534Y-14122860D02*
X11630058Y-14113336D01*
X11687201Y-14141907D02*
X11811010Y-14141907D01*
X11811010Y-14141907D02*
X11744344Y-14218098D01*
X11744344Y-14218098D02*
X11772915Y-14218098D01*
X11772915Y-14218098D02*
X11791963Y-14227622D01*
X11791963Y-14227622D02*
X11801486Y-14237145D01*
X11801486Y-14237145D02*
X11811010Y-14256193D01*
X11811010Y-14256193D02*
X11811010Y-14303812D01*
X11811010Y-14303812D02*
X11801486Y-14322860D01*
X11801486Y-14322860D02*
X11791963Y-14332384D01*
X11791963Y-14332384D02*
X11772915Y-14341907D01*
X11772915Y-14341907D02*
X11715772Y-14341907D01*
X11715772Y-14341907D02*
X11696725Y-14332384D01*
X11696725Y-14332384D02*
X11687201Y-14322860D01*
X11887201Y-14160955D02*
X11896725Y-14151431D01*
X11896725Y-14151431D02*
X11915772Y-14141907D01*
X11915772Y-14141907D02*
X11963391Y-14141907D01*
X11963391Y-14141907D02*
X11982439Y-14151431D01*
X11982439Y-14151431D02*
X11991963Y-14160955D01*
X11991963Y-14160955D02*
X12001486Y-14180003D01*
X12001486Y-14180003D02*
X12001486Y-14199050D01*
X12001486Y-14199050D02*
X11991963Y-14227622D01*
X11991963Y-14227622D02*
X11877677Y-14341907D01*
X11877677Y-14341907D02*
X12001486Y-14341907D01*
X12239582Y-14341907D02*
X12239582Y-14141907D01*
X12325296Y-14341907D02*
X12325296Y-14237145D01*
X12325296Y-14237145D02*
X12315772Y-14218098D01*
X12315772Y-14218098D02*
X12296725Y-14208574D01*
X12296725Y-14208574D02*
X12268153Y-14208574D01*
X12268153Y-14208574D02*
X12249106Y-14218098D01*
X12249106Y-14218098D02*
X12239582Y-14227622D01*
X12449106Y-14341907D02*
X12430058Y-14332384D01*
X12430058Y-14332384D02*
X12420534Y-14322860D01*
X12420534Y-14322860D02*
X12411010Y-14303812D01*
X12411010Y-14303812D02*
X12411010Y-14246669D01*
X12411010Y-14246669D02*
X12420534Y-14227622D01*
X12420534Y-14227622D02*
X12430058Y-14218098D01*
X12430058Y-14218098D02*
X12449106Y-14208574D01*
X12449106Y-14208574D02*
X12477677Y-14208574D01*
X12477677Y-14208574D02*
X12496725Y-14218098D01*
X12496725Y-14218098D02*
X12506248Y-14227622D01*
X12506248Y-14227622D02*
X12515772Y-14246669D01*
X12515772Y-14246669D02*
X12515772Y-14303812D01*
X12515772Y-14303812D02*
X12506248Y-14322860D01*
X12506248Y-14322860D02*
X12496725Y-14332384D01*
X12496725Y-14332384D02*
X12477677Y-14341907D01*
X12477677Y-14341907D02*
X12449106Y-14341907D01*
X12630058Y-14341907D02*
X12611010Y-14332384D01*
X12611010Y-14332384D02*
X12601487Y-14313336D01*
X12601487Y-14313336D02*
X12601487Y-14141907D01*
X12782439Y-14332384D02*
X12763391Y-14341907D01*
X12763391Y-14341907D02*
X12725296Y-14341907D01*
X12725296Y-14341907D02*
X12706248Y-14332384D01*
X12706248Y-14332384D02*
X12696725Y-14313336D01*
X12696725Y-14313336D02*
X12696725Y-14237145D01*
X12696725Y-14237145D02*
X12706248Y-14218098D01*
X12706248Y-14218098D02*
X12725296Y-14208574D01*
X12725296Y-14208574D02*
X12763391Y-14208574D01*
X12763391Y-14208574D02*
X12782439Y-14218098D01*
X12782439Y-14218098D02*
X12791963Y-14237145D01*
X12791963Y-14237145D02*
X12791963Y-14256193D01*
X12791963Y-14256193D02*
X12696725Y-14275241D01*
X12868153Y-14332384D02*
X12887201Y-14341907D01*
X12887201Y-14341907D02*
X12925296Y-14341907D01*
X12925296Y-14341907D02*
X12944344Y-14332384D01*
X12944344Y-14332384D02*
X12953868Y-14313336D01*
X12953868Y-14313336D02*
X12953868Y-14303812D01*
X12953868Y-14303812D02*
X12944344Y-14284764D01*
X12944344Y-14284764D02*
X12925296Y-14275241D01*
X12925296Y-14275241D02*
X12896725Y-14275241D01*
X12896725Y-14275241D02*
X12877677Y-14265717D01*
X12877677Y-14265717D02*
X12868153Y-14246669D01*
X12868153Y-14246669D02*
X12868153Y-14237145D01*
X12868153Y-14237145D02*
X12877677Y-14218098D01*
X12877677Y-14218098D02*
X12896725Y-14208574D01*
X12896725Y-14208574D02*
X12925296Y-14208574D01*
X12925296Y-14208574D02*
X12944344Y-14218098D01*
X13020534Y-14418098D02*
X13030058Y-14408574D01*
X13030058Y-14408574D02*
X13049106Y-14380003D01*
X13049106Y-14380003D02*
X13058629Y-14360955D01*
X13058629Y-14360955D02*
X13068153Y-14332384D01*
X13068153Y-14332384D02*
X13077677Y-14284764D01*
X13077677Y-14284764D02*
X13077677Y-14246669D01*
X13077677Y-14246669D02*
X13068153Y-14199050D01*
X13068153Y-14199050D02*
X13058629Y-14170479D01*
X13058629Y-14170479D02*
X13049106Y-14151431D01*
X13049106Y-14151431D02*
X13030058Y-14122860D01*
X13030058Y-14122860D02*
X13020534Y-14113336D01*
D10*
X8004995Y-14464424D02*
X8004995Y-14564424D01*
X7954995Y-14514424D02*
X8054995Y-14514424D01*
D11*
X8420534Y-14605907D02*
X8306248Y-14605907D01*
X8363391Y-14605907D02*
X8363391Y-14405907D01*
X8363391Y-14405907D02*
X8344343Y-14434479D01*
X8344343Y-14434479D02*
X8325296Y-14453526D01*
X8325296Y-14453526D02*
X8306248Y-14463050D01*
X8506248Y-14586860D02*
X8515772Y-14596384D01*
X8515772Y-14596384D02*
X8506248Y-14605907D01*
X8506248Y-14605907D02*
X8496724Y-14596384D01*
X8496724Y-14596384D02*
X8506248Y-14586860D01*
X8506248Y-14586860D02*
X8506248Y-14605907D01*
X8639581Y-14405907D02*
X8658629Y-14405907D01*
X8658629Y-14405907D02*
X8677677Y-14415431D01*
X8677677Y-14415431D02*
X8687201Y-14424955D01*
X8687201Y-14424955D02*
X8696724Y-14444003D01*
X8696724Y-14444003D02*
X8706248Y-14482098D01*
X8706248Y-14482098D02*
X8706248Y-14529717D01*
X8706248Y-14529717D02*
X8696724Y-14567812D01*
X8696724Y-14567812D02*
X8687201Y-14586860D01*
X8687201Y-14586860D02*
X8677677Y-14596384D01*
X8677677Y-14596384D02*
X8658629Y-14605907D01*
X8658629Y-14605907D02*
X8639581Y-14605907D01*
X8639581Y-14605907D02*
X8620534Y-14596384D01*
X8620534Y-14596384D02*
X8611010Y-14586860D01*
X8611010Y-14586860D02*
X8601486Y-14567812D01*
X8601486Y-14567812D02*
X8591962Y-14529717D01*
X8591962Y-14529717D02*
X8591962Y-14482098D01*
X8591962Y-14482098D02*
X8601486Y-14444003D01*
X8601486Y-14444003D02*
X8611010Y-14424955D01*
X8611010Y-14424955D02*
X8620534Y-14415431D01*
X8620534Y-14415431D02*
X8639581Y-14405907D01*
X8830058Y-14405907D02*
X8849105Y-14405907D01*
X8849105Y-14405907D02*
X8868153Y-14415431D01*
X8868153Y-14415431D02*
X8877677Y-14424955D01*
X8877677Y-14424955D02*
X8887201Y-14444003D01*
X8887201Y-14444003D02*
X8896724Y-14482098D01*
X8896724Y-14482098D02*
X8896724Y-14529717D01*
X8896724Y-14529717D02*
X8887201Y-14567812D01*
X8887201Y-14567812D02*
X8877677Y-14586860D01*
X8877677Y-14586860D02*
X8868153Y-14596384D01*
X8868153Y-14596384D02*
X8849105Y-14605907D01*
X8849105Y-14605907D02*
X8830058Y-14605907D01*
X8830058Y-14605907D02*
X8811010Y-14596384D01*
X8811010Y-14596384D02*
X8801486Y-14586860D01*
X8801486Y-14586860D02*
X8791962Y-14567812D01*
X8791962Y-14567812D02*
X8782439Y-14529717D01*
X8782439Y-14529717D02*
X8782439Y-14482098D01*
X8782439Y-14482098D02*
X8791962Y-14444003D01*
X8791962Y-14444003D02*
X8801486Y-14424955D01*
X8801486Y-14424955D02*
X8811010Y-14415431D01*
X8811010Y-14415431D02*
X8830058Y-14405907D01*
X9020534Y-14405907D02*
X9039582Y-14405907D01*
X9039582Y-14405907D02*
X9058629Y-14415431D01*
X9058629Y-14415431D02*
X9068153Y-14424955D01*
X9068153Y-14424955D02*
X9077677Y-14444003D01*
X9077677Y-14444003D02*
X9087201Y-14482098D01*
X9087201Y-14482098D02*
X9087201Y-14529717D01*
X9087201Y-14529717D02*
X9077677Y-14567812D01*
X9077677Y-14567812D02*
X9068153Y-14586860D01*
X9068153Y-14586860D02*
X9058629Y-14596384D01*
X9058629Y-14596384D02*
X9039582Y-14605907D01*
X9039582Y-14605907D02*
X9020534Y-14605907D01*
X9020534Y-14605907D02*
X9001486Y-14596384D01*
X9001486Y-14596384D02*
X8991962Y-14586860D01*
X8991962Y-14586860D02*
X8982439Y-14567812D01*
X8982439Y-14567812D02*
X8972915Y-14529717D01*
X8972915Y-14529717D02*
X8972915Y-14482098D01*
X8972915Y-14482098D02*
X8982439Y-14444003D01*
X8982439Y-14444003D02*
X8991962Y-14424955D01*
X8991962Y-14424955D02*
X9001486Y-14415431D01*
X9001486Y-14415431D02*
X9020534Y-14405907D01*
X9172915Y-14605907D02*
X9172915Y-14472574D01*
X9172915Y-14491622D02*
X9182439Y-14482098D01*
X9182439Y-14482098D02*
X9201486Y-14472574D01*
X9201486Y-14472574D02*
X9230058Y-14472574D01*
X9230058Y-14472574D02*
X9249105Y-14482098D01*
X9249105Y-14482098D02*
X9258629Y-14501145D01*
X9258629Y-14501145D02*
X9258629Y-14605907D01*
X9258629Y-14501145D02*
X9268153Y-14482098D01*
X9268153Y-14482098D02*
X9287201Y-14472574D01*
X9287201Y-14472574D02*
X9315772Y-14472574D01*
X9315772Y-14472574D02*
X9334820Y-14482098D01*
X9334820Y-14482098D02*
X9344343Y-14501145D01*
X9344343Y-14501145D02*
X9344343Y-14605907D01*
X9439582Y-14605907D02*
X9439582Y-14472574D01*
X9439582Y-14491622D02*
X9449105Y-14482098D01*
X9449105Y-14482098D02*
X9468153Y-14472574D01*
X9468153Y-14472574D02*
X9496724Y-14472574D01*
X9496724Y-14472574D02*
X9515772Y-14482098D01*
X9515772Y-14482098D02*
X9525296Y-14501145D01*
X9525296Y-14501145D02*
X9525296Y-14605907D01*
X9525296Y-14501145D02*
X9534820Y-14482098D01*
X9534820Y-14482098D02*
X9553867Y-14472574D01*
X9553867Y-14472574D02*
X9582439Y-14472574D01*
X9582439Y-14472574D02*
X9601486Y-14482098D01*
X9601486Y-14482098D02*
X9611010Y-14501145D01*
X9611010Y-14501145D02*
X9611010Y-14605907D01*
X10001486Y-14396384D02*
X9830058Y-14653526D01*
X10258629Y-14405907D02*
X10277677Y-14405907D01*
X10277677Y-14405907D02*
X10296725Y-14415431D01*
X10296725Y-14415431D02*
X10306248Y-14424955D01*
X10306248Y-14424955D02*
X10315772Y-14444003D01*
X10315772Y-14444003D02*
X10325296Y-14482098D01*
X10325296Y-14482098D02*
X10325296Y-14529717D01*
X10325296Y-14529717D02*
X10315772Y-14567812D01*
X10315772Y-14567812D02*
X10306248Y-14586860D01*
X10306248Y-14586860D02*
X10296725Y-14596384D01*
X10296725Y-14596384D02*
X10277677Y-14605907D01*
X10277677Y-14605907D02*
X10258629Y-14605907D01*
X10258629Y-14605907D02*
X10239582Y-14596384D01*
X10239582Y-14596384D02*
X10230058Y-14586860D01*
X10230058Y-14586860D02*
X10220534Y-14567812D01*
X10220534Y-14567812D02*
X10211010Y-14529717D01*
X10211010Y-14529717D02*
X10211010Y-14482098D01*
X10211010Y-14482098D02*
X10220534Y-14444003D01*
X10220534Y-14444003D02*
X10230058Y-14424955D01*
X10230058Y-14424955D02*
X10239582Y-14415431D01*
X10239582Y-14415431D02*
X10258629Y-14405907D01*
X10411010Y-14586860D02*
X10420534Y-14596384D01*
X10420534Y-14596384D02*
X10411010Y-14605907D01*
X10411010Y-14605907D02*
X10401486Y-14596384D01*
X10401486Y-14596384D02*
X10411010Y-14586860D01*
X10411010Y-14586860D02*
X10411010Y-14605907D01*
X10544344Y-14405907D02*
X10563391Y-14405907D01*
X10563391Y-14405907D02*
X10582439Y-14415431D01*
X10582439Y-14415431D02*
X10591963Y-14424955D01*
X10591963Y-14424955D02*
X10601486Y-14444003D01*
X10601486Y-14444003D02*
X10611010Y-14482098D01*
X10611010Y-14482098D02*
X10611010Y-14529717D01*
X10611010Y-14529717D02*
X10601486Y-14567812D01*
X10601486Y-14567812D02*
X10591963Y-14586860D01*
X10591963Y-14586860D02*
X10582439Y-14596384D01*
X10582439Y-14596384D02*
X10563391Y-14605907D01*
X10563391Y-14605907D02*
X10544344Y-14605907D01*
X10544344Y-14605907D02*
X10525296Y-14596384D01*
X10525296Y-14596384D02*
X10515772Y-14586860D01*
X10515772Y-14586860D02*
X10506248Y-14567812D01*
X10506248Y-14567812D02*
X10496725Y-14529717D01*
X10496725Y-14529717D02*
X10496725Y-14482098D01*
X10496725Y-14482098D02*
X10506248Y-14444003D01*
X10506248Y-14444003D02*
X10515772Y-14424955D01*
X10515772Y-14424955D02*
X10525296Y-14415431D01*
X10525296Y-14415431D02*
X10544344Y-14405907D01*
X10677677Y-14405907D02*
X10801486Y-14405907D01*
X10801486Y-14405907D02*
X10734820Y-14482098D01*
X10734820Y-14482098D02*
X10763391Y-14482098D01*
X10763391Y-14482098D02*
X10782439Y-14491622D01*
X10782439Y-14491622D02*
X10791963Y-14501145D01*
X10791963Y-14501145D02*
X10801486Y-14520193D01*
X10801486Y-14520193D02*
X10801486Y-14567812D01*
X10801486Y-14567812D02*
X10791963Y-14586860D01*
X10791963Y-14586860D02*
X10782439Y-14596384D01*
X10782439Y-14596384D02*
X10763391Y-14605907D01*
X10763391Y-14605907D02*
X10706248Y-14605907D01*
X10706248Y-14605907D02*
X10687201Y-14596384D01*
X10687201Y-14596384D02*
X10677677Y-14586860D01*
X10896725Y-14605907D02*
X10934820Y-14605907D01*
X10934820Y-14605907D02*
X10953867Y-14596384D01*
X10953867Y-14596384D02*
X10963391Y-14586860D01*
X10963391Y-14586860D02*
X10982439Y-14558288D01*
X10982439Y-14558288D02*
X10991963Y-14520193D01*
X10991963Y-14520193D02*
X10991963Y-14444003D01*
X10991963Y-14444003D02*
X10982439Y-14424955D01*
X10982439Y-14424955D02*
X10972915Y-14415431D01*
X10972915Y-14415431D02*
X10953867Y-14405907D01*
X10953867Y-14405907D02*
X10915772Y-14405907D01*
X10915772Y-14405907D02*
X10896725Y-14415431D01*
X10896725Y-14415431D02*
X10887201Y-14424955D01*
X10887201Y-14424955D02*
X10877677Y-14444003D01*
X10877677Y-14444003D02*
X10877677Y-14491622D01*
X10877677Y-14491622D02*
X10887201Y-14510669D01*
X10887201Y-14510669D02*
X10896725Y-14520193D01*
X10896725Y-14520193D02*
X10915772Y-14529717D01*
X10915772Y-14529717D02*
X10953867Y-14529717D01*
X10953867Y-14529717D02*
X10972915Y-14520193D01*
X10972915Y-14520193D02*
X10982439Y-14510669D01*
X10982439Y-14510669D02*
X10991963Y-14491622D01*
X11163391Y-14472574D02*
X11163391Y-14605907D01*
X11115772Y-14396384D02*
X11068153Y-14539241D01*
X11068153Y-14539241D02*
X11191963Y-14539241D01*
X11258629Y-14405907D02*
X11258629Y-14444003D01*
X11334820Y-14405907D02*
X11334820Y-14444003D01*
X11630058Y-14682098D02*
X11620534Y-14672574D01*
X11620534Y-14672574D02*
X11601486Y-14644003D01*
X11601486Y-14644003D02*
X11591963Y-14624955D01*
X11591963Y-14624955D02*
X11582439Y-14596384D01*
X11582439Y-14596384D02*
X11572915Y-14548764D01*
X11572915Y-14548764D02*
X11572915Y-14510669D01*
X11572915Y-14510669D02*
X11582439Y-14463050D01*
X11582439Y-14463050D02*
X11591963Y-14434479D01*
X11591963Y-14434479D02*
X11601486Y-14415431D01*
X11601486Y-14415431D02*
X11620534Y-14386860D01*
X11620534Y-14386860D02*
X11630058Y-14377336D01*
X11801486Y-14405907D02*
X11706248Y-14405907D01*
X11706248Y-14405907D02*
X11696725Y-14501145D01*
X11696725Y-14501145D02*
X11706248Y-14491622D01*
X11706248Y-14491622D02*
X11725296Y-14482098D01*
X11725296Y-14482098D02*
X11772915Y-14482098D01*
X11772915Y-14482098D02*
X11791963Y-14491622D01*
X11791963Y-14491622D02*
X11801486Y-14501145D01*
X11801486Y-14501145D02*
X11811010Y-14520193D01*
X11811010Y-14520193D02*
X11811010Y-14567812D01*
X11811010Y-14567812D02*
X11801486Y-14586860D01*
X11801486Y-14586860D02*
X11791963Y-14596384D01*
X11791963Y-14596384D02*
X11772915Y-14605907D01*
X11772915Y-14605907D02*
X11725296Y-14605907D01*
X11725296Y-14605907D02*
X11706248Y-14596384D01*
X11706248Y-14596384D02*
X11696725Y-14586860D01*
X11906248Y-14605907D02*
X11944344Y-14605907D01*
X11944344Y-14605907D02*
X11963391Y-14596384D01*
X11963391Y-14596384D02*
X11972915Y-14586860D01*
X11972915Y-14586860D02*
X11991963Y-14558288D01*
X11991963Y-14558288D02*
X12001486Y-14520193D01*
X12001486Y-14520193D02*
X12001486Y-14444003D01*
X12001486Y-14444003D02*
X11991963Y-14424955D01*
X11991963Y-14424955D02*
X11982439Y-14415431D01*
X11982439Y-14415431D02*
X11963391Y-14405907D01*
X11963391Y-14405907D02*
X11925296Y-14405907D01*
X11925296Y-14405907D02*
X11906248Y-14415431D01*
X11906248Y-14415431D02*
X11896725Y-14424955D01*
X11896725Y-14424955D02*
X11887201Y-14444003D01*
X11887201Y-14444003D02*
X11887201Y-14491622D01*
X11887201Y-14491622D02*
X11896725Y-14510669D01*
X11896725Y-14510669D02*
X11906248Y-14520193D01*
X11906248Y-14520193D02*
X11925296Y-14529717D01*
X11925296Y-14529717D02*
X11963391Y-14529717D01*
X11963391Y-14529717D02*
X11982439Y-14520193D01*
X11982439Y-14520193D02*
X11991963Y-14510669D01*
X11991963Y-14510669D02*
X12001486Y-14491622D01*
X12239582Y-14605907D02*
X12239582Y-14405907D01*
X12325296Y-14605907D02*
X12325296Y-14501145D01*
X12325296Y-14501145D02*
X12315772Y-14482098D01*
X12315772Y-14482098D02*
X12296725Y-14472574D01*
X12296725Y-14472574D02*
X12268153Y-14472574D01*
X12268153Y-14472574D02*
X12249106Y-14482098D01*
X12249106Y-14482098D02*
X12239582Y-14491622D01*
X12449106Y-14605907D02*
X12430058Y-14596384D01*
X12430058Y-14596384D02*
X12420534Y-14586860D01*
X12420534Y-14586860D02*
X12411010Y-14567812D01*
X12411010Y-14567812D02*
X12411010Y-14510669D01*
X12411010Y-14510669D02*
X12420534Y-14491622D01*
X12420534Y-14491622D02*
X12430058Y-14482098D01*
X12430058Y-14482098D02*
X12449106Y-14472574D01*
X12449106Y-14472574D02*
X12477677Y-14472574D01*
X12477677Y-14472574D02*
X12496725Y-14482098D01*
X12496725Y-14482098D02*
X12506248Y-14491622D01*
X12506248Y-14491622D02*
X12515772Y-14510669D01*
X12515772Y-14510669D02*
X12515772Y-14567812D01*
X12515772Y-14567812D02*
X12506248Y-14586860D01*
X12506248Y-14586860D02*
X12496725Y-14596384D01*
X12496725Y-14596384D02*
X12477677Y-14605907D01*
X12477677Y-14605907D02*
X12449106Y-14605907D01*
X12630058Y-14605907D02*
X12611010Y-14596384D01*
X12611010Y-14596384D02*
X12601487Y-14577336D01*
X12601487Y-14577336D02*
X12601487Y-14405907D01*
X12782439Y-14596384D02*
X12763391Y-14605907D01*
X12763391Y-14605907D02*
X12725296Y-14605907D01*
X12725296Y-14605907D02*
X12706248Y-14596384D01*
X12706248Y-14596384D02*
X12696725Y-14577336D01*
X12696725Y-14577336D02*
X12696725Y-14501145D01*
X12696725Y-14501145D02*
X12706248Y-14482098D01*
X12706248Y-14482098D02*
X12725296Y-14472574D01*
X12725296Y-14472574D02*
X12763391Y-14472574D01*
X12763391Y-14472574D02*
X12782439Y-14482098D01*
X12782439Y-14482098D02*
X12791963Y-14501145D01*
X12791963Y-14501145D02*
X12791963Y-14520193D01*
X12791963Y-14520193D02*
X12696725Y-14539241D01*
X12868153Y-14596384D02*
X12887201Y-14605907D01*
X12887201Y-14605907D02*
X12925296Y-14605907D01*
X12925296Y-14605907D02*
X12944344Y-14596384D01*
X12944344Y-14596384D02*
X12953868Y-14577336D01*
X12953868Y-14577336D02*
X12953868Y-14567812D01*
X12953868Y-14567812D02*
X12944344Y-14548764D01*
X12944344Y-14548764D02*
X12925296Y-14539241D01*
X12925296Y-14539241D02*
X12896725Y-14539241D01*
X12896725Y-14539241D02*
X12877677Y-14529717D01*
X12877677Y-14529717D02*
X12868153Y-14510669D01*
X12868153Y-14510669D02*
X12868153Y-14501145D01*
X12868153Y-14501145D02*
X12877677Y-14482098D01*
X12877677Y-14482098D02*
X12896725Y-14472574D01*
X12896725Y-14472574D02*
X12925296Y-14472574D01*
X12925296Y-14472574D02*
X12944344Y-14482098D01*
X13020534Y-14682098D02*
X13030058Y-14672574D01*
X13030058Y-14672574D02*
X13049106Y-14644003D01*
X13049106Y-14644003D02*
X13058629Y-14624955D01*
X13058629Y-14624955D02*
X13068153Y-14596384D01*
X13068153Y-14596384D02*
X13077677Y-14548764D01*
X13077677Y-14548764D02*
X13077677Y-14510669D01*
X13077677Y-14510669D02*
X13068153Y-14463050D01*
X13068153Y-14463050D02*
X13058629Y-14434479D01*
X13058629Y-14434479D02*
X13049106Y-14415431D01*
X13049106Y-14415431D02*
X13030058Y-14386860D01*
X13030058Y-14386860D02*
X13020534Y-14377336D01*
D12*
X8035957Y-14824386D02*
X8035957Y-14732461D01*
X7944033Y-14732461D01*
X7944033Y-14824386D01*
X8035957Y-14824386D01*
D11*
X8420534Y-14869907D02*
X8306248Y-14869907D01*
X8363391Y-14869907D02*
X8363391Y-14669907D01*
X8363391Y-14669907D02*
X8344343Y-14698479D01*
X8344343Y-14698479D02*
X8325296Y-14717526D01*
X8325296Y-14717526D02*
X8306248Y-14727050D01*
X8506248Y-14850860D02*
X8515772Y-14860384D01*
X8515772Y-14860384D02*
X8506248Y-14869907D01*
X8506248Y-14869907D02*
X8496724Y-14860384D01*
X8496724Y-14860384D02*
X8506248Y-14850860D01*
X8506248Y-14850860D02*
X8506248Y-14869907D01*
X8582439Y-14669907D02*
X8706248Y-14669907D01*
X8706248Y-14669907D02*
X8639581Y-14746098D01*
X8639581Y-14746098D02*
X8668153Y-14746098D01*
X8668153Y-14746098D02*
X8687201Y-14755622D01*
X8687201Y-14755622D02*
X8696724Y-14765145D01*
X8696724Y-14765145D02*
X8706248Y-14784193D01*
X8706248Y-14784193D02*
X8706248Y-14831812D01*
X8706248Y-14831812D02*
X8696724Y-14850860D01*
X8696724Y-14850860D02*
X8687201Y-14860384D01*
X8687201Y-14860384D02*
X8668153Y-14869907D01*
X8668153Y-14869907D02*
X8611010Y-14869907D01*
X8611010Y-14869907D02*
X8591962Y-14860384D01*
X8591962Y-14860384D02*
X8582439Y-14850860D01*
X8830058Y-14669907D02*
X8849105Y-14669907D01*
X8849105Y-14669907D02*
X8868153Y-14679431D01*
X8868153Y-14679431D02*
X8877677Y-14688955D01*
X8877677Y-14688955D02*
X8887201Y-14708003D01*
X8887201Y-14708003D02*
X8896724Y-14746098D01*
X8896724Y-14746098D02*
X8896724Y-14793717D01*
X8896724Y-14793717D02*
X8887201Y-14831812D01*
X8887201Y-14831812D02*
X8877677Y-14850860D01*
X8877677Y-14850860D02*
X8868153Y-14860384D01*
X8868153Y-14860384D02*
X8849105Y-14869907D01*
X8849105Y-14869907D02*
X8830058Y-14869907D01*
X8830058Y-14869907D02*
X8811010Y-14860384D01*
X8811010Y-14860384D02*
X8801486Y-14850860D01*
X8801486Y-14850860D02*
X8791962Y-14831812D01*
X8791962Y-14831812D02*
X8782439Y-14793717D01*
X8782439Y-14793717D02*
X8782439Y-14746098D01*
X8782439Y-14746098D02*
X8791962Y-14708003D01*
X8791962Y-14708003D02*
X8801486Y-14688955D01*
X8801486Y-14688955D02*
X8811010Y-14679431D01*
X8811010Y-14679431D02*
X8830058Y-14669907D01*
X9020534Y-14669907D02*
X9039582Y-14669907D01*
X9039582Y-14669907D02*
X9058629Y-14679431D01*
X9058629Y-14679431D02*
X9068153Y-14688955D01*
X9068153Y-14688955D02*
X9077677Y-14708003D01*
X9077677Y-14708003D02*
X9087201Y-14746098D01*
X9087201Y-14746098D02*
X9087201Y-14793717D01*
X9087201Y-14793717D02*
X9077677Y-14831812D01*
X9077677Y-14831812D02*
X9068153Y-14850860D01*
X9068153Y-14850860D02*
X9058629Y-14860384D01*
X9058629Y-14860384D02*
X9039582Y-14869907D01*
X9039582Y-14869907D02*
X9020534Y-14869907D01*
X9020534Y-14869907D02*
X9001486Y-14860384D01*
X9001486Y-14860384D02*
X8991962Y-14850860D01*
X8991962Y-14850860D02*
X8982439Y-14831812D01*
X8982439Y-14831812D02*
X8972915Y-14793717D01*
X8972915Y-14793717D02*
X8972915Y-14746098D01*
X8972915Y-14746098D02*
X8982439Y-14708003D01*
X8982439Y-14708003D02*
X8991962Y-14688955D01*
X8991962Y-14688955D02*
X9001486Y-14679431D01*
X9001486Y-14679431D02*
X9020534Y-14669907D01*
X9172915Y-14869907D02*
X9172915Y-14736574D01*
X9172915Y-14755622D02*
X9182439Y-14746098D01*
X9182439Y-14746098D02*
X9201486Y-14736574D01*
X9201486Y-14736574D02*
X9230058Y-14736574D01*
X9230058Y-14736574D02*
X9249105Y-14746098D01*
X9249105Y-14746098D02*
X9258629Y-14765145D01*
X9258629Y-14765145D02*
X9258629Y-14869907D01*
X9258629Y-14765145D02*
X9268153Y-14746098D01*
X9268153Y-14746098D02*
X9287201Y-14736574D01*
X9287201Y-14736574D02*
X9315772Y-14736574D01*
X9315772Y-14736574D02*
X9334820Y-14746098D01*
X9334820Y-14746098D02*
X9344343Y-14765145D01*
X9344343Y-14765145D02*
X9344343Y-14869907D01*
X9439582Y-14869907D02*
X9439582Y-14736574D01*
X9439582Y-14755622D02*
X9449105Y-14746098D01*
X9449105Y-14746098D02*
X9468153Y-14736574D01*
X9468153Y-14736574D02*
X9496724Y-14736574D01*
X9496724Y-14736574D02*
X9515772Y-14746098D01*
X9515772Y-14746098D02*
X9525296Y-14765145D01*
X9525296Y-14765145D02*
X9525296Y-14869907D01*
X9525296Y-14765145D02*
X9534820Y-14746098D01*
X9534820Y-14746098D02*
X9553867Y-14736574D01*
X9553867Y-14736574D02*
X9582439Y-14736574D01*
X9582439Y-14736574D02*
X9601486Y-14746098D01*
X9601486Y-14746098D02*
X9611010Y-14765145D01*
X9611010Y-14765145D02*
X9611010Y-14869907D01*
X10001486Y-14660384D02*
X9830058Y-14917526D01*
X10258629Y-14669907D02*
X10277677Y-14669907D01*
X10277677Y-14669907D02*
X10296725Y-14679431D01*
X10296725Y-14679431D02*
X10306248Y-14688955D01*
X10306248Y-14688955D02*
X10315772Y-14708003D01*
X10315772Y-14708003D02*
X10325296Y-14746098D01*
X10325296Y-14746098D02*
X10325296Y-14793717D01*
X10325296Y-14793717D02*
X10315772Y-14831812D01*
X10315772Y-14831812D02*
X10306248Y-14850860D01*
X10306248Y-14850860D02*
X10296725Y-14860384D01*
X10296725Y-14860384D02*
X10277677Y-14869907D01*
X10277677Y-14869907D02*
X10258629Y-14869907D01*
X10258629Y-14869907D02*
X10239582Y-14860384D01*
X10239582Y-14860384D02*
X10230058Y-14850860D01*
X10230058Y-14850860D02*
X10220534Y-14831812D01*
X10220534Y-14831812D02*
X10211010Y-14793717D01*
X10211010Y-14793717D02*
X10211010Y-14746098D01*
X10211010Y-14746098D02*
X10220534Y-14708003D01*
X10220534Y-14708003D02*
X10230058Y-14688955D01*
X10230058Y-14688955D02*
X10239582Y-14679431D01*
X10239582Y-14679431D02*
X10258629Y-14669907D01*
X10411010Y-14850860D02*
X10420534Y-14860384D01*
X10420534Y-14860384D02*
X10411010Y-14869907D01*
X10411010Y-14869907D02*
X10401486Y-14860384D01*
X10401486Y-14860384D02*
X10411010Y-14850860D01*
X10411010Y-14850860D02*
X10411010Y-14869907D01*
X10544344Y-14669907D02*
X10563391Y-14669907D01*
X10563391Y-14669907D02*
X10582439Y-14679431D01*
X10582439Y-14679431D02*
X10591963Y-14688955D01*
X10591963Y-14688955D02*
X10601486Y-14708003D01*
X10601486Y-14708003D02*
X10611010Y-14746098D01*
X10611010Y-14746098D02*
X10611010Y-14793717D01*
X10611010Y-14793717D02*
X10601486Y-14831812D01*
X10601486Y-14831812D02*
X10591963Y-14850860D01*
X10591963Y-14850860D02*
X10582439Y-14860384D01*
X10582439Y-14860384D02*
X10563391Y-14869907D01*
X10563391Y-14869907D02*
X10544344Y-14869907D01*
X10544344Y-14869907D02*
X10525296Y-14860384D01*
X10525296Y-14860384D02*
X10515772Y-14850860D01*
X10515772Y-14850860D02*
X10506248Y-14831812D01*
X10506248Y-14831812D02*
X10496725Y-14793717D01*
X10496725Y-14793717D02*
X10496725Y-14746098D01*
X10496725Y-14746098D02*
X10506248Y-14708003D01*
X10506248Y-14708003D02*
X10515772Y-14688955D01*
X10515772Y-14688955D02*
X10525296Y-14679431D01*
X10525296Y-14679431D02*
X10544344Y-14669907D01*
X10791963Y-14669907D02*
X10696725Y-14669907D01*
X10696725Y-14669907D02*
X10687201Y-14765145D01*
X10687201Y-14765145D02*
X10696725Y-14755622D01*
X10696725Y-14755622D02*
X10715772Y-14746098D01*
X10715772Y-14746098D02*
X10763391Y-14746098D01*
X10763391Y-14746098D02*
X10782439Y-14755622D01*
X10782439Y-14755622D02*
X10791963Y-14765145D01*
X10791963Y-14765145D02*
X10801486Y-14784193D01*
X10801486Y-14784193D02*
X10801486Y-14831812D01*
X10801486Y-14831812D02*
X10791963Y-14850860D01*
X10791963Y-14850860D02*
X10782439Y-14860384D01*
X10782439Y-14860384D02*
X10763391Y-14869907D01*
X10763391Y-14869907D02*
X10715772Y-14869907D01*
X10715772Y-14869907D02*
X10696725Y-14860384D01*
X10696725Y-14860384D02*
X10687201Y-14850860D01*
X10991963Y-14869907D02*
X10877677Y-14869907D01*
X10934820Y-14869907D02*
X10934820Y-14669907D01*
X10934820Y-14669907D02*
X10915772Y-14698479D01*
X10915772Y-14698479D02*
X10896725Y-14717526D01*
X10896725Y-14717526D02*
X10877677Y-14727050D01*
X11068153Y-14688955D02*
X11077677Y-14679431D01*
X11077677Y-14679431D02*
X11096725Y-14669907D01*
X11096725Y-14669907D02*
X11144344Y-14669907D01*
X11144344Y-14669907D02*
X11163391Y-14679431D01*
X11163391Y-14679431D02*
X11172915Y-14688955D01*
X11172915Y-14688955D02*
X11182439Y-14708003D01*
X11182439Y-14708003D02*
X11182439Y-14727050D01*
X11182439Y-14727050D02*
X11172915Y-14755622D01*
X11172915Y-14755622D02*
X11058629Y-14869907D01*
X11058629Y-14869907D02*
X11182439Y-14869907D01*
X11258629Y-14669907D02*
X11258629Y-14708003D01*
X11334820Y-14669907D02*
X11334820Y-14708003D01*
X11630058Y-14946098D02*
X11620534Y-14936574D01*
X11620534Y-14936574D02*
X11601486Y-14908003D01*
X11601486Y-14908003D02*
X11591963Y-14888955D01*
X11591963Y-14888955D02*
X11582439Y-14860384D01*
X11582439Y-14860384D02*
X11572915Y-14812764D01*
X11572915Y-14812764D02*
X11572915Y-14774669D01*
X11572915Y-14774669D02*
X11582439Y-14727050D01*
X11582439Y-14727050D02*
X11591963Y-14698479D01*
X11591963Y-14698479D02*
X11601486Y-14679431D01*
X11601486Y-14679431D02*
X11620534Y-14650860D01*
X11620534Y-14650860D02*
X11630058Y-14641336D01*
X11791963Y-14736574D02*
X11791963Y-14869907D01*
X11744344Y-14660384D02*
X11696725Y-14803241D01*
X11696725Y-14803241D02*
X11820534Y-14803241D01*
X12049106Y-14869907D02*
X12049106Y-14669907D01*
X12134820Y-14869907D02*
X12134820Y-14765145D01*
X12134820Y-14765145D02*
X12125296Y-14746098D01*
X12125296Y-14746098D02*
X12106248Y-14736574D01*
X12106248Y-14736574D02*
X12077677Y-14736574D01*
X12077677Y-14736574D02*
X12058629Y-14746098D01*
X12058629Y-14746098D02*
X12049106Y-14755622D01*
X12258629Y-14869907D02*
X12239582Y-14860384D01*
X12239582Y-14860384D02*
X12230058Y-14850860D01*
X12230058Y-14850860D02*
X12220534Y-14831812D01*
X12220534Y-14831812D02*
X12220534Y-14774669D01*
X12220534Y-14774669D02*
X12230058Y-14755622D01*
X12230058Y-14755622D02*
X12239582Y-14746098D01*
X12239582Y-14746098D02*
X12258629Y-14736574D01*
X12258629Y-14736574D02*
X12287201Y-14736574D01*
X12287201Y-14736574D02*
X12306248Y-14746098D01*
X12306248Y-14746098D02*
X12315772Y-14755622D01*
X12315772Y-14755622D02*
X12325296Y-14774669D01*
X12325296Y-14774669D02*
X12325296Y-14831812D01*
X12325296Y-14831812D02*
X12315772Y-14850860D01*
X12315772Y-14850860D02*
X12306248Y-14860384D01*
X12306248Y-14860384D02*
X12287201Y-14869907D01*
X12287201Y-14869907D02*
X12258629Y-14869907D01*
X12439582Y-14869907D02*
X12420534Y-14860384D01*
X12420534Y-14860384D02*
X12411010Y-14841336D01*
X12411010Y-14841336D02*
X12411010Y-14669907D01*
X12591963Y-14860384D02*
X12572915Y-14869907D01*
X12572915Y-14869907D02*
X12534820Y-14869907D01*
X12534820Y-14869907D02*
X12515772Y-14860384D01*
X12515772Y-14860384D02*
X12506248Y-14841336D01*
X12506248Y-14841336D02*
X12506248Y-14765145D01*
X12506248Y-14765145D02*
X12515772Y-14746098D01*
X12515772Y-14746098D02*
X12534820Y-14736574D01*
X12534820Y-14736574D02*
X12572915Y-14736574D01*
X12572915Y-14736574D02*
X12591963Y-14746098D01*
X12591963Y-14746098D02*
X12601487Y-14765145D01*
X12601487Y-14765145D02*
X12601487Y-14784193D01*
X12601487Y-14784193D02*
X12506248Y-14803241D01*
X12677677Y-14860384D02*
X12696725Y-14869907D01*
X12696725Y-14869907D02*
X12734820Y-14869907D01*
X12734820Y-14869907D02*
X12753868Y-14860384D01*
X12753868Y-14860384D02*
X12763391Y-14841336D01*
X12763391Y-14841336D02*
X12763391Y-14831812D01*
X12763391Y-14831812D02*
X12753868Y-14812764D01*
X12753868Y-14812764D02*
X12734820Y-14803241D01*
X12734820Y-14803241D02*
X12706248Y-14803241D01*
X12706248Y-14803241D02*
X12687201Y-14793717D01*
X12687201Y-14793717D02*
X12677677Y-14774669D01*
X12677677Y-14774669D02*
X12677677Y-14765145D01*
X12677677Y-14765145D02*
X12687201Y-14746098D01*
X12687201Y-14746098D02*
X12706248Y-14736574D01*
X12706248Y-14736574D02*
X12734820Y-14736574D01*
X12734820Y-14736574D02*
X12753868Y-14746098D01*
X12830058Y-14946098D02*
X12839582Y-14936574D01*
X12839582Y-14936574D02*
X12858629Y-14908003D01*
X12858629Y-14908003D02*
X12868153Y-14888955D01*
X12868153Y-14888955D02*
X12877677Y-14860384D01*
X12877677Y-14860384D02*
X12887201Y-14812764D01*
X12887201Y-14812764D02*
X12887201Y-14774669D01*
X12887201Y-14774669D02*
X12877677Y-14727050D01*
X12877677Y-14727050D02*
X12868153Y-14698479D01*
X12868153Y-14698479D02*
X12858629Y-14679431D01*
X12858629Y-14679431D02*
X12839582Y-14650860D01*
X12839582Y-14650860D02*
X12830058Y-14641336D01*
D13*
X7964995Y-15132424D02*
X8054995Y-15042424D01*
X7964995Y-14952424D01*
X7874995Y-15042424D01*
X7964995Y-15132424D01*
D11*
X8420534Y-15133907D02*
X8306248Y-15133907D01*
X8363391Y-15133907D02*
X8363391Y-14933907D01*
X8363391Y-14933907D02*
X8344343Y-14962479D01*
X8344343Y-14962479D02*
X8325296Y-14981526D01*
X8325296Y-14981526D02*
X8306248Y-14991050D01*
X8506248Y-15114860D02*
X8515772Y-15124384D01*
X8515772Y-15124384D02*
X8506248Y-15133907D01*
X8506248Y-15133907D02*
X8496724Y-15124384D01*
X8496724Y-15124384D02*
X8506248Y-15114860D01*
X8506248Y-15114860D02*
X8506248Y-15133907D01*
X8630058Y-15019622D02*
X8611010Y-15010098D01*
X8611010Y-15010098D02*
X8601486Y-15000574D01*
X8601486Y-15000574D02*
X8591962Y-14981526D01*
X8591962Y-14981526D02*
X8591962Y-14972003D01*
X8591962Y-14972003D02*
X8601486Y-14952955D01*
X8601486Y-14952955D02*
X8611010Y-14943431D01*
X8611010Y-14943431D02*
X8630058Y-14933907D01*
X8630058Y-14933907D02*
X8668153Y-14933907D01*
X8668153Y-14933907D02*
X8687201Y-14943431D01*
X8687201Y-14943431D02*
X8696724Y-14952955D01*
X8696724Y-14952955D02*
X8706248Y-14972003D01*
X8706248Y-14972003D02*
X8706248Y-14981526D01*
X8706248Y-14981526D02*
X8696724Y-15000574D01*
X8696724Y-15000574D02*
X8687201Y-15010098D01*
X8687201Y-15010098D02*
X8668153Y-15019622D01*
X8668153Y-15019622D02*
X8630058Y-15019622D01*
X8630058Y-15019622D02*
X8611010Y-15029145D01*
X8611010Y-15029145D02*
X8601486Y-15038669D01*
X8601486Y-15038669D02*
X8591962Y-15057717D01*
X8591962Y-15057717D02*
X8591962Y-15095812D01*
X8591962Y-15095812D02*
X8601486Y-15114860D01*
X8601486Y-15114860D02*
X8611010Y-15124384D01*
X8611010Y-15124384D02*
X8630058Y-15133907D01*
X8630058Y-15133907D02*
X8668153Y-15133907D01*
X8668153Y-15133907D02*
X8687201Y-15124384D01*
X8687201Y-15124384D02*
X8696724Y-15114860D01*
X8696724Y-15114860D02*
X8706248Y-15095812D01*
X8706248Y-15095812D02*
X8706248Y-15057717D01*
X8706248Y-15057717D02*
X8696724Y-15038669D01*
X8696724Y-15038669D02*
X8687201Y-15029145D01*
X8687201Y-15029145D02*
X8668153Y-15019622D01*
X8830058Y-14933907D02*
X8849105Y-14933907D01*
X8849105Y-14933907D02*
X8868153Y-14943431D01*
X8868153Y-14943431D02*
X8877677Y-14952955D01*
X8877677Y-14952955D02*
X8887201Y-14972003D01*
X8887201Y-14972003D02*
X8896724Y-15010098D01*
X8896724Y-15010098D02*
X8896724Y-15057717D01*
X8896724Y-15057717D02*
X8887201Y-15095812D01*
X8887201Y-15095812D02*
X8877677Y-15114860D01*
X8877677Y-15114860D02*
X8868153Y-15124384D01*
X8868153Y-15124384D02*
X8849105Y-15133907D01*
X8849105Y-15133907D02*
X8830058Y-15133907D01*
X8830058Y-15133907D02*
X8811010Y-15124384D01*
X8811010Y-15124384D02*
X8801486Y-15114860D01*
X8801486Y-15114860D02*
X8791962Y-15095812D01*
X8791962Y-15095812D02*
X8782439Y-15057717D01*
X8782439Y-15057717D02*
X8782439Y-15010098D01*
X8782439Y-15010098D02*
X8791962Y-14972003D01*
X8791962Y-14972003D02*
X8801486Y-14952955D01*
X8801486Y-14952955D02*
X8811010Y-14943431D01*
X8811010Y-14943431D02*
X8830058Y-14933907D01*
X9020534Y-14933907D02*
X9039582Y-14933907D01*
X9039582Y-14933907D02*
X9058629Y-14943431D01*
X9058629Y-14943431D02*
X9068153Y-14952955D01*
X9068153Y-14952955D02*
X9077677Y-14972003D01*
X9077677Y-14972003D02*
X9087201Y-15010098D01*
X9087201Y-15010098D02*
X9087201Y-15057717D01*
X9087201Y-15057717D02*
X9077677Y-15095812D01*
X9077677Y-15095812D02*
X9068153Y-15114860D01*
X9068153Y-15114860D02*
X9058629Y-15124384D01*
X9058629Y-15124384D02*
X9039582Y-15133907D01*
X9039582Y-15133907D02*
X9020534Y-15133907D01*
X9020534Y-15133907D02*
X9001486Y-15124384D01*
X9001486Y-15124384D02*
X8991962Y-15114860D01*
X8991962Y-15114860D02*
X8982439Y-15095812D01*
X8982439Y-15095812D02*
X8972915Y-15057717D01*
X8972915Y-15057717D02*
X8972915Y-15010098D01*
X8972915Y-15010098D02*
X8982439Y-14972003D01*
X8982439Y-14972003D02*
X8991962Y-14952955D01*
X8991962Y-14952955D02*
X9001486Y-14943431D01*
X9001486Y-14943431D02*
X9020534Y-14933907D01*
X9172915Y-15133907D02*
X9172915Y-15000574D01*
X9172915Y-15019622D02*
X9182439Y-15010098D01*
X9182439Y-15010098D02*
X9201486Y-15000574D01*
X9201486Y-15000574D02*
X9230058Y-15000574D01*
X9230058Y-15000574D02*
X9249105Y-15010098D01*
X9249105Y-15010098D02*
X9258629Y-15029145D01*
X9258629Y-15029145D02*
X9258629Y-15133907D01*
X9258629Y-15029145D02*
X9268153Y-15010098D01*
X9268153Y-15010098D02*
X9287201Y-15000574D01*
X9287201Y-15000574D02*
X9315772Y-15000574D01*
X9315772Y-15000574D02*
X9334820Y-15010098D01*
X9334820Y-15010098D02*
X9344343Y-15029145D01*
X9344343Y-15029145D02*
X9344343Y-15133907D01*
X9439582Y-15133907D02*
X9439582Y-15000574D01*
X9439582Y-15019622D02*
X9449105Y-15010098D01*
X9449105Y-15010098D02*
X9468153Y-15000574D01*
X9468153Y-15000574D02*
X9496724Y-15000574D01*
X9496724Y-15000574D02*
X9515772Y-15010098D01*
X9515772Y-15010098D02*
X9525296Y-15029145D01*
X9525296Y-15029145D02*
X9525296Y-15133907D01*
X9525296Y-15029145D02*
X9534820Y-15010098D01*
X9534820Y-15010098D02*
X9553867Y-15000574D01*
X9553867Y-15000574D02*
X9582439Y-15000574D01*
X9582439Y-15000574D02*
X9601486Y-15010098D01*
X9601486Y-15010098D02*
X9611010Y-15029145D01*
X9611010Y-15029145D02*
X9611010Y-15133907D01*
X10001486Y-14924384D02*
X9830058Y-15181526D01*
X10258629Y-14933907D02*
X10277677Y-14933907D01*
X10277677Y-14933907D02*
X10296725Y-14943431D01*
X10296725Y-14943431D02*
X10306248Y-14952955D01*
X10306248Y-14952955D02*
X10315772Y-14972003D01*
X10315772Y-14972003D02*
X10325296Y-15010098D01*
X10325296Y-15010098D02*
X10325296Y-15057717D01*
X10325296Y-15057717D02*
X10315772Y-15095812D01*
X10315772Y-15095812D02*
X10306248Y-15114860D01*
X10306248Y-15114860D02*
X10296725Y-15124384D01*
X10296725Y-15124384D02*
X10277677Y-15133907D01*
X10277677Y-15133907D02*
X10258629Y-15133907D01*
X10258629Y-15133907D02*
X10239582Y-15124384D01*
X10239582Y-15124384D02*
X10230058Y-15114860D01*
X10230058Y-15114860D02*
X10220534Y-15095812D01*
X10220534Y-15095812D02*
X10211010Y-15057717D01*
X10211010Y-15057717D02*
X10211010Y-15010098D01*
X10211010Y-15010098D02*
X10220534Y-14972003D01*
X10220534Y-14972003D02*
X10230058Y-14952955D01*
X10230058Y-14952955D02*
X10239582Y-14943431D01*
X10239582Y-14943431D02*
X10258629Y-14933907D01*
X10411010Y-15114860D02*
X10420534Y-15124384D01*
X10420534Y-15124384D02*
X10411010Y-15133907D01*
X10411010Y-15133907D02*
X10401486Y-15124384D01*
X10401486Y-15124384D02*
X10411010Y-15114860D01*
X10411010Y-15114860D02*
X10411010Y-15133907D01*
X10544344Y-14933907D02*
X10563391Y-14933907D01*
X10563391Y-14933907D02*
X10582439Y-14943431D01*
X10582439Y-14943431D02*
X10591963Y-14952955D01*
X10591963Y-14952955D02*
X10601486Y-14972003D01*
X10601486Y-14972003D02*
X10611010Y-15010098D01*
X10611010Y-15010098D02*
X10611010Y-15057717D01*
X10611010Y-15057717D02*
X10601486Y-15095812D01*
X10601486Y-15095812D02*
X10591963Y-15114860D01*
X10591963Y-15114860D02*
X10582439Y-15124384D01*
X10582439Y-15124384D02*
X10563391Y-15133907D01*
X10563391Y-15133907D02*
X10544344Y-15133907D01*
X10544344Y-15133907D02*
X10525296Y-15124384D01*
X10525296Y-15124384D02*
X10515772Y-15114860D01*
X10515772Y-15114860D02*
X10506248Y-15095812D01*
X10506248Y-15095812D02*
X10496725Y-15057717D01*
X10496725Y-15057717D02*
X10496725Y-15010098D01*
X10496725Y-15010098D02*
X10506248Y-14972003D01*
X10506248Y-14972003D02*
X10515772Y-14952955D01*
X10515772Y-14952955D02*
X10525296Y-14943431D01*
X10525296Y-14943431D02*
X10544344Y-14933907D01*
X10677677Y-14933907D02*
X10811010Y-14933907D01*
X10811010Y-14933907D02*
X10725296Y-15133907D01*
X10925296Y-14933907D02*
X10944344Y-14933907D01*
X10944344Y-14933907D02*
X10963391Y-14943431D01*
X10963391Y-14943431D02*
X10972915Y-14952955D01*
X10972915Y-14952955D02*
X10982439Y-14972003D01*
X10982439Y-14972003D02*
X10991963Y-15010098D01*
X10991963Y-15010098D02*
X10991963Y-15057717D01*
X10991963Y-15057717D02*
X10982439Y-15095812D01*
X10982439Y-15095812D02*
X10972915Y-15114860D01*
X10972915Y-15114860D02*
X10963391Y-15124384D01*
X10963391Y-15124384D02*
X10944344Y-15133907D01*
X10944344Y-15133907D02*
X10925296Y-15133907D01*
X10925296Y-15133907D02*
X10906248Y-15124384D01*
X10906248Y-15124384D02*
X10896725Y-15114860D01*
X10896725Y-15114860D02*
X10887201Y-15095812D01*
X10887201Y-15095812D02*
X10877677Y-15057717D01*
X10877677Y-15057717D02*
X10877677Y-15010098D01*
X10877677Y-15010098D02*
X10887201Y-14972003D01*
X10887201Y-14972003D02*
X10896725Y-14952955D01*
X10896725Y-14952955D02*
X10906248Y-14943431D01*
X10906248Y-14943431D02*
X10925296Y-14933907D01*
X11087201Y-15133907D02*
X11125296Y-15133907D01*
X11125296Y-15133907D02*
X11144344Y-15124384D01*
X11144344Y-15124384D02*
X11153867Y-15114860D01*
X11153867Y-15114860D02*
X11172915Y-15086288D01*
X11172915Y-15086288D02*
X11182439Y-15048193D01*
X11182439Y-15048193D02*
X11182439Y-14972003D01*
X11182439Y-14972003D02*
X11172915Y-14952955D01*
X11172915Y-14952955D02*
X11163391Y-14943431D01*
X11163391Y-14943431D02*
X11144344Y-14933907D01*
X11144344Y-14933907D02*
X11106248Y-14933907D01*
X11106248Y-14933907D02*
X11087201Y-14943431D01*
X11087201Y-14943431D02*
X11077677Y-14952955D01*
X11077677Y-14952955D02*
X11068153Y-14972003D01*
X11068153Y-14972003D02*
X11068153Y-15019622D01*
X11068153Y-15019622D02*
X11077677Y-15038669D01*
X11077677Y-15038669D02*
X11087201Y-15048193D01*
X11087201Y-15048193D02*
X11106248Y-15057717D01*
X11106248Y-15057717D02*
X11144344Y-15057717D01*
X11144344Y-15057717D02*
X11163391Y-15048193D01*
X11163391Y-15048193D02*
X11172915Y-15038669D01*
X11172915Y-15038669D02*
X11182439Y-15019622D01*
X11258629Y-14933907D02*
X11258629Y-14972003D01*
X11334820Y-14933907D02*
X11334820Y-14972003D01*
X11630058Y-15210098D02*
X11620534Y-15200574D01*
X11620534Y-15200574D02*
X11601486Y-15172003D01*
X11601486Y-15172003D02*
X11591963Y-15152955D01*
X11591963Y-15152955D02*
X11582439Y-15124384D01*
X11582439Y-15124384D02*
X11572915Y-15076764D01*
X11572915Y-15076764D02*
X11572915Y-15038669D01*
X11572915Y-15038669D02*
X11582439Y-14991050D01*
X11582439Y-14991050D02*
X11591963Y-14962479D01*
X11591963Y-14962479D02*
X11601486Y-14943431D01*
X11601486Y-14943431D02*
X11620534Y-14914860D01*
X11620534Y-14914860D02*
X11630058Y-14905336D01*
X11744344Y-14933907D02*
X11763391Y-14933907D01*
X11763391Y-14933907D02*
X11782439Y-14943431D01*
X11782439Y-14943431D02*
X11791963Y-14952955D01*
X11791963Y-14952955D02*
X11801486Y-14972003D01*
X11801486Y-14972003D02*
X11811010Y-15010098D01*
X11811010Y-15010098D02*
X11811010Y-15057717D01*
X11811010Y-15057717D02*
X11801486Y-15095812D01*
X11801486Y-15095812D02*
X11791963Y-15114860D01*
X11791963Y-15114860D02*
X11782439Y-15124384D01*
X11782439Y-15124384D02*
X11763391Y-15133907D01*
X11763391Y-15133907D02*
X11744344Y-15133907D01*
X11744344Y-15133907D02*
X11725296Y-15124384D01*
X11725296Y-15124384D02*
X11715772Y-15114860D01*
X11715772Y-15114860D02*
X11706248Y-15095812D01*
X11706248Y-15095812D02*
X11696725Y-15057717D01*
X11696725Y-15057717D02*
X11696725Y-15010098D01*
X11696725Y-15010098D02*
X11706248Y-14972003D01*
X11706248Y-14972003D02*
X11715772Y-14952955D01*
X11715772Y-14952955D02*
X11725296Y-14943431D01*
X11725296Y-14943431D02*
X11744344Y-14933907D01*
X12049106Y-15133907D02*
X12049106Y-14933907D01*
X12134820Y-15133907D02*
X12134820Y-15029145D01*
X12134820Y-15029145D02*
X12125296Y-15010098D01*
X12125296Y-15010098D02*
X12106248Y-15000574D01*
X12106248Y-15000574D02*
X12077677Y-15000574D01*
X12077677Y-15000574D02*
X12058629Y-15010098D01*
X12058629Y-15010098D02*
X12049106Y-15019622D01*
X12258629Y-15133907D02*
X12239582Y-15124384D01*
X12239582Y-15124384D02*
X12230058Y-15114860D01*
X12230058Y-15114860D02*
X12220534Y-15095812D01*
X12220534Y-15095812D02*
X12220534Y-15038669D01*
X12220534Y-15038669D02*
X12230058Y-15019622D01*
X12230058Y-15019622D02*
X12239582Y-15010098D01*
X12239582Y-15010098D02*
X12258629Y-15000574D01*
X12258629Y-15000574D02*
X12287201Y-15000574D01*
X12287201Y-15000574D02*
X12306248Y-15010098D01*
X12306248Y-15010098D02*
X12315772Y-15019622D01*
X12315772Y-15019622D02*
X12325296Y-15038669D01*
X12325296Y-15038669D02*
X12325296Y-15095812D01*
X12325296Y-15095812D02*
X12315772Y-15114860D01*
X12315772Y-15114860D02*
X12306248Y-15124384D01*
X12306248Y-15124384D02*
X12287201Y-15133907D01*
X12287201Y-15133907D02*
X12258629Y-15133907D01*
X12439582Y-15133907D02*
X12420534Y-15124384D01*
X12420534Y-15124384D02*
X12411010Y-15105336D01*
X12411010Y-15105336D02*
X12411010Y-14933907D01*
X12591963Y-15124384D02*
X12572915Y-15133907D01*
X12572915Y-15133907D02*
X12534820Y-15133907D01*
X12534820Y-15133907D02*
X12515772Y-15124384D01*
X12515772Y-15124384D02*
X12506248Y-15105336D01*
X12506248Y-15105336D02*
X12506248Y-15029145D01*
X12506248Y-15029145D02*
X12515772Y-15010098D01*
X12515772Y-15010098D02*
X12534820Y-15000574D01*
X12534820Y-15000574D02*
X12572915Y-15000574D01*
X12572915Y-15000574D02*
X12591963Y-15010098D01*
X12591963Y-15010098D02*
X12601487Y-15029145D01*
X12601487Y-15029145D02*
X12601487Y-15048193D01*
X12601487Y-15048193D02*
X12506248Y-15067241D01*
X12677677Y-15124384D02*
X12696725Y-15133907D01*
X12696725Y-15133907D02*
X12734820Y-15133907D01*
X12734820Y-15133907D02*
X12753868Y-15124384D01*
X12753868Y-15124384D02*
X12763391Y-15105336D01*
X12763391Y-15105336D02*
X12763391Y-15095812D01*
X12763391Y-15095812D02*
X12753868Y-15076764D01*
X12753868Y-15076764D02*
X12734820Y-15067241D01*
X12734820Y-15067241D02*
X12706248Y-15067241D01*
X12706248Y-15067241D02*
X12687201Y-15057717D01*
X12687201Y-15057717D02*
X12677677Y-15038669D01*
X12677677Y-15038669D02*
X12677677Y-15029145D01*
X12677677Y-15029145D02*
X12687201Y-15010098D01*
X12687201Y-15010098D02*
X12706248Y-15000574D01*
X12706248Y-15000574D02*
X12734820Y-15000574D01*
X12734820Y-15000574D02*
X12753868Y-15010098D01*
X13001487Y-15057717D02*
X13153868Y-15057717D01*
X13077677Y-15133907D02*
X13077677Y-14981526D01*
X13391963Y-14952955D02*
X13401487Y-14943431D01*
X13401487Y-14943431D02*
X13420534Y-14933907D01*
X13420534Y-14933907D02*
X13468153Y-14933907D01*
X13468153Y-14933907D02*
X13487201Y-14943431D01*
X13487201Y-14943431D02*
X13496725Y-14952955D01*
X13496725Y-14952955D02*
X13506249Y-14972003D01*
X13506249Y-14972003D02*
X13506249Y-14991050D01*
X13506249Y-14991050D02*
X13496725Y-15019622D01*
X13496725Y-15019622D02*
X13382439Y-15133907D01*
X13382439Y-15133907D02*
X13506249Y-15133907D01*
X13734820Y-15124384D02*
X13753868Y-15133907D01*
X13753868Y-15133907D02*
X13791963Y-15133907D01*
X13791963Y-15133907D02*
X13811011Y-15124384D01*
X13811011Y-15124384D02*
X13820534Y-15105336D01*
X13820534Y-15105336D02*
X13820534Y-15095812D01*
X13820534Y-15095812D02*
X13811011Y-15076764D01*
X13811011Y-15076764D02*
X13791963Y-15067241D01*
X13791963Y-15067241D02*
X13763391Y-15067241D01*
X13763391Y-15067241D02*
X13744344Y-15057717D01*
X13744344Y-15057717D02*
X13734820Y-15038669D01*
X13734820Y-15038669D02*
X13734820Y-15029145D01*
X13734820Y-15029145D02*
X13744344Y-15010098D01*
X13744344Y-15010098D02*
X13763391Y-15000574D01*
X13763391Y-15000574D02*
X13791963Y-15000574D01*
X13791963Y-15000574D02*
X13811011Y-15010098D01*
X13934820Y-15133907D02*
X13915772Y-15124384D01*
X13915772Y-15124384D02*
X13906249Y-15105336D01*
X13906249Y-15105336D02*
X13906249Y-14933907D01*
X14039582Y-15133907D02*
X14020534Y-15124384D01*
X14020534Y-15124384D02*
X14011011Y-15114860D01*
X14011011Y-15114860D02*
X14001487Y-15095812D01*
X14001487Y-15095812D02*
X14001487Y-15038669D01*
X14001487Y-15038669D02*
X14011011Y-15019622D01*
X14011011Y-15019622D02*
X14020534Y-15010098D01*
X14020534Y-15010098D02*
X14039582Y-15000574D01*
X14039582Y-15000574D02*
X14068153Y-15000574D01*
X14068153Y-15000574D02*
X14087201Y-15010098D01*
X14087201Y-15010098D02*
X14096725Y-15019622D01*
X14096725Y-15019622D02*
X14106249Y-15038669D01*
X14106249Y-15038669D02*
X14106249Y-15095812D01*
X14106249Y-15095812D02*
X14096725Y-15114860D01*
X14096725Y-15114860D02*
X14087201Y-15124384D01*
X14087201Y-15124384D02*
X14068153Y-15133907D01*
X14068153Y-15133907D02*
X14039582Y-15133907D01*
X14163392Y-15000574D02*
X14239582Y-15000574D01*
X14191963Y-14933907D02*
X14191963Y-15105336D01*
X14191963Y-15105336D02*
X14201487Y-15124384D01*
X14201487Y-15124384D02*
X14220534Y-15133907D01*
X14220534Y-15133907D02*
X14239582Y-15133907D01*
X14296725Y-15124384D02*
X14315772Y-15133907D01*
X14315772Y-15133907D02*
X14353868Y-15133907D01*
X14353868Y-15133907D02*
X14372915Y-15124384D01*
X14372915Y-15124384D02*
X14382439Y-15105336D01*
X14382439Y-15105336D02*
X14382439Y-15095812D01*
X14382439Y-15095812D02*
X14372915Y-15076764D01*
X14372915Y-15076764D02*
X14353868Y-15067241D01*
X14353868Y-15067241D02*
X14325296Y-15067241D01*
X14325296Y-15067241D02*
X14306249Y-15057717D01*
X14306249Y-15057717D02*
X14296725Y-15038669D01*
X14296725Y-15038669D02*
X14296725Y-15029145D01*
X14296725Y-15029145D02*
X14306249Y-15010098D01*
X14306249Y-15010098D02*
X14325296Y-15000574D01*
X14325296Y-15000574D02*
X14353868Y-15000574D01*
X14353868Y-15000574D02*
X14372915Y-15010098D01*
X14449106Y-15210098D02*
X14458630Y-15200574D01*
X14458630Y-15200574D02*
X14477677Y-15172003D01*
X14477677Y-15172003D02*
X14487201Y-15152955D01*
X14487201Y-15152955D02*
X14496725Y-15124384D01*
X14496725Y-15124384D02*
X14506249Y-15076764D01*
X14506249Y-15076764D02*
X14506249Y-15038669D01*
X14506249Y-15038669D02*
X14496725Y-14991050D01*
X14496725Y-14991050D02*
X14487201Y-14962479D01*
X14487201Y-14962479D02*
X14477677Y-14943431D01*
X14477677Y-14943431D02*
X14458630Y-14914860D01*
X14458630Y-14914860D02*
X14449106Y-14905336D01*
X7854995Y-15242424D02*
X8054995Y-15442424D01*
X8054995Y-15242424D02*
X7854995Y-15442424D01*
X8054995Y-15342424D02*
G75*
G02*
X7854995Y-15342424I-100000J0D01*
G01*
X7854995Y-15342424D02*
G75*
G02*
X8054995Y-15342424I100000J0D01*
G01*
X8306248Y-15252955D02*
X8315772Y-15243431D01*
X8315772Y-15243431D02*
X8334819Y-15233907D01*
X8334819Y-15233907D02*
X8382439Y-15233907D01*
X8382439Y-15233907D02*
X8401486Y-15243431D01*
X8401486Y-15243431D02*
X8411010Y-15252955D01*
X8411010Y-15252955D02*
X8420534Y-15272003D01*
X8420534Y-15272003D02*
X8420534Y-15291050D01*
X8420534Y-15291050D02*
X8411010Y-15319622D01*
X8411010Y-15319622D02*
X8296724Y-15433907D01*
X8296724Y-15433907D02*
X8420534Y-15433907D01*
X8506248Y-15414860D02*
X8515772Y-15424384D01*
X8515772Y-15424384D02*
X8506248Y-15433907D01*
X8506248Y-15433907D02*
X8496724Y-15424384D01*
X8496724Y-15424384D02*
X8506248Y-15414860D01*
X8506248Y-15414860D02*
X8506248Y-15433907D01*
X8591962Y-15252955D02*
X8601486Y-15243431D01*
X8601486Y-15243431D02*
X8620534Y-15233907D01*
X8620534Y-15233907D02*
X8668153Y-15233907D01*
X8668153Y-15233907D02*
X8687201Y-15243431D01*
X8687201Y-15243431D02*
X8696724Y-15252955D01*
X8696724Y-15252955D02*
X8706248Y-15272003D01*
X8706248Y-15272003D02*
X8706248Y-15291050D01*
X8706248Y-15291050D02*
X8696724Y-15319622D01*
X8696724Y-15319622D02*
X8582439Y-15433907D01*
X8582439Y-15433907D02*
X8706248Y-15433907D01*
X8830058Y-15233907D02*
X8849105Y-15233907D01*
X8849105Y-15233907D02*
X8868153Y-15243431D01*
X8868153Y-15243431D02*
X8877677Y-15252955D01*
X8877677Y-15252955D02*
X8887201Y-15272003D01*
X8887201Y-15272003D02*
X8896724Y-15310098D01*
X8896724Y-15310098D02*
X8896724Y-15357717D01*
X8896724Y-15357717D02*
X8887201Y-15395812D01*
X8887201Y-15395812D02*
X8877677Y-15414860D01*
X8877677Y-15414860D02*
X8868153Y-15424384D01*
X8868153Y-15424384D02*
X8849105Y-15433907D01*
X8849105Y-15433907D02*
X8830058Y-15433907D01*
X8830058Y-15433907D02*
X8811010Y-15424384D01*
X8811010Y-15424384D02*
X8801486Y-15414860D01*
X8801486Y-15414860D02*
X8791962Y-15395812D01*
X8791962Y-15395812D02*
X8782439Y-15357717D01*
X8782439Y-15357717D02*
X8782439Y-15310098D01*
X8782439Y-15310098D02*
X8791962Y-15272003D01*
X8791962Y-15272003D02*
X8801486Y-15252955D01*
X8801486Y-15252955D02*
X8811010Y-15243431D01*
X8811010Y-15243431D02*
X8830058Y-15233907D01*
X9020534Y-15233907D02*
X9039582Y-15233907D01*
X9039582Y-15233907D02*
X9058629Y-15243431D01*
X9058629Y-15243431D02*
X9068153Y-15252955D01*
X9068153Y-15252955D02*
X9077677Y-15272003D01*
X9077677Y-15272003D02*
X9087201Y-15310098D01*
X9087201Y-15310098D02*
X9087201Y-15357717D01*
X9087201Y-15357717D02*
X9077677Y-15395812D01*
X9077677Y-15395812D02*
X9068153Y-15414860D01*
X9068153Y-15414860D02*
X9058629Y-15424384D01*
X9058629Y-15424384D02*
X9039582Y-15433907D01*
X9039582Y-15433907D02*
X9020534Y-15433907D01*
X9020534Y-15433907D02*
X9001486Y-15424384D01*
X9001486Y-15424384D02*
X8991962Y-15414860D01*
X8991962Y-15414860D02*
X8982439Y-15395812D01*
X8982439Y-15395812D02*
X8972915Y-15357717D01*
X8972915Y-15357717D02*
X8972915Y-15310098D01*
X8972915Y-15310098D02*
X8982439Y-15272003D01*
X8982439Y-15272003D02*
X8991962Y-15252955D01*
X8991962Y-15252955D02*
X9001486Y-15243431D01*
X9001486Y-15243431D02*
X9020534Y-15233907D01*
X9172915Y-15433907D02*
X9172915Y-15300574D01*
X9172915Y-15319622D02*
X9182439Y-15310098D01*
X9182439Y-15310098D02*
X9201486Y-15300574D01*
X9201486Y-15300574D02*
X9230058Y-15300574D01*
X9230058Y-15300574D02*
X9249105Y-15310098D01*
X9249105Y-15310098D02*
X9258629Y-15329145D01*
X9258629Y-15329145D02*
X9258629Y-15433907D01*
X9258629Y-15329145D02*
X9268153Y-15310098D01*
X9268153Y-15310098D02*
X9287201Y-15300574D01*
X9287201Y-15300574D02*
X9315772Y-15300574D01*
X9315772Y-15300574D02*
X9334820Y-15310098D01*
X9334820Y-15310098D02*
X9344343Y-15329145D01*
X9344343Y-15329145D02*
X9344343Y-15433907D01*
X9439582Y-15433907D02*
X9439582Y-15300574D01*
X9439582Y-15319622D02*
X9449105Y-15310098D01*
X9449105Y-15310098D02*
X9468153Y-15300574D01*
X9468153Y-15300574D02*
X9496724Y-15300574D01*
X9496724Y-15300574D02*
X9515772Y-15310098D01*
X9515772Y-15310098D02*
X9525296Y-15329145D01*
X9525296Y-15329145D02*
X9525296Y-15433907D01*
X9525296Y-15329145D02*
X9534820Y-15310098D01*
X9534820Y-15310098D02*
X9553867Y-15300574D01*
X9553867Y-15300574D02*
X9582439Y-15300574D01*
X9582439Y-15300574D02*
X9601486Y-15310098D01*
X9601486Y-15310098D02*
X9611010Y-15329145D01*
X9611010Y-15329145D02*
X9611010Y-15433907D01*
X10001486Y-15224384D02*
X9830058Y-15481526D01*
X10258629Y-15233907D02*
X10277677Y-15233907D01*
X10277677Y-15233907D02*
X10296725Y-15243431D01*
X10296725Y-15243431D02*
X10306248Y-15252955D01*
X10306248Y-15252955D02*
X10315772Y-15272003D01*
X10315772Y-15272003D02*
X10325296Y-15310098D01*
X10325296Y-15310098D02*
X10325296Y-15357717D01*
X10325296Y-15357717D02*
X10315772Y-15395812D01*
X10315772Y-15395812D02*
X10306248Y-15414860D01*
X10306248Y-15414860D02*
X10296725Y-15424384D01*
X10296725Y-15424384D02*
X10277677Y-15433907D01*
X10277677Y-15433907D02*
X10258629Y-15433907D01*
X10258629Y-15433907D02*
X10239582Y-15424384D01*
X10239582Y-15424384D02*
X10230058Y-15414860D01*
X10230058Y-15414860D02*
X10220534Y-15395812D01*
X10220534Y-15395812D02*
X10211010Y-15357717D01*
X10211010Y-15357717D02*
X10211010Y-15310098D01*
X10211010Y-15310098D02*
X10220534Y-15272003D01*
X10220534Y-15272003D02*
X10230058Y-15252955D01*
X10230058Y-15252955D02*
X10239582Y-15243431D01*
X10239582Y-15243431D02*
X10258629Y-15233907D01*
X10411010Y-15414860D02*
X10420534Y-15424384D01*
X10420534Y-15424384D02*
X10411010Y-15433907D01*
X10411010Y-15433907D02*
X10401486Y-15424384D01*
X10401486Y-15424384D02*
X10411010Y-15414860D01*
X10411010Y-15414860D02*
X10411010Y-15433907D01*
X10544344Y-15233907D02*
X10563391Y-15233907D01*
X10563391Y-15233907D02*
X10582439Y-15243431D01*
X10582439Y-15243431D02*
X10591963Y-15252955D01*
X10591963Y-15252955D02*
X10601486Y-15272003D01*
X10601486Y-15272003D02*
X10611010Y-15310098D01*
X10611010Y-15310098D02*
X10611010Y-15357717D01*
X10611010Y-15357717D02*
X10601486Y-15395812D01*
X10601486Y-15395812D02*
X10591963Y-15414860D01*
X10591963Y-15414860D02*
X10582439Y-15424384D01*
X10582439Y-15424384D02*
X10563391Y-15433907D01*
X10563391Y-15433907D02*
X10544344Y-15433907D01*
X10544344Y-15433907D02*
X10525296Y-15424384D01*
X10525296Y-15424384D02*
X10515772Y-15414860D01*
X10515772Y-15414860D02*
X10506248Y-15395812D01*
X10506248Y-15395812D02*
X10496725Y-15357717D01*
X10496725Y-15357717D02*
X10496725Y-15310098D01*
X10496725Y-15310098D02*
X10506248Y-15272003D01*
X10506248Y-15272003D02*
X10515772Y-15252955D01*
X10515772Y-15252955D02*
X10525296Y-15243431D01*
X10525296Y-15243431D02*
X10544344Y-15233907D01*
X10725296Y-15319622D02*
X10706248Y-15310098D01*
X10706248Y-15310098D02*
X10696725Y-15300574D01*
X10696725Y-15300574D02*
X10687201Y-15281526D01*
X10687201Y-15281526D02*
X10687201Y-15272003D01*
X10687201Y-15272003D02*
X10696725Y-15252955D01*
X10696725Y-15252955D02*
X10706248Y-15243431D01*
X10706248Y-15243431D02*
X10725296Y-15233907D01*
X10725296Y-15233907D02*
X10763391Y-15233907D01*
X10763391Y-15233907D02*
X10782439Y-15243431D01*
X10782439Y-15243431D02*
X10791963Y-15252955D01*
X10791963Y-15252955D02*
X10801486Y-15272003D01*
X10801486Y-15272003D02*
X10801486Y-15281526D01*
X10801486Y-15281526D02*
X10791963Y-15300574D01*
X10791963Y-15300574D02*
X10782439Y-15310098D01*
X10782439Y-15310098D02*
X10763391Y-15319622D01*
X10763391Y-15319622D02*
X10725296Y-15319622D01*
X10725296Y-15319622D02*
X10706248Y-15329145D01*
X10706248Y-15329145D02*
X10696725Y-15338669D01*
X10696725Y-15338669D02*
X10687201Y-15357717D01*
X10687201Y-15357717D02*
X10687201Y-15395812D01*
X10687201Y-15395812D02*
X10696725Y-15414860D01*
X10696725Y-15414860D02*
X10706248Y-15424384D01*
X10706248Y-15424384D02*
X10725296Y-15433907D01*
X10725296Y-15433907D02*
X10763391Y-15433907D01*
X10763391Y-15433907D02*
X10782439Y-15424384D01*
X10782439Y-15424384D02*
X10791963Y-15414860D01*
X10791963Y-15414860D02*
X10801486Y-15395812D01*
X10801486Y-15395812D02*
X10801486Y-15357717D01*
X10801486Y-15357717D02*
X10791963Y-15338669D01*
X10791963Y-15338669D02*
X10782439Y-15329145D01*
X10782439Y-15329145D02*
X10763391Y-15319622D01*
X10972915Y-15233907D02*
X10934820Y-15233907D01*
X10934820Y-15233907D02*
X10915772Y-15243431D01*
X10915772Y-15243431D02*
X10906248Y-15252955D01*
X10906248Y-15252955D02*
X10887201Y-15281526D01*
X10887201Y-15281526D02*
X10877677Y-15319622D01*
X10877677Y-15319622D02*
X10877677Y-15395812D01*
X10877677Y-15395812D02*
X10887201Y-15414860D01*
X10887201Y-15414860D02*
X10896725Y-15424384D01*
X10896725Y-15424384D02*
X10915772Y-15433907D01*
X10915772Y-15433907D02*
X10953867Y-15433907D01*
X10953867Y-15433907D02*
X10972915Y-15424384D01*
X10972915Y-15424384D02*
X10982439Y-15414860D01*
X10982439Y-15414860D02*
X10991963Y-15395812D01*
X10991963Y-15395812D02*
X10991963Y-15348193D01*
X10991963Y-15348193D02*
X10982439Y-15329145D01*
X10982439Y-15329145D02*
X10972915Y-15319622D01*
X10972915Y-15319622D02*
X10953867Y-15310098D01*
X10953867Y-15310098D02*
X10915772Y-15310098D01*
X10915772Y-15310098D02*
X10896725Y-15319622D01*
X10896725Y-15319622D02*
X10887201Y-15329145D01*
X10887201Y-15329145D02*
X10877677Y-15348193D01*
X11163391Y-15233907D02*
X11125296Y-15233907D01*
X11125296Y-15233907D02*
X11106248Y-15243431D01*
X11106248Y-15243431D02*
X11096725Y-15252955D01*
X11096725Y-15252955D02*
X11077677Y-15281526D01*
X11077677Y-15281526D02*
X11068153Y-15319622D01*
X11068153Y-15319622D02*
X11068153Y-15395812D01*
X11068153Y-15395812D02*
X11077677Y-15414860D01*
X11077677Y-15414860D02*
X11087201Y-15424384D01*
X11087201Y-15424384D02*
X11106248Y-15433907D01*
X11106248Y-15433907D02*
X11144344Y-15433907D01*
X11144344Y-15433907D02*
X11163391Y-15424384D01*
X11163391Y-15424384D02*
X11172915Y-15414860D01*
X11172915Y-15414860D02*
X11182439Y-15395812D01*
X11182439Y-15395812D02*
X11182439Y-15348193D01*
X11182439Y-15348193D02*
X11172915Y-15329145D01*
X11172915Y-15329145D02*
X11163391Y-15319622D01*
X11163391Y-15319622D02*
X11144344Y-15310098D01*
X11144344Y-15310098D02*
X11106248Y-15310098D01*
X11106248Y-15310098D02*
X11087201Y-15319622D01*
X11087201Y-15319622D02*
X11077677Y-15329145D01*
X11077677Y-15329145D02*
X11068153Y-15348193D01*
X11258629Y-15233907D02*
X11258629Y-15272003D01*
X11334820Y-15233907D02*
X11334820Y-15272003D01*
X11630058Y-15510098D02*
X11620534Y-15500574D01*
X11620534Y-15500574D02*
X11601486Y-15472003D01*
X11601486Y-15472003D02*
X11591963Y-15452955D01*
X11591963Y-15452955D02*
X11582439Y-15424384D01*
X11582439Y-15424384D02*
X11572915Y-15376764D01*
X11572915Y-15376764D02*
X11572915Y-15338669D01*
X11572915Y-15338669D02*
X11582439Y-15291050D01*
X11582439Y-15291050D02*
X11591963Y-15262479D01*
X11591963Y-15262479D02*
X11601486Y-15243431D01*
X11601486Y-15243431D02*
X11620534Y-15214860D01*
X11620534Y-15214860D02*
X11630058Y-15205336D01*
X11791963Y-15300574D02*
X11791963Y-15433907D01*
X11744344Y-15224384D02*
X11696725Y-15367241D01*
X11696725Y-15367241D02*
X11820534Y-15367241D01*
X12049106Y-15433907D02*
X12049106Y-15233907D01*
X12134820Y-15433907D02*
X12134820Y-15329145D01*
X12134820Y-15329145D02*
X12125296Y-15310098D01*
X12125296Y-15310098D02*
X12106248Y-15300574D01*
X12106248Y-15300574D02*
X12077677Y-15300574D01*
X12077677Y-15300574D02*
X12058629Y-15310098D01*
X12058629Y-15310098D02*
X12049106Y-15319622D01*
X12258629Y-15433907D02*
X12239582Y-15424384D01*
X12239582Y-15424384D02*
X12230058Y-15414860D01*
X12230058Y-15414860D02*
X12220534Y-15395812D01*
X12220534Y-15395812D02*
X12220534Y-15338669D01*
X12220534Y-15338669D02*
X12230058Y-15319622D01*
X12230058Y-15319622D02*
X12239582Y-15310098D01*
X12239582Y-15310098D02*
X12258629Y-15300574D01*
X12258629Y-15300574D02*
X12287201Y-15300574D01*
X12287201Y-15300574D02*
X12306248Y-15310098D01*
X12306248Y-15310098D02*
X12315772Y-15319622D01*
X12315772Y-15319622D02*
X12325296Y-15338669D01*
X12325296Y-15338669D02*
X12325296Y-15395812D01*
X12325296Y-15395812D02*
X12315772Y-15414860D01*
X12315772Y-15414860D02*
X12306248Y-15424384D01*
X12306248Y-15424384D02*
X12287201Y-15433907D01*
X12287201Y-15433907D02*
X12258629Y-15433907D01*
X12439582Y-15433907D02*
X12420534Y-15424384D01*
X12420534Y-15424384D02*
X12411010Y-15405336D01*
X12411010Y-15405336D02*
X12411010Y-15233907D01*
X12591963Y-15424384D02*
X12572915Y-15433907D01*
X12572915Y-15433907D02*
X12534820Y-15433907D01*
X12534820Y-15433907D02*
X12515772Y-15424384D01*
X12515772Y-15424384D02*
X12506248Y-15405336D01*
X12506248Y-15405336D02*
X12506248Y-15329145D01*
X12506248Y-15329145D02*
X12515772Y-15310098D01*
X12515772Y-15310098D02*
X12534820Y-15300574D01*
X12534820Y-15300574D02*
X12572915Y-15300574D01*
X12572915Y-15300574D02*
X12591963Y-15310098D01*
X12591963Y-15310098D02*
X12601487Y-15329145D01*
X12601487Y-15329145D02*
X12601487Y-15348193D01*
X12601487Y-15348193D02*
X12506248Y-15367241D01*
X12677677Y-15424384D02*
X12696725Y-15433907D01*
X12696725Y-15433907D02*
X12734820Y-15433907D01*
X12734820Y-15433907D02*
X12753868Y-15424384D01*
X12753868Y-15424384D02*
X12763391Y-15405336D01*
X12763391Y-15405336D02*
X12763391Y-15395812D01*
X12763391Y-15395812D02*
X12753868Y-15376764D01*
X12753868Y-15376764D02*
X12734820Y-15367241D01*
X12734820Y-15367241D02*
X12706248Y-15367241D01*
X12706248Y-15367241D02*
X12687201Y-15357717D01*
X12687201Y-15357717D02*
X12677677Y-15338669D01*
X12677677Y-15338669D02*
X12677677Y-15329145D01*
X12677677Y-15329145D02*
X12687201Y-15310098D01*
X12687201Y-15310098D02*
X12706248Y-15300574D01*
X12706248Y-15300574D02*
X12734820Y-15300574D01*
X12734820Y-15300574D02*
X12753868Y-15310098D01*
X12830058Y-15510098D02*
X12839582Y-15500574D01*
X12839582Y-15500574D02*
X12858629Y-15472003D01*
X12858629Y-15472003D02*
X12868153Y-15452955D01*
X12868153Y-15452955D02*
X12877677Y-15424384D01*
X12877677Y-15424384D02*
X12887201Y-15376764D01*
X12887201Y-15376764D02*
X12887201Y-15338669D01*
X12887201Y-15338669D02*
X12877677Y-15291050D01*
X12877677Y-15291050D02*
X12868153Y-15262479D01*
X12868153Y-15262479D02*
X12858629Y-15243431D01*
X12858629Y-15243431D02*
X12839582Y-15214860D01*
X12839582Y-15214860D02*
X12830058Y-15205336D01*
M02*
