M48
; DRILL file {KiCad 9.0.6} date 2025-12-10T23:32:01+0100
; FORMAT={-:-/ absolute / metric / decimal}
; #@! TF.CreationDate,2025-12-10T23:32:01+01:00
; #@! TF.GenerationSoftware,Kicad,Pcbnew,9.0.6
; #@! TF.FileFunction,Plated,1,2,PTH
FMAT,2
METRIC
; #@! TA.AperFunction,Plated,PTH,ViaDrill
T1C0.300
; #@! TA.AperFunction,Plated,PTH,ViaDrill
T2C0.400
; #@! TA.AperFunction,Plated,PTH,ComponentDrill
T3C0.400
; #@! TA.AperFunction,Plated,PTH,ComponentDrill
T4C1.000
; #@! TA.AperFunction,Plated,PTH,ComponentDrill
T5C1.300
; #@! TA.AperFunction,Plated,PTH,ComponentDrill
T6C1.800
; #@! TA.AperFunction,Plated,PTH,ComponentDrill
T7C2.200
%
G90
G05
T1
X83.8Y-80.6
X84.2Y-101.2
X86.4Y-89.6
X89.4Y-109.4
X89.8Y-125.4
X90.0Y-71.2
X92.4Y-129.2
X93.71Y-118.94
X97.2Y-75.0
X98.6Y-124.0
X100.9Y-69.6
X101.4Y-105.4
X104.2Y-130.0
X107.81Y-110.38
X111.4Y-98.2
X111.6Y-73.6
X112.96Y-93.46
X114.43Y-94.18
X115.08Y-89.15
X115.8Y-69.2
X116.4Y-126.6
X118.6Y-100.0
X119.4Y-83.0
X124.4Y-70.2
X126.0Y-125.6
X129.0Y-107.2
X131.2Y-131.0
X136.0Y-67.4
X139.4Y-129.4
X143.4Y-95.6
X146.0Y-79.6
X146.8Y-103.0
X147.6Y-91.8
X147.6Y-113.6
T2
X109.2Y-79.4
T3
X83.45Y-128.9
X83.464Y-68.914
X83.933Y-127.733
X83.933Y-130.067
X83.947Y-67.747
X83.947Y-70.081
X85.1Y-127.25
X85.1Y-130.55
X85.114Y-67.264
X85.114Y-70.564
X86.267Y-127.733
X86.267Y-130.067
X86.281Y-67.747
X86.281Y-70.081
X86.75Y-128.9
X86.764Y-68.914
X143.464Y-68.914
X143.464Y-128.914
X143.947Y-67.747
X143.947Y-70.081
X143.947Y-127.748
X143.947Y-130.081
X145.114Y-67.264
X145.114Y-70.564
X145.114Y-127.264
X145.114Y-130.564
X146.281Y-67.747
X146.281Y-70.081
X146.281Y-127.748
X146.281Y-130.081
X146.764Y-68.914
X146.764Y-128.914
T4
X91.228Y-77.556
X91.228Y-80.096
X91.228Y-82.636
X91.228Y-85.176
X91.228Y-87.716
X91.228Y-90.256
X91.228Y-92.796
X91.228Y-95.336
X91.228Y-97.876
X91.228Y-100.416
X91.228Y-102.956
X95.24Y-110.4
X97.78Y-110.4
X104.8Y-117.26
X104.8Y-119.8
X106.228Y-77.556
X106.228Y-80.096
X106.228Y-82.636
X106.228Y-85.176
X106.228Y-87.716
X106.228Y-90.256
X106.228Y-92.796
X106.228Y-95.336
X106.228Y-97.876
X106.228Y-100.416
X106.228Y-102.956
X115.888Y-106.701
X118.428Y-106.701
X120.968Y-106.701
X123.508Y-106.701
X124.008Y-75.016
X124.008Y-77.556
X124.008Y-80.096
X124.008Y-82.636
X124.008Y-85.176
X124.008Y-87.716
X124.008Y-90.256
X124.008Y-92.796
X124.008Y-95.336
X124.008Y-97.876
X124.008Y-100.416
X124.008Y-102.956
X133.1Y-113.55
X135.6Y-113.55
X137.925Y-110.0
X138.1Y-113.55
X139.008Y-75.016
X139.008Y-77.556
X139.008Y-80.096
X139.008Y-82.636
X139.008Y-85.176
X139.008Y-87.716
X139.008Y-90.256
X139.008Y-92.796
X139.008Y-95.336
X139.008Y-97.876
X139.008Y-100.416
X139.008Y-102.956
X140.465Y-110.0
T5
X108.902Y-116.26
X108.902Y-121.26
X121.402Y-116.26
X121.402Y-121.26
T7
X85.1Y-128.9
X85.114Y-68.914
X145.114Y-68.914
X145.114Y-128.914
T6
G00X131.2Y-120.4
M15
G01X131.2Y-120.7
M16
G05
G00X140.0Y-120.4
M15
G01X140.0Y-120.7
M16
G05
M30
