G04 #@! TF.GenerationSoftware,KiCad,Pcbnew,9.0.6*
G04 #@! TF.CreationDate,2025-12-10T23:32:01+01:00*
G04 #@! TF.ProjectId,floppyv3_expansion,666c6f70-7079-4763-935f-657870616e73,rev?*
G04 #@! TF.SameCoordinates,Original*
G04 #@! TF.FileFunction,Copper,L1,Top*
G04 #@! TF.FilePolarity,Positive*
%FSLAX46Y46*%
G04 Gerber Fmt 4.6, Leading zero omitted, Abs format (unit mm)*
G04 Created by KiCad (PCBNEW 9.0.6) date 2025-12-10 23:32:01*
%MOMM*%
%LPD*%
G01*
G04 APERTURE LIST*
G04 Aperture macros list*
%AMRoundRect*
0 Rectangle with rounded corners*
0 $1 Rounding radius*
0 $2 $3 $4 $5 $6 $7 $8 $9 X,Y pos of 4 corners*
0 Add a 4 corners polygon primitive as box body*
4,1,4,$2,$3,$4,$5,$6,$7,$8,$9,$2,$3,0*
0 Add four circle primitives for the rounded corners*
1,1,$1+$1,$2,$3*
1,1,$1+$1,$4,$5*
1,1,$1+$1,$6,$7*
1,1,$1+$1,$8,$9*
0 Add four rect primitives between the rounded corners*
20,1,$1+$1,$2,$3,$4,$5,0*
20,1,$1+$1,$4,$5,$6,$7,0*
20,1,$1+$1,$6,$7,$8,$9,0*
20,1,$1+$1,$8,$9,$2,$3,0*%
G04 Aperture macros list end*
G04 #@! TA.AperFunction,ComponentPad*
%ADD10O,3.200000X1.900000*%
G04 #@! TD*
G04 #@! TA.AperFunction,ComponentPad*
%ADD11R,1.800000X1.800000*%
G04 #@! TD*
G04 #@! TA.AperFunction,ComponentPad*
%ADD12C,1.800000*%
G04 #@! TD*
G04 #@! TA.AperFunction,ComponentPad*
%ADD13RoundRect,0.750000X-0.750000X1.250000X-0.750000X-1.250000X0.750000X-1.250000X0.750000X1.250000X0*%
G04 #@! TD*
G04 #@! TA.AperFunction,SMDPad,CuDef*
%ADD14RoundRect,0.090000X0.360000X-0.660000X0.360000X0.660000X-0.360000X0.660000X-0.360000X-0.660000X0*%
G04 #@! TD*
G04 #@! TA.AperFunction,ComponentPad*
%ADD15C,0.700000*%
G04 #@! TD*
G04 #@! TA.AperFunction,ComponentPad*
%ADD16C,4.400000*%
G04 #@! TD*
G04 #@! TA.AperFunction,ComponentPad*
%ADD17R,1.700000X1.700000*%
G04 #@! TD*
G04 #@! TA.AperFunction,ComponentPad*
%ADD18C,1.700000*%
G04 #@! TD*
G04 #@! TA.AperFunction,ViaPad*
%ADD19C,0.600000*%
G04 #@! TD*
G04 #@! TA.AperFunction,ViaPad*
%ADD20C,0.800000*%
G04 #@! TD*
G04 #@! TA.AperFunction,Conductor*
%ADD21C,0.400000*%
G04 #@! TD*
G04 #@! TA.AperFunction,Conductor*
%ADD22C,0.200000*%
G04 #@! TD*
G04 APERTURE END LIST*
D10*
G04 #@! TO.P,SW1,1,1*
G04 #@! TO.N,GND*
X108902500Y-116260000D03*
X121402500Y-116260000D03*
G04 #@! TO.P,SW1,2,2*
G04 #@! TO.N,Net-(U1-IN)*
X108902500Y-121260000D03*
X121402500Y-121260000D03*
G04 #@! TD*
D11*
G04 #@! TO.P,RV1,1,1*
G04 #@! TO.N,GND*
X138100000Y-113550000D03*
D12*
G04 #@! TO.P,RV1,2,2*
G04 #@! TO.N,Net-(JP1-A)*
X135600000Y-113550000D03*
G04 #@! TO.P,RV1,3,3*
G04 #@! TO.N,/3V3*
X133100000Y-113550000D03*
D13*
G04 #@! TO.P,RV1,MP*
G04 #@! TO.N,N/C*
X140000000Y-120550000D03*
X131200000Y-120550000D03*
G04 #@! TD*
D14*
G04 #@! TO.P,D1,1,VDD*
G04 #@! TO.N,/3V3*
X95240000Y-120470000D03*
G04 #@! TO.P,D1,2,DOUT*
G04 #@! TO.N,Net-(D1-DOUT)*
X98540000Y-120470000D03*
G04 #@! TO.P,D1,3,VSS*
G04 #@! TO.N,GND*
X98540000Y-115570000D03*
G04 #@! TO.P,D1,4,DIN*
G04 #@! TO.N,Net-(D1-DIN)*
X95240000Y-115570000D03*
G04 #@! TD*
D15*
G04 #@! TO.P,H1,1*
G04 #@! TO.N,N/C*
X83464200Y-68914200D03*
X83947474Y-67747474D03*
X83947474Y-70080926D03*
X85114200Y-67264200D03*
D16*
X85114200Y-68914200D03*
D15*
X85114200Y-70564200D03*
X86280926Y-67747474D03*
X86280926Y-70080926D03*
X86764200Y-68914200D03*
G04 #@! TD*
D17*
G04 #@! TO.P,JP2,1,A*
G04 #@! TO.N,Net-(JP2-A)*
X104800000Y-119800000D03*
D18*
G04 #@! TO.P,JP2,2,B*
G04 #@! TO.N,/PA0*
X104800000Y-117260000D03*
G04 #@! TD*
D14*
G04 #@! TO.P,D2,1,VDD*
G04 #@! TO.N,/3V3*
X85550000Y-120570000D03*
G04 #@! TO.P,D2,2,DOUT*
G04 #@! TO.N,unconnected-(D2-DOUT-Pad2)*
X88850000Y-120570000D03*
G04 #@! TO.P,D2,3,VSS*
G04 #@! TO.N,GND*
X88850000Y-115670000D03*
G04 #@! TO.P,D2,4,DIN*
G04 #@! TO.N,Net-(D1-DOUT)*
X85550000Y-115670000D03*
G04 #@! TD*
D17*
G04 #@! TO.P,JP3,1,A*
G04 #@! TO.N,/PB0*
X97780000Y-110400000D03*
D18*
G04 #@! TO.P,JP3,2,B*
G04 #@! TO.N,Net-(D1-DIN)*
X95240000Y-110400000D03*
G04 #@! TD*
D17*
G04 #@! TO.P,J5,1,Pin_1*
G04 #@! TO.N,/VUSB*
X139008414Y-75016440D03*
D18*
G04 #@! TO.P,J5,2,Pin_2*
G04 #@! TO.N,/VIN*
X139008414Y-77556440D03*
G04 #@! TO.P,J5,3,Pin_3*
G04 #@! TO.N,GND*
X139008414Y-80096440D03*
G04 #@! TO.P,J5,4,Pin_4*
G04 #@! TO.N,/PB3*
X139008414Y-82636440D03*
G04 #@! TO.P,J5,5,Pin_5*
G04 #@! TO.N,/PA14*
X139008414Y-85176440D03*
G04 #@! TO.P,J5,6,Pin_6*
G04 #@! TO.N,/PA13*
X139008414Y-87716440D03*
G04 #@! TO.P,J5,7,Pin_7*
G04 #@! TO.N,/PA12*
X139008414Y-90256440D03*
G04 #@! TO.P,J5,8,Pin_8*
G04 #@! TO.N,/PA11*
X139008414Y-92796440D03*
G04 #@! TO.P,J5,9,Pin_9*
G04 #@! TO.N,/PB0*
X139008414Y-95336440D03*
G04 #@! TO.P,J5,10,Pin_10*
G04 #@! TO.N,/PA7*
X139008414Y-97876440D03*
G04 #@! TO.P,J5,11,Pin_11*
G04 #@! TO.N,/PA6*
X139008414Y-100416440D03*
G04 #@! TO.P,J5,12,Pin_12*
G04 #@! TO.N,/PA5*
X139008414Y-102956440D03*
G04 #@! TD*
D17*
G04 #@! TO.P,J1,1,Pin_1*
G04 #@! TO.N,/3V3*
X91228414Y-77556440D03*
D18*
G04 #@! TO.P,J1,2,Pin_2*
G04 #@! TO.N,GND*
X91228414Y-80096440D03*
G04 #@! TO.P,J1,3,Pin_3*
G04 #@! TO.N,/NRST*
X91228414Y-82636440D03*
G04 #@! TO.P,J1,4,Pin_4*
G04 #@! TO.N,/PB7*
X91228414Y-85176440D03*
G04 #@! TO.P,J1,5,Pin_5*
G04 #@! TO.N,/PC14*
X91228414Y-87716440D03*
G04 #@! TO.P,J1,6,Pin_6*
G04 #@! TO.N,/PC15*
X91228414Y-90256440D03*
G04 #@! TO.P,J1,7,Pin_7*
G04 #@! TO.N,/PA0*
X91228414Y-92796440D03*
G04 #@! TO.P,J1,8,Pin_8*
G04 #@! TO.N,/PA1*
X91228414Y-95336440D03*
G04 #@! TO.P,J1,9,Pin_9*
G04 #@! TO.N,/PA2*
X91228414Y-97876440D03*
G04 #@! TO.P,J1,10,Pin_10*
G04 #@! TO.N,/PA3*
X91228414Y-100416440D03*
G04 #@! TO.P,J1,11,Pin_11*
G04 #@! TO.N,/PA4*
X91228414Y-102956440D03*
G04 #@! TD*
D17*
G04 #@! TO.P,J3,1,Pin_1*
G04 #@! TO.N,/3V3*
X115888414Y-106701440D03*
D18*
G04 #@! TO.P,J3,2,Pin_2*
G04 #@! TO.N,/T_SCK*
X118428414Y-106701440D03*
G04 #@! TO.P,J3,3,Pin_3*
G04 #@! TO.N,GND*
X120968414Y-106701440D03*
G04 #@! TO.P,J3,4,Pin_4*
G04 #@! TO.N,/T_SWD*
X123508414Y-106701440D03*
G04 #@! TD*
D15*
G04 #@! TO.P,H3,1*
G04 #@! TO.N,N/C*
X143464200Y-128914278D03*
X143947474Y-127747552D03*
X143947474Y-130081004D03*
X145114200Y-127264278D03*
D16*
X145114200Y-128914278D03*
D15*
X145114200Y-130564278D03*
X146280926Y-127747552D03*
X146280926Y-130081004D03*
X146764200Y-128914278D03*
G04 #@! TD*
D17*
G04 #@! TO.P,J4,1,Pin_1*
G04 #@! TO.N,/VUSB*
X124008414Y-75016440D03*
D18*
G04 #@! TO.P,J4,2,Pin_2*
G04 #@! TO.N,/VIN*
X124008414Y-77556440D03*
G04 #@! TO.P,J4,3,Pin_3*
G04 #@! TO.N,GND*
X124008414Y-80096440D03*
G04 #@! TO.P,J4,4,Pin_4*
G04 #@! TO.N,/PB3*
X124008414Y-82636440D03*
G04 #@! TO.P,J4,5,Pin_5*
G04 #@! TO.N,/PA14*
X124008414Y-85176440D03*
G04 #@! TO.P,J4,6,Pin_6*
G04 #@! TO.N,/PA13*
X124008414Y-87716440D03*
G04 #@! TO.P,J4,7,Pin_7*
G04 #@! TO.N,/PA12*
X124008414Y-90256440D03*
G04 #@! TO.P,J4,8,Pin_8*
G04 #@! TO.N,/PA11*
X124008414Y-92796440D03*
G04 #@! TO.P,J4,9,Pin_9*
G04 #@! TO.N,/PB0*
X124008414Y-95336440D03*
G04 #@! TO.P,J4,10,Pin_10*
G04 #@! TO.N,/PA7*
X124008414Y-97876440D03*
G04 #@! TO.P,J4,11,Pin_11*
G04 #@! TO.N,/PA6*
X124008414Y-100416440D03*
G04 #@! TO.P,J4,12,Pin_12*
G04 #@! TO.N,/PA5*
X124008414Y-102956440D03*
G04 #@! TD*
D15*
G04 #@! TO.P,H4,1*
G04 #@! TO.N,N/C*
X83449986Y-128899964D03*
X83933260Y-127733238D03*
X83933260Y-130066690D03*
X85099986Y-127249964D03*
D16*
X85099986Y-128899964D03*
D15*
X85099986Y-130549964D03*
X86266712Y-127733238D03*
X86266712Y-130066690D03*
X86749986Y-128899964D03*
G04 #@! TD*
D17*
G04 #@! TO.P,JP1,1,A*
G04 #@! TO.N,Net-(JP1-A)*
X137925000Y-110000000D03*
D18*
G04 #@! TO.P,JP1,2,B*
G04 #@! TO.N,/PA5*
X140465000Y-110000000D03*
G04 #@! TD*
D17*
G04 #@! TO.P,J2,1,Pin_1*
G04 #@! TO.N,/3V3*
X106228414Y-77556440D03*
D18*
G04 #@! TO.P,J2,2,Pin_2*
G04 #@! TO.N,GND*
X106228414Y-80096440D03*
G04 #@! TO.P,J2,3,Pin_3*
G04 #@! TO.N,/NRST*
X106228414Y-82636440D03*
G04 #@! TO.P,J2,4,Pin_4*
G04 #@! TO.N,/PB7*
X106228414Y-85176440D03*
G04 #@! TO.P,J2,5,Pin_5*
G04 #@! TO.N,/PC14*
X106228414Y-87716440D03*
G04 #@! TO.P,J2,6,Pin_6*
G04 #@! TO.N,/PC15*
X106228414Y-90256440D03*
G04 #@! TO.P,J2,7,Pin_7*
G04 #@! TO.N,/PA0*
X106228414Y-92796440D03*
G04 #@! TO.P,J2,8,Pin_8*
G04 #@! TO.N,/PA1*
X106228414Y-95336440D03*
G04 #@! TO.P,J2,9,Pin_9*
G04 #@! TO.N,/PA2*
X106228414Y-97876440D03*
G04 #@! TO.P,J2,10,Pin_10*
G04 #@! TO.N,/PA3*
X106228414Y-100416440D03*
G04 #@! TO.P,J2,11,Pin_11*
G04 #@! TO.N,/PA4*
X106228414Y-102956440D03*
G04 #@! TD*
D15*
G04 #@! TO.P,H2,1*
G04 #@! TO.N,N/C*
X143464200Y-68914200D03*
X143947474Y-67747474D03*
X143947474Y-70080926D03*
X145114200Y-67264200D03*
D16*
X145114200Y-68914200D03*
D15*
X145114200Y-70564200D03*
X146280926Y-67747474D03*
X146280926Y-70080926D03*
X146764200Y-68914200D03*
G04 #@! TD*
D19*
G04 #@! TO.N,GND*
X100900000Y-69600000D03*
X118600000Y-100000000D03*
X136000000Y-67400000D03*
X131200000Y-131000000D03*
X119400000Y-83000000D03*
X89800000Y-125400000D03*
X143400000Y-95600000D03*
X147600000Y-113600000D03*
X126000000Y-125600000D03*
X111600000Y-73600000D03*
X90000000Y-71200000D03*
X86400000Y-89600000D03*
X124400000Y-70200000D03*
X84200000Y-101200000D03*
X89400000Y-109400000D03*
X139400000Y-129400000D03*
X83800000Y-80600000D03*
X146000000Y-79600000D03*
X104200000Y-130000000D03*
X97200000Y-75000000D03*
X129000000Y-107200000D03*
X147600000Y-91800000D03*
X101400000Y-105400000D03*
X98600000Y-124000000D03*
X146800000Y-103000000D03*
X115800000Y-69200000D03*
X116400000Y-126600000D03*
X111400000Y-98200000D03*
X92400000Y-129200000D03*
D20*
G04 #@! TO.N,/3V3*
X109200000Y-79400000D03*
D19*
X93710000Y-118940000D03*
G04 #@! TO.N,/NRST*
X115080000Y-89150000D03*
G04 #@! TO.N,/PA0*
X107810000Y-110380000D03*
G04 #@! TO.N,/T_SWD*
X112960000Y-93460000D03*
X114430000Y-94180000D03*
G04 #@! TD*
D21*
G04 #@! TO.N,/3V3*
X106228414Y-77556440D02*
X107356440Y-77556440D01*
X107356440Y-77556440D02*
X109200000Y-79400000D01*
X93770000Y-119000000D02*
X87120000Y-119000000D01*
X93710000Y-118940000D02*
X95240000Y-120470000D01*
X87120000Y-119000000D02*
X85550000Y-120570000D01*
X106228414Y-77556440D02*
X91228414Y-77556440D01*
D22*
G04 #@! TO.N,Net-(D1-DOUT)*
X97489000Y-119419000D02*
X95219000Y-119419000D01*
X87800000Y-117920000D02*
X85550000Y-115670000D01*
X93720000Y-117920000D02*
X87800000Y-117920000D01*
X95219000Y-119419000D02*
X93720000Y-117920000D01*
X98540000Y-120470000D02*
X97489000Y-119419000D01*
G04 #@! TO.N,Net-(D1-DIN)*
X95240000Y-115570000D02*
X95240000Y-110400000D01*
G04 #@! TO.N,/PA3*
X106228414Y-100416440D02*
X91228414Y-100416440D01*
G04 #@! TO.N,/PC14*
X91228414Y-87716440D02*
X106228414Y-87716440D01*
G04 #@! TO.N,/PC15*
X106228414Y-90256440D02*
X91228414Y-90256440D01*
G04 #@! TO.N,/PA1*
X106228414Y-95336440D02*
X91228414Y-95336440D01*
G04 #@! TO.N,/NRST*
X106228414Y-82636440D02*
X91228414Y-82636440D01*
X106228414Y-82636440D02*
X112741974Y-89150000D01*
X112741974Y-89150000D02*
X115080000Y-89150000D01*
G04 #@! TO.N,/PA4*
X106228414Y-102956440D02*
X91228414Y-102956440D01*
G04 #@! TO.N,/PA2*
X91228414Y-97876440D02*
X106228414Y-97876440D01*
G04 #@! TO.N,/PB7*
X106228414Y-85176440D02*
X91228414Y-85176440D01*
G04 #@! TO.N,/PA0*
X106228414Y-92796440D02*
X91228414Y-92796440D01*
X104800000Y-115648530D02*
X107400000Y-113048530D01*
X107400000Y-113048530D02*
X107810000Y-112638530D01*
X107810000Y-112638530D02*
X107810000Y-110380000D01*
X104800000Y-117260000D02*
X104800000Y-115648530D01*
G04 #@! TO.N,/PA13*
X139008414Y-87716440D02*
X124008414Y-87716440D01*
G04 #@! TO.N,/PA14*
X124008414Y-85176440D02*
X139008414Y-85176440D01*
G04 #@! TO.N,/PB0*
X124004854Y-95340000D02*
X124008414Y-95336440D01*
X104300000Y-110400000D02*
X119360000Y-95340000D01*
X124008414Y-95336440D02*
X139008414Y-95336440D01*
X119360000Y-95340000D02*
X124004854Y-95340000D01*
X97780000Y-110400000D02*
X104300000Y-110400000D01*
G04 #@! TO.N,/PA11*
X139008414Y-92796440D02*
X124008414Y-92796440D01*
G04 #@! TO.N,/PB3*
X139008414Y-82636440D02*
X124008414Y-82636440D01*
G04 #@! TO.N,/PA12*
X124008414Y-90256440D02*
X139008414Y-90256440D01*
D21*
G04 #@! TO.N,/VIN*
X139008414Y-77556440D02*
X124008414Y-77556440D01*
G04 #@! TO.N,/VUSB*
X139008414Y-75016440D02*
X124008414Y-75016440D01*
D22*
G04 #@! TO.N,/PA7*
X139008414Y-97876440D02*
X124008414Y-97876440D01*
G04 #@! TO.N,/PA6*
X124008414Y-100416440D02*
X139008414Y-100416440D01*
G04 #@! TO.N,/T_SWD*
X114430000Y-94180000D02*
X113680000Y-94180000D01*
X113680000Y-94180000D02*
X112960000Y-93460000D01*
G04 #@! TO.N,/PA5*
X140465000Y-110000000D02*
X139008414Y-108543414D01*
X139008414Y-102956440D02*
X124008414Y-102956440D01*
X139008414Y-108543414D02*
X139008414Y-102956440D01*
G04 #@! TO.N,Net-(JP1-A)*
X137925000Y-110000000D02*
X137925000Y-111225000D01*
X137925000Y-111225000D02*
X135600000Y-113550000D01*
G04 #@! TD*
G04 #@! TA.AperFunction,Conductor*
G04 #@! TO.N,GND*
G36*
X147548317Y-64914735D02*
G01*
X147548318Y-64914736D01*
X147609784Y-64914736D01*
X147618627Y-64915051D01*
X147818763Y-64929367D01*
X147836272Y-64931884D01*
X148028008Y-64973596D01*
X148044960Y-64978574D01*
X148228803Y-65047146D01*
X148244889Y-65054492D01*
X148417049Y-65148501D01*
X148417106Y-65148532D01*
X148431982Y-65158092D01*
X148589014Y-65275648D01*
X148589053Y-65275677D01*
X148602421Y-65287260D01*
X148741171Y-65426014D01*
X148752741Y-65439367D01*
X148850620Y-65570121D01*
X148870326Y-65596446D01*
X148879891Y-65611330D01*
X148973920Y-65783538D01*
X148981269Y-65799631D01*
X149049831Y-65983460D01*
X149054816Y-66000437D01*
X149096520Y-66192167D01*
X149099037Y-66209678D01*
X149113397Y-66410502D01*
X149113713Y-66419346D01*
X149113713Y-66490106D01*
X149113714Y-66490119D01*
X149113714Y-131348352D01*
X149113712Y-131348360D01*
X149113713Y-131377440D01*
X149113713Y-131409829D01*
X149113397Y-131418673D01*
X149099090Y-131618799D01*
X149096573Y-131636312D01*
X149054869Y-131828044D01*
X149049884Y-131845021D01*
X148981322Y-132028849D01*
X148973973Y-132044943D01*
X148879939Y-132217157D01*
X148870373Y-132232041D01*
X148752797Y-132389105D01*
X148741211Y-132402477D01*
X148602465Y-132541221D01*
X148589093Y-132552807D01*
X148432024Y-132670385D01*
X148417139Y-132679951D01*
X148244934Y-132773977D01*
X148228841Y-132781326D01*
X148044998Y-132849891D01*
X148028021Y-132854875D01*
X147836299Y-132896575D01*
X147818786Y-132899092D01*
X147618370Y-132913417D01*
X147609502Y-132913733D01*
X82673716Y-132899465D01*
X82673450Y-132899449D01*
X82665882Y-132899449D01*
X82604422Y-132899449D01*
X82595573Y-132899133D01*
X82395383Y-132884811D01*
X82377868Y-132882292D01*
X82314129Y-132868422D01*
X82186092Y-132840562D01*
X82169114Y-132835575D01*
X81985239Y-132766976D01*
X81969142Y-132759623D01*
X81878674Y-132710210D01*
X81796898Y-132665544D01*
X81782013Y-132655975D01*
X81624921Y-132538341D01*
X81611549Y-132526750D01*
X81472793Y-132387944D01*
X81461207Y-132374568D01*
X81343630Y-132217434D01*
X81334066Y-132202545D01*
X81240050Y-132030268D01*
X81232703Y-132014170D01*
X81164163Y-131830253D01*
X81159188Y-131813289D01*
X81117528Y-131621497D01*
X81115016Y-131603985D01*
X81100814Y-131404477D01*
X81100502Y-131395677D01*
X81100504Y-131388664D01*
X81100524Y-131333479D01*
X81100522Y-131333475D01*
X81100526Y-131324603D01*
X81100517Y-131324490D01*
X81101080Y-128748300D01*
X82399486Y-128748300D01*
X82399486Y-129051627D01*
X82433443Y-129353012D01*
X82433446Y-129353026D01*
X82500939Y-129648735D01*
X82500943Y-129648747D01*
X82601119Y-129935032D01*
X82732719Y-130208302D01*
X82732721Y-130208305D01*
X82894094Y-130465128D01*
X83083207Y-130702268D01*
X83297682Y-130916743D01*
X83534822Y-131105856D01*
X83791645Y-131267229D01*
X84064921Y-131398832D01*
X84279937Y-131474069D01*
X84351202Y-131499006D01*
X84351214Y-131499010D01*
X84646923Y-131566504D01*
X84646932Y-131566505D01*
X84646937Y-131566506D01*
X84847860Y-131589144D01*
X84948323Y-131600463D01*
X84948326Y-131600464D01*
X84948329Y-131600464D01*
X85251646Y-131600464D01*
X85251647Y-131600463D01*
X85426008Y-131580818D01*
X85553034Y-131566506D01*
X85553037Y-131566505D01*
X85553049Y-131566504D01*
X85848758Y-131499010D01*
X86135051Y-131398832D01*
X86408327Y-131267229D01*
X86665150Y-131105856D01*
X86902290Y-130916743D01*
X87116765Y-130702268D01*
X87305878Y-130465128D01*
X87467251Y-130208305D01*
X87598854Y-129935029D01*
X87699032Y-129648736D01*
X87766526Y-129353027D01*
X87800486Y-129051621D01*
X87800486Y-128762614D01*
X142413700Y-128762614D01*
X142413700Y-129065941D01*
X142447657Y-129367326D01*
X142447660Y-129367340D01*
X142515153Y-129663049D01*
X142515157Y-129663061D01*
X142615333Y-129949346D01*
X142746933Y-130222616D01*
X142746935Y-130222619D01*
X142908308Y-130479442D01*
X143097421Y-130716582D01*
X143311896Y-130931057D01*
X143549036Y-131120170D01*
X143805859Y-131281543D01*
X144079135Y-131413146D01*
X144294151Y-131488383D01*
X144365416Y-131513320D01*
X144365428Y-131513324D01*
X144661137Y-131580818D01*
X144661146Y-131580819D01*
X144661151Y-131580820D01*
X144862074Y-131603458D01*
X144962537Y-131614777D01*
X144962540Y-131614778D01*
X144962543Y-131614778D01*
X145265860Y-131614778D01*
X145265861Y-131614777D01*
X145419894Y-131597422D01*
X145567248Y-131580820D01*
X145567251Y-131580819D01*
X145567263Y-131580818D01*
X145862972Y-131513324D01*
X146149265Y-131413146D01*
X146422541Y-131281543D01*
X146679364Y-131120170D01*
X146916504Y-130931057D01*
X147130979Y-130716582D01*
X147320092Y-130479442D01*
X147481465Y-130222619D01*
X147613068Y-129949343D01*
X147713246Y-129663050D01*
X147780740Y-129367341D01*
X147782355Y-129353012D01*
X147814699Y-129065941D01*
X147814700Y-129065937D01*
X147814700Y-128762618D01*
X147814699Y-128762614D01*
X147780742Y-128461229D01*
X147780741Y-128461224D01*
X147780740Y-128461215D01*
X147713246Y-128165506D01*
X147613068Y-127879213D01*
X147481465Y-127605937D01*
X147320092Y-127349114D01*
X147130979Y-127111974D01*
X146916504Y-126897499D01*
X146679364Y-126708386D01*
X146422541Y-126547013D01*
X146422538Y-126547011D01*
X146149268Y-126415411D01*
X145862983Y-126315235D01*
X145862971Y-126315231D01*
X145634756Y-126263142D01*
X145567263Y-126247738D01*
X145567260Y-126247737D01*
X145567248Y-126247735D01*
X145265863Y-126213778D01*
X145265857Y-126213778D01*
X144962543Y-126213778D01*
X144962536Y-126213778D01*
X144661151Y-126247735D01*
X144661137Y-126247738D01*
X144365428Y-126315231D01*
X144365416Y-126315235D01*
X144079131Y-126415411D01*
X143805861Y-126547011D01*
X143549037Y-126708385D01*
X143311896Y-126897498D01*
X143097420Y-127111974D01*
X142908307Y-127349115D01*
X142746933Y-127605939D01*
X142615333Y-127879209D01*
X142515157Y-128165494D01*
X142515153Y-128165506D01*
X142447660Y-128461215D01*
X142447657Y-128461229D01*
X142413700Y-128762614D01*
X87800486Y-128762614D01*
X87800486Y-128748307D01*
X87789166Y-128647838D01*
X87766528Y-128446915D01*
X87766527Y-128446910D01*
X87766526Y-128446901D01*
X87699032Y-128151192D01*
X87598854Y-127864899D01*
X87467251Y-127591623D01*
X87305878Y-127334800D01*
X87116765Y-127097660D01*
X86902290Y-126883185D01*
X86665150Y-126694072D01*
X86408327Y-126532699D01*
X86408324Y-126532697D01*
X86135054Y-126401097D01*
X85848769Y-126300921D01*
X85848757Y-126300917D01*
X85615749Y-126247735D01*
X85553049Y-126233424D01*
X85553046Y-126233423D01*
X85553034Y-126233421D01*
X85251649Y-126199464D01*
X85251643Y-126199464D01*
X84948329Y-126199464D01*
X84948322Y-126199464D01*
X84646937Y-126233421D01*
X84646923Y-126233424D01*
X84351214Y-126300917D01*
X84351202Y-126300921D01*
X84064917Y-126401097D01*
X83791647Y-126532697D01*
X83534823Y-126694071D01*
X83297682Y-126883184D01*
X83083206Y-127097660D01*
X82894093Y-127334801D01*
X82732719Y-127591625D01*
X82601119Y-127864895D01*
X82500943Y-128151180D01*
X82500939Y-128151192D01*
X82433446Y-128446901D01*
X82433443Y-128446915D01*
X82399486Y-128748300D01*
X81101080Y-128748300D01*
X81104094Y-114971298D01*
X84599500Y-114971298D01*
X84599500Y-116368703D01*
X84614696Y-116484142D01*
X84614699Y-116484151D01*
X84674200Y-116627798D01*
X84768851Y-116751149D01*
X84892202Y-116845800D01*
X85035849Y-116905301D01*
X85151299Y-116920500D01*
X85899902Y-116920499D01*
X85966941Y-116940183D01*
X85987583Y-116956818D01*
X87119892Y-118089128D01*
X87124762Y-118098047D01*
X87132788Y-118104282D01*
X87141223Y-118128194D01*
X87153377Y-118150451D01*
X87152652Y-118160588D01*
X87156033Y-118170172D01*
X87150201Y-118194847D01*
X87148393Y-118220143D01*
X87142301Y-118228279D01*
X87139965Y-118238169D01*
X87121717Y-118255776D01*
X87106521Y-118276076D01*
X87095660Y-118280919D01*
X87089686Y-118286684D01*
X87056403Y-118298426D01*
X86942591Y-118321065D01*
X86929131Y-118323742D01*
X86915673Y-118326419D01*
X86878330Y-118341887D01*
X86788192Y-118379223D01*
X86734572Y-118415051D01*
X86673454Y-118455887D01*
X85846160Y-119283181D01*
X85784837Y-119316666D01*
X85758479Y-119319500D01*
X85151296Y-119319500D01*
X85035857Y-119334696D01*
X85035848Y-119334699D01*
X84892205Y-119394198D01*
X84768851Y-119488851D01*
X84674198Y-119612205D01*
X84614699Y-119755848D01*
X84614698Y-119755850D01*
X84599500Y-119871298D01*
X84599500Y-121268703D01*
X84614696Y-121384142D01*
X84614699Y-121384151D01*
X84674200Y-121527798D01*
X84768851Y-121651149D01*
X84892202Y-121745800D01*
X85035849Y-121805301D01*
X85151299Y-121820500D01*
X85948700Y-121820499D01*
X85948703Y-121820499D01*
X86064142Y-121805303D01*
X86064146Y-121805301D01*
X86064151Y-121805301D01*
X86207798Y-121745800D01*
X86331149Y-121651149D01*
X86425800Y-121527798D01*
X86485301Y-121384151D01*
X86500500Y-121268701D01*
X86500499Y-120661517D01*
X86520183Y-120594479D01*
X86536813Y-120573842D01*
X87373838Y-119736819D01*
X87435161Y-119703334D01*
X87461519Y-119700500D01*
X87780591Y-119700500D01*
X87847630Y-119720185D01*
X87893385Y-119772989D01*
X87903530Y-119840684D01*
X87899500Y-119871296D01*
X87899500Y-121268703D01*
X87914696Y-121384142D01*
X87914699Y-121384151D01*
X87974200Y-121527798D01*
X88068851Y-121651149D01*
X88192202Y-121745800D01*
X88335849Y-121805301D01*
X88451299Y-121820500D01*
X89248700Y-121820499D01*
X89248703Y-121820499D01*
X89364142Y-121805303D01*
X89364146Y-121805301D01*
X89364151Y-121805301D01*
X89507798Y-121745800D01*
X89631149Y-121651149D01*
X89725800Y-121527798D01*
X89785301Y-121384151D01*
X89800500Y-121268701D01*
X89800499Y-119871300D01*
X89800498Y-119871296D01*
X89796469Y-119840684D01*
X89807235Y-119771649D01*
X89853616Y-119719393D01*
X89919408Y-119700500D01*
X93428481Y-119700500D01*
X93495520Y-119720185D01*
X93516162Y-119736819D01*
X94253181Y-120473838D01*
X94286666Y-120535161D01*
X94289500Y-120561519D01*
X94289500Y-121168703D01*
X94304696Y-121284142D01*
X94304699Y-121284151D01*
X94346120Y-121384151D01*
X94364200Y-121427798D01*
X94458851Y-121551149D01*
X94582202Y-121645800D01*
X94725849Y-121705301D01*
X94841299Y-121720500D01*
X95638700Y-121720499D01*
X95638703Y-121720499D01*
X95754142Y-121705303D01*
X95754146Y-121705301D01*
X95754151Y-121705301D01*
X95897798Y-121645800D01*
X96021149Y-121551149D01*
X96115800Y-121427798D01*
X96175301Y-121284151D01*
X96190500Y-121168701D01*
X96190499Y-120143499D01*
X96210183Y-120076461D01*
X96262987Y-120030706D01*
X96314499Y-120019500D01*
X97188903Y-120019500D01*
X97255942Y-120039185D01*
X97276584Y-120055819D01*
X97553181Y-120332416D01*
X97586666Y-120393739D01*
X97589500Y-120420097D01*
X97589500Y-121168703D01*
X97604696Y-121284142D01*
X97604699Y-121284151D01*
X97646120Y-121384151D01*
X97664200Y-121427798D01*
X97758851Y-121551149D01*
X97882202Y-121645800D01*
X98025849Y-121705301D01*
X98141299Y-121720500D01*
X98938700Y-121720499D01*
X98938703Y-121720499D01*
X99054142Y-121705303D01*
X99054146Y-121705301D01*
X99054151Y-121705301D01*
X99197798Y-121645800D01*
X99321149Y-121551149D01*
X99415800Y-121427798D01*
X99475301Y-121284151D01*
X99490500Y-121168701D01*
X99490499Y-119771300D01*
X99490499Y-119771296D01*
X99475303Y-119655857D01*
X99475301Y-119655852D01*
X99475301Y-119655849D01*
X99415800Y-119512202D01*
X99321149Y-119388851D01*
X99197798Y-119294200D01*
X99197794Y-119294198D01*
X99054151Y-119234699D01*
X99054149Y-119234698D01*
X98938702Y-119219500D01*
X98190097Y-119219500D01*
X98160656Y-119210855D01*
X98130670Y-119204332D01*
X98125654Y-119200577D01*
X98123058Y-119199815D01*
X98102416Y-119183181D01*
X97976590Y-119057355D01*
X97976588Y-119057352D01*
X97857717Y-118938481D01*
X97857712Y-118938477D01*
X97740847Y-118871006D01*
X97740845Y-118871004D01*
X97720787Y-118859424D01*
X97720786Y-118859423D01*
X97720785Y-118859423D01*
X97568057Y-118818499D01*
X97409943Y-118818499D01*
X97402347Y-118818499D01*
X97402331Y-118818500D01*
X95519097Y-118818500D01*
X95452058Y-118798815D01*
X95431416Y-118782181D01*
X94207590Y-117558355D01*
X94207588Y-117558352D01*
X94088717Y-117439481D01*
X94088716Y-117439480D01*
X94001904Y-117389360D01*
X94001904Y-117389359D01*
X94001900Y-117389358D01*
X93951785Y-117360423D01*
X93799057Y-117319499D01*
X93640943Y-117319499D01*
X93633347Y-117319499D01*
X93633331Y-117319500D01*
X88100098Y-117319500D01*
X88070657Y-117310855D01*
X88040671Y-117304332D01*
X88035655Y-117300577D01*
X88033059Y-117299815D01*
X88012417Y-117283181D01*
X87882949Y-117153713D01*
X103449500Y-117153713D01*
X103449500Y-117366287D01*
X103459534Y-117429644D01*
X103482753Y-117576239D01*
X103548444Y-117778414D01*
X103644951Y-117967820D01*
X103769890Y-118139786D01*
X103883430Y-118253326D01*
X103916915Y-118314649D01*
X103911931Y-118384341D01*
X103870059Y-118440274D01*
X103839083Y-118457189D01*
X103707669Y-118506203D01*
X103707664Y-118506206D01*
X103592455Y-118592452D01*
X103592452Y-118592455D01*
X103506206Y-118707664D01*
X103506202Y-118707671D01*
X103455908Y-118842517D01*
X103449501Y-118902116D01*
X103449501Y-118902123D01*
X103449500Y-118902135D01*
X103449500Y-120697870D01*
X103449501Y-120697876D01*
X103455908Y-120757483D01*
X103506202Y-120892328D01*
X103506206Y-120892335D01*
X103592452Y-121007544D01*
X103592455Y-121007547D01*
X103707664Y-121093793D01*
X103707671Y-121093797D01*
X103842517Y-121144091D01*
X103842516Y-121144091D01*
X103849444Y-121144835D01*
X103902127Y-121150500D01*
X105697872Y-121150499D01*
X105741241Y-121145837D01*
X106802000Y-121145837D01*
X106802000Y-121374162D01*
X106837715Y-121599660D01*
X106908270Y-121816803D01*
X106999786Y-121996412D01*
X107011921Y-122020228D01*
X107146121Y-122204937D01*
X107307563Y-122366379D01*
X107492272Y-122500579D01*
X107588384Y-122549550D01*
X107695696Y-122604229D01*
X107695698Y-122604229D01*
X107695701Y-122604231D01*
X107812092Y-122642049D01*
X107912839Y-122674784D01*
X108138338Y-122710500D01*
X108138343Y-122710500D01*
X109666662Y-122710500D01*
X109892160Y-122674784D01*
X110109299Y-122604231D01*
X110312728Y-122500579D01*
X110497437Y-122366379D01*
X110658879Y-122204937D01*
X110793079Y-122020228D01*
X110896731Y-121816799D01*
X110967284Y-121599660D01*
X111003000Y-121374162D01*
X111003000Y-121145837D01*
X119302000Y-121145837D01*
X119302000Y-121374162D01*
X119337715Y-121599660D01*
X119408270Y-121816803D01*
X119499786Y-121996412D01*
X119511921Y-122020228D01*
X119646121Y-122204937D01*
X119807563Y-122366379D01*
X119992272Y-122500579D01*
X120088384Y-122549550D01*
X120195696Y-122604229D01*
X120195698Y-122604229D01*
X120195701Y-122604231D01*
X120312092Y-122642049D01*
X120412839Y-122674784D01*
X120638338Y-122710500D01*
X120638343Y-122710500D01*
X122166662Y-122710500D01*
X122392160Y-122674784D01*
X122609299Y-122604231D01*
X122812728Y-122500579D01*
X122997437Y-122366379D01*
X123158879Y-122204937D01*
X123293079Y-122020228D01*
X123396731Y-121816799D01*
X123467284Y-121599660D01*
X123503000Y-121374162D01*
X123503000Y-121145837D01*
X123467284Y-120920339D01*
X123396729Y-120703196D01*
X123330817Y-120573837D01*
X123293079Y-120499772D01*
X123158879Y-120315063D01*
X122997437Y-120153621D01*
X122812728Y-120019421D01*
X122609303Y-119915770D01*
X122392160Y-119845215D01*
X122166662Y-119809500D01*
X122166657Y-119809500D01*
X120638343Y-119809500D01*
X120638338Y-119809500D01*
X120412839Y-119845215D01*
X120195696Y-119915770D01*
X119992271Y-120019421D01*
X119807561Y-120153622D01*
X119646122Y-120315061D01*
X119511921Y-120499771D01*
X119408270Y-120703196D01*
X119337715Y-120920339D01*
X119302000Y-121145837D01*
X111003000Y-121145837D01*
X110967284Y-120920339D01*
X110896729Y-120703196D01*
X110830817Y-120573837D01*
X110793079Y-120499772D01*
X110658879Y-120315063D01*
X110497437Y-120153621D01*
X110312728Y-120019421D01*
X110109303Y-119915770D01*
X109892160Y-119845215D01*
X109666662Y-119809500D01*
X109666657Y-119809500D01*
X108138343Y-119809500D01*
X108138338Y-119809500D01*
X107912839Y-119845215D01*
X107695696Y-119915770D01*
X107492271Y-120019421D01*
X107307561Y-120153622D01*
X107146122Y-120315061D01*
X107011921Y-120499771D01*
X106908270Y-120703196D01*
X106837715Y-120920339D01*
X106802000Y-121145837D01*
X105741241Y-121145837D01*
X105757483Y-121144091D01*
X105892331Y-121093796D01*
X106007546Y-121007546D01*
X106093796Y-120892331D01*
X106144091Y-120757483D01*
X106150500Y-120697873D01*
X106150499Y-119235777D01*
X129199500Y-119235777D01*
X129199500Y-121864208D01*
X129199501Y-121864223D01*
X129209904Y-121996413D01*
X129209905Y-121996420D01*
X129264902Y-122214678D01*
X129264903Y-122214681D01*
X129357991Y-122419622D01*
X129357997Y-122419632D01*
X129486174Y-122604645D01*
X129486178Y-122604650D01*
X129486181Y-122604654D01*
X129645346Y-122763819D01*
X129645350Y-122763822D01*
X129645354Y-122763825D01*
X129784603Y-122860297D01*
X129830374Y-122892007D01*
X130035317Y-122985096D01*
X130035321Y-122985097D01*
X130253579Y-123040094D01*
X130253581Y-123040094D01*
X130253588Y-123040096D01*
X130385783Y-123050500D01*
X132014216Y-123050499D01*
X132146412Y-123040096D01*
X132364683Y-122985096D01*
X132569626Y-122892007D01*
X132754654Y-122763819D01*
X132913819Y-122604654D01*
X133042007Y-122419626D01*
X133135096Y-122214683D01*
X133190096Y-121996412D01*
X133200500Y-121864217D01*
X133200499Y-119235784D01*
X133200498Y-119235777D01*
X137999500Y-119235777D01*
X137999500Y-121864208D01*
X137999501Y-121864223D01*
X138009904Y-121996413D01*
X138009905Y-121996420D01*
X138064902Y-122214678D01*
X138064903Y-122214681D01*
X138157991Y-122419622D01*
X138157997Y-122419632D01*
X138286174Y-122604645D01*
X138286178Y-122604650D01*
X138286181Y-122604654D01*
X138445346Y-122763819D01*
X138445350Y-122763822D01*
X138445354Y-122763825D01*
X138584603Y-122860297D01*
X138630374Y-122892007D01*
X138835317Y-122985096D01*
X138835321Y-122985097D01*
X139053579Y-123040094D01*
X139053581Y-123040094D01*
X139053588Y-123040096D01*
X139185783Y-123050500D01*
X140814216Y-123050499D01*
X140946412Y-123040096D01*
X141164683Y-122985096D01*
X141369626Y-122892007D01*
X141554654Y-122763819D01*
X141713819Y-122604654D01*
X141842007Y-122419626D01*
X141935096Y-122214683D01*
X141990096Y-121996412D01*
X142000500Y-121864217D01*
X142000499Y-119235784D01*
X141990096Y-119103588D01*
X141978445Y-119057352D01*
X141935097Y-118885321D01*
X141935096Y-118885318D01*
X141928595Y-118871006D01*
X141842007Y-118680374D01*
X141810297Y-118634603D01*
X141713825Y-118495354D01*
X141713822Y-118495350D01*
X141713819Y-118495346D01*
X141554654Y-118336181D01*
X141554650Y-118336178D01*
X141554645Y-118336174D01*
X141369632Y-118207997D01*
X141369630Y-118207995D01*
X141369626Y-118207993D01*
X141219458Y-118139784D01*
X141164681Y-118114903D01*
X141164678Y-118114902D01*
X140946420Y-118059905D01*
X140946413Y-118059904D01*
X140902347Y-118056436D01*
X140814217Y-118049500D01*
X140814215Y-118049500D01*
X139185791Y-118049500D01*
X139185776Y-118049501D01*
X139053586Y-118059904D01*
X139053579Y-118059905D01*
X138835321Y-118114902D01*
X138835318Y-118114903D01*
X138630377Y-118207991D01*
X138630367Y-118207997D01*
X138445354Y-118336174D01*
X138445342Y-118336184D01*
X138286184Y-118495342D01*
X138286174Y-118495354D01*
X138157997Y-118680367D01*
X138157991Y-118680377D01*
X138064903Y-118885318D01*
X138064902Y-118885321D01*
X138009905Y-119103579D01*
X138009904Y-119103586D01*
X137999500Y-119235777D01*
X133200498Y-119235777D01*
X133190096Y-119103588D01*
X133178445Y-119057352D01*
X133135097Y-118885321D01*
X133135096Y-118885318D01*
X133128595Y-118871006D01*
X133042007Y-118680374D01*
X133010297Y-118634603D01*
X132913825Y-118495354D01*
X132913822Y-118495350D01*
X132913819Y-118495346D01*
X132754654Y-118336181D01*
X132754650Y-118336178D01*
X132754645Y-118336174D01*
X132569632Y-118207997D01*
X132569630Y-118207995D01*
X132569626Y-118207993D01*
X132419458Y-118139784D01*
X132364681Y-118114903D01*
X132364678Y-118114902D01*
X132146420Y-118059905D01*
X132146413Y-118059904D01*
X132102347Y-118056436D01*
X132014217Y-118049500D01*
X132014215Y-118049500D01*
X130385791Y-118049500D01*
X130385776Y-118049501D01*
X130253586Y-118059904D01*
X130253579Y-118059905D01*
X130035321Y-118114902D01*
X130035318Y-118114903D01*
X129830377Y-118207991D01*
X129830367Y-118207997D01*
X129645354Y-118336174D01*
X129645342Y-118336184D01*
X129486184Y-118495342D01*
X129486174Y-118495354D01*
X129357997Y-118680367D01*
X129357991Y-118680377D01*
X129264903Y-118885318D01*
X129264902Y-118885321D01*
X129209905Y-119103579D01*
X129209904Y-119103586D01*
X129199500Y-119235777D01*
X106150499Y-119235777D01*
X106150499Y-118902128D01*
X106144091Y-118842517D01*
X106135133Y-118818500D01*
X106093797Y-118707671D01*
X106093793Y-118707664D01*
X106007547Y-118592455D01*
X106007544Y-118592452D01*
X105892335Y-118506206D01*
X105892328Y-118506202D01*
X105760917Y-118457189D01*
X105704983Y-118415318D01*
X105680566Y-118349853D01*
X105695418Y-118281580D01*
X105716563Y-118253332D01*
X105830104Y-118139792D01*
X105838531Y-118128194D01*
X105955048Y-117967820D01*
X105955047Y-117967820D01*
X105955051Y-117967816D01*
X106051557Y-117778412D01*
X106117246Y-117576243D01*
X106150500Y-117366287D01*
X106150500Y-117153713D01*
X106117246Y-116943757D01*
X106051557Y-116741588D01*
X105955051Y-116552184D01*
X105955049Y-116552181D01*
X105955048Y-116552179D01*
X105830109Y-116380213D01*
X105679786Y-116229890D01*
X105507815Y-116104948D01*
X105507814Y-116104947D01*
X105468205Y-116084765D01*
X105457142Y-116074316D01*
X105443297Y-116067994D01*
X105432255Y-116050812D01*
X105417409Y-116036791D01*
X105413167Y-116021111D01*
X105405523Y-116009216D01*
X105400500Y-115974281D01*
X105400500Y-115948627D01*
X105420185Y-115881588D01*
X105436819Y-115860946D01*
X107939069Y-113358696D01*
X107939077Y-113358686D01*
X108290520Y-113007246D01*
X108369577Y-112870314D01*
X108410501Y-112717587D01*
X108410501Y-112559472D01*
X108410501Y-112551877D01*
X108410500Y-112551859D01*
X108410500Y-110959765D01*
X108430185Y-110892726D01*
X108431398Y-110890874D01*
X108519390Y-110759185D01*
X108519390Y-110759184D01*
X108519394Y-110759179D01*
X108579737Y-110613497D01*
X108610500Y-110458842D01*
X108610500Y-110301158D01*
X108610500Y-110301155D01*
X108610499Y-110301153D01*
X108579738Y-110146510D01*
X108579737Y-110146503D01*
X108553747Y-110083757D01*
X108519397Y-110000827D01*
X108519390Y-110000814D01*
X108431789Y-109869711D01*
X108431786Y-109869707D01*
X108320292Y-109758213D01*
X108320288Y-109758210D01*
X108189185Y-109670609D01*
X108189172Y-109670602D01*
X108043501Y-109610264D01*
X108043489Y-109610261D01*
X107888845Y-109579500D01*
X107888842Y-109579500D01*
X107731158Y-109579500D01*
X107731155Y-109579500D01*
X107576510Y-109610261D01*
X107576498Y-109610264D01*
X107430827Y-109670602D01*
X107430814Y-109670609D01*
X107299711Y-109758210D01*
X107299707Y-109758213D01*
X107188213Y-109869707D01*
X107188210Y-109869711D01*
X107100609Y-110000814D01*
X107100602Y-110000827D01*
X107040264Y-110146498D01*
X107040261Y-110146510D01*
X107009500Y-110301153D01*
X107009500Y-110458846D01*
X107040261Y-110613489D01*
X107040264Y-110613501D01*
X107100602Y-110759172D01*
X107100609Y-110759185D01*
X107188602Y-110890874D01*
X107209480Y-110957551D01*
X107209500Y-110959765D01*
X107209500Y-112338432D01*
X107200854Y-112367874D01*
X107194332Y-112397858D01*
X107190577Y-112402873D01*
X107189815Y-112405471D01*
X107173185Y-112426108D01*
X107031284Y-112568011D01*
X107031283Y-112568011D01*
X107031282Y-112568012D01*
X104431286Y-115168008D01*
X104319481Y-115279812D01*
X104319479Y-115279815D01*
X104269361Y-115366624D01*
X104269359Y-115366626D01*
X104240425Y-115416739D01*
X104240424Y-115416740D01*
X104240423Y-115416745D01*
X104199499Y-115569473D01*
X104199499Y-115569475D01*
X104199499Y-115737576D01*
X104199500Y-115737589D01*
X104199500Y-115974281D01*
X104179815Y-116041320D01*
X104131795Y-116084765D01*
X104092185Y-116104947D01*
X104092184Y-116104948D01*
X103920213Y-116229890D01*
X103769890Y-116380213D01*
X103644951Y-116552179D01*
X103548444Y-116741585D01*
X103482753Y-116943760D01*
X103480685Y-116956818D01*
X103449500Y-117153713D01*
X87882949Y-117153713D01*
X86536818Y-115807582D01*
X86503333Y-115746259D01*
X86500499Y-115719901D01*
X86500499Y-114971296D01*
X86485303Y-114855857D01*
X86485301Y-114855850D01*
X86485301Y-114855849D01*
X86425800Y-114712202D01*
X86331149Y-114588851D01*
X86207798Y-114494200D01*
X86207794Y-114494198D01*
X86064151Y-114434699D01*
X86064149Y-114434698D01*
X85948701Y-114419500D01*
X85151296Y-114419500D01*
X85035857Y-114434696D01*
X85035848Y-114434699D01*
X84892205Y-114494198D01*
X84768851Y-114588851D01*
X84674198Y-114712205D01*
X84614699Y-114855848D01*
X84614698Y-114855850D01*
X84599500Y-114971298D01*
X81104094Y-114971298D01*
X81105117Y-110293713D01*
X93889500Y-110293713D01*
X93889500Y-110506287D01*
X93891421Y-110518414D01*
X93906480Y-110613497D01*
X93922754Y-110716243D01*
X93987844Y-110916569D01*
X93988444Y-110918414D01*
X94084951Y-111107820D01*
X94209890Y-111279786D01*
X94360213Y-111430109D01*
X94532184Y-111555051D01*
X94532184Y-111555052D01*
X94571793Y-111575233D01*
X94622590Y-111623206D01*
X94639500Y-111685718D01*
X94639500Y-114289527D01*
X94619815Y-114356566D01*
X94587336Y-114387541D01*
X94588650Y-114389253D01*
X94582204Y-114394199D01*
X94582202Y-114394200D01*
X94529423Y-114434699D01*
X94458851Y-114488851D01*
X94364198Y-114612205D01*
X94304699Y-114755848D01*
X94304698Y-114755850D01*
X94289500Y-114871298D01*
X94289500Y-116268703D01*
X94304696Y-116384142D01*
X94304699Y-116384151D01*
X94346120Y-116484151D01*
X94364200Y-116527798D01*
X94458851Y-116651149D01*
X94582202Y-116745800D01*
X94725849Y-116805301D01*
X94841299Y-116820500D01*
X95638700Y-116820499D01*
X95638703Y-116820499D01*
X95754142Y-116805303D01*
X95754146Y-116805301D01*
X95754151Y-116805301D01*
X95897798Y-116745800D01*
X96021149Y-116651149D01*
X96115800Y-116527798D01*
X96175301Y-116384151D01*
X96190500Y-116268701D01*
X96190499Y-114871300D01*
X96190499Y-114871298D01*
X96190499Y-114871296D01*
X96175303Y-114755857D01*
X96175301Y-114755850D01*
X96175301Y-114755849D01*
X96115800Y-114612202D01*
X96021149Y-114488851D01*
X95897798Y-114394200D01*
X95897795Y-114394199D01*
X95891350Y-114389253D01*
X95893061Y-114387022D01*
X95854271Y-114346321D01*
X95840500Y-114289527D01*
X95840500Y-111685718D01*
X95860185Y-111618679D01*
X95908207Y-111575233D01*
X95947815Y-111555052D01*
X95947815Y-111555051D01*
X95947816Y-111555051D01*
X96119792Y-111430104D01*
X96233329Y-111316566D01*
X96294648Y-111283084D01*
X96364340Y-111288068D01*
X96420274Y-111329939D01*
X96437189Y-111360917D01*
X96486202Y-111492328D01*
X96486206Y-111492335D01*
X96572452Y-111607544D01*
X96572455Y-111607547D01*
X96687664Y-111693793D01*
X96687671Y-111693797D01*
X96822517Y-111744091D01*
X96822516Y-111744091D01*
X96829444Y-111744835D01*
X96882127Y-111750500D01*
X98677872Y-111750499D01*
X98737483Y-111744091D01*
X98872331Y-111693796D01*
X98987546Y-111607546D01*
X99073796Y-111492331D01*
X99124091Y-111357483D01*
X99130500Y-111297873D01*
X99130500Y-111124500D01*
X99150185Y-111057461D01*
X99202989Y-111011706D01*
X99254500Y-111000500D01*
X104213331Y-111000500D01*
X104213347Y-111000501D01*
X104220943Y-111000501D01*
X104379054Y-111000501D01*
X104379057Y-111000501D01*
X104531785Y-110959577D01*
X104581904Y-110930639D01*
X104668716Y-110880520D01*
X104780520Y-110768716D01*
X104780520Y-110768714D01*
X104790728Y-110758507D01*
X104790729Y-110758504D01*
X109745659Y-105803575D01*
X114537914Y-105803575D01*
X114537914Y-107599310D01*
X114537915Y-107599316D01*
X114544322Y-107658923D01*
X114594616Y-107793768D01*
X114594620Y-107793775D01*
X114680866Y-107908984D01*
X114680869Y-107908987D01*
X114796078Y-107995233D01*
X114796085Y-107995237D01*
X114930931Y-108045531D01*
X114930930Y-108045531D01*
X114937858Y-108046275D01*
X114990541Y-108051940D01*
X116786286Y-108051939D01*
X116845897Y-108045531D01*
X116980745Y-107995236D01*
X117095960Y-107908986D01*
X117182210Y-107793771D01*
X117231224Y-107662356D01*
X117273095Y-107606424D01*
X117338559Y-107582006D01*
X117406832Y-107596857D01*
X117435087Y-107618009D01*
X117548627Y-107731549D01*
X117720593Y-107856488D01*
X117720595Y-107856489D01*
X117720598Y-107856491D01*
X117910002Y-107952997D01*
X118112171Y-108018686D01*
X118322127Y-108051940D01*
X118322128Y-108051940D01*
X118534700Y-108051940D01*
X118534701Y-108051940D01*
X118744657Y-108018686D01*
X118946826Y-107952997D01*
X119136230Y-107856491D01*
X119222552Y-107793775D01*
X119308200Y-107731549D01*
X119308202Y-107731546D01*
X119308206Y-107731544D01*
X119458518Y-107581232D01*
X119458520Y-107581228D01*
X119458523Y-107581226D01*
X119583462Y-107409260D01*
X119583461Y-107409260D01*
X119583465Y-107409256D01*
X119679971Y-107219852D01*
X119745660Y-107017683D01*
X119778914Y-106807727D01*
X119778914Y-106595153D01*
X122157914Y-106595153D01*
X122157914Y-106807726D01*
X122191167Y-107017679D01*
X122256858Y-107219854D01*
X122353365Y-107409260D01*
X122478304Y-107581226D01*
X122628627Y-107731549D01*
X122800593Y-107856488D01*
X122800595Y-107856489D01*
X122800598Y-107856491D01*
X122990002Y-107952997D01*
X123192171Y-108018686D01*
X123402127Y-108051940D01*
X123402128Y-108051940D01*
X123614700Y-108051940D01*
X123614701Y-108051940D01*
X123824657Y-108018686D01*
X124026826Y-107952997D01*
X124216230Y-107856491D01*
X124302552Y-107793775D01*
X124388200Y-107731549D01*
X124388202Y-107731546D01*
X124388206Y-107731544D01*
X124538518Y-107581232D01*
X124538520Y-107581228D01*
X124538523Y-107581226D01*
X124663462Y-107409260D01*
X124663461Y-107409260D01*
X124663465Y-107409256D01*
X124759971Y-107219852D01*
X124825660Y-107017683D01*
X124858914Y-106807727D01*
X124858914Y-106595153D01*
X124825660Y-106385197D01*
X124759971Y-106183028D01*
X124663465Y-105993624D01*
X124663463Y-105993621D01*
X124663462Y-105993619D01*
X124538523Y-105821653D01*
X124388200Y-105671330D01*
X124216234Y-105546391D01*
X124026828Y-105449884D01*
X124026827Y-105449883D01*
X124026826Y-105449883D01*
X123824657Y-105384194D01*
X123824655Y-105384193D01*
X123824654Y-105384193D01*
X123663371Y-105358648D01*
X123614701Y-105350940D01*
X123402127Y-105350940D01*
X123353456Y-105358648D01*
X123192174Y-105384193D01*
X122989999Y-105449884D01*
X122800593Y-105546391D01*
X122628627Y-105671330D01*
X122478304Y-105821653D01*
X122353365Y-105993619D01*
X122256858Y-106183025D01*
X122191167Y-106385200D01*
X122157914Y-106595153D01*
X119778914Y-106595153D01*
X119745660Y-106385197D01*
X119679971Y-106183028D01*
X119583465Y-105993624D01*
X119583463Y-105993621D01*
X119583462Y-105993619D01*
X119458523Y-105821653D01*
X119308200Y-105671330D01*
X119136234Y-105546391D01*
X118946828Y-105449884D01*
X118946827Y-105449883D01*
X118946826Y-105449883D01*
X118744657Y-105384194D01*
X118744655Y-105384193D01*
X118744654Y-105384193D01*
X118583371Y-105358648D01*
X118534701Y-105350940D01*
X118322127Y-105350940D01*
X118273456Y-105358648D01*
X118112174Y-105384193D01*
X117909999Y-105449884D01*
X117720593Y-105546391D01*
X117548629Y-105671329D01*
X117435087Y-105784871D01*
X117373764Y-105818355D01*
X117304072Y-105813371D01*
X117248139Y-105771499D01*
X117231224Y-105740522D01*
X117182211Y-105609111D01*
X117182207Y-105609104D01*
X117095961Y-105493895D01*
X117095958Y-105493892D01*
X116980749Y-105407646D01*
X116980742Y-105407642D01*
X116845896Y-105357348D01*
X116845897Y-105357348D01*
X116786297Y-105350941D01*
X116786295Y-105350940D01*
X116786287Y-105350940D01*
X116786278Y-105350940D01*
X114990543Y-105350940D01*
X114990537Y-105350941D01*
X114930930Y-105357348D01*
X114796085Y-105407642D01*
X114796078Y-105407646D01*
X114680869Y-105493892D01*
X114680866Y-105493895D01*
X114594620Y-105609104D01*
X114594616Y-105609111D01*
X114544322Y-105743957D01*
X114537915Y-105803556D01*
X114537914Y-105803575D01*
X109745659Y-105803575D01*
X119572416Y-95976819D01*
X119633739Y-95943334D01*
X119660097Y-95940500D01*
X122724510Y-95940500D01*
X122791549Y-95960185D01*
X122834994Y-96008205D01*
X122853363Y-96044256D01*
X122853366Y-96044260D01*
X122853370Y-96044266D01*
X122978304Y-96216226D01*
X123128627Y-96366549D01*
X123300596Y-96491490D01*
X123309360Y-96495956D01*
X123360156Y-96543931D01*
X123376950Y-96611752D01*
X123354412Y-96677887D01*
X123309360Y-96716924D01*
X123300596Y-96721389D01*
X123128627Y-96846330D01*
X122978304Y-96996653D01*
X122853365Y-97168619D01*
X122756858Y-97358025D01*
X122691167Y-97560200D01*
X122657914Y-97770153D01*
X122657914Y-97982726D01*
X122691167Y-98192679D01*
X122756858Y-98394854D01*
X122853365Y-98584260D01*
X122978304Y-98756226D01*
X123128627Y-98906549D01*
X123300596Y-99031490D01*
X123309360Y-99035956D01*
X123360156Y-99083931D01*
X123376950Y-99151752D01*
X123354412Y-99217887D01*
X123309360Y-99256924D01*
X123300596Y-99261389D01*
X123128627Y-99386330D01*
X122978304Y-99536653D01*
X122853365Y-99708619D01*
X122756858Y-99898025D01*
X122691167Y-100100200D01*
X122657914Y-100310153D01*
X122657914Y-100522726D01*
X122691167Y-100732679D01*
X122756858Y-100934854D01*
X122853365Y-101124260D01*
X122978304Y-101296226D01*
X123128627Y-101446549D01*
X123300596Y-101571490D01*
X123309360Y-101575956D01*
X123360156Y-101623931D01*
X123376950Y-101691752D01*
X123354412Y-101757887D01*
X123309360Y-101796924D01*
X123300596Y-101801389D01*
X123128627Y-101926330D01*
X122978304Y-102076653D01*
X122853365Y-102248619D01*
X122756858Y-102438025D01*
X122691167Y-102640200D01*
X122657914Y-102850153D01*
X122657914Y-103062726D01*
X122691167Y-103272679D01*
X122756858Y-103474854D01*
X122853365Y-103664260D01*
X122978304Y-103836226D01*
X123128627Y-103986549D01*
X123300593Y-104111488D01*
X123300595Y-104111489D01*
X123300598Y-104111491D01*
X123490002Y-104207997D01*
X123692171Y-104273686D01*
X123902127Y-104306940D01*
X123902128Y-104306940D01*
X124114700Y-104306940D01*
X124114701Y-104306940D01*
X124324657Y-104273686D01*
X124526826Y-104207997D01*
X124716230Y-104111491D01*
X124738203Y-104095526D01*
X124888200Y-103986549D01*
X124888202Y-103986546D01*
X124888206Y-103986544D01*
X125038518Y-103836232D01*
X125038520Y-103836228D01*
X125038523Y-103836226D01*
X125097075Y-103755633D01*
X125163465Y-103664256D01*
X125163763Y-103663670D01*
X125183649Y-103624645D01*
X125231623Y-103573849D01*
X125294133Y-103556940D01*
X137722695Y-103556940D01*
X137789734Y-103576625D01*
X137833179Y-103624645D01*
X137853361Y-103664254D01*
X137853362Y-103664255D01*
X137978304Y-103836226D01*
X138128627Y-103986549D01*
X138300598Y-104111491D01*
X138300598Y-104111492D01*
X138340207Y-104131673D01*
X138391004Y-104179646D01*
X138407914Y-104242158D01*
X138407914Y-108464353D01*
X138407913Y-108464357D01*
X138407913Y-108525502D01*
X138388227Y-108592541D01*
X138335423Y-108638295D01*
X138335412Y-108638296D01*
X138283913Y-108649500D01*
X137027129Y-108649500D01*
X137027123Y-108649501D01*
X136967516Y-108655908D01*
X136832671Y-108706202D01*
X136832664Y-108706206D01*
X136717455Y-108792452D01*
X136717452Y-108792455D01*
X136631206Y-108907664D01*
X136631202Y-108907671D01*
X136580908Y-109042517D01*
X136574501Y-109102116D01*
X136574500Y-109102135D01*
X136574500Y-110897870D01*
X136574501Y-110897876D01*
X136580908Y-110957483D01*
X136631202Y-111092328D01*
X136631206Y-111092335D01*
X136678154Y-111155048D01*
X136717454Y-111207546D01*
X136817790Y-111282657D01*
X136859660Y-111338590D01*
X136864644Y-111408282D01*
X136831159Y-111469604D01*
X136124202Y-112176561D01*
X136062879Y-112210046D01*
X135998203Y-112206811D01*
X135973584Y-112198812D01*
X135927952Y-112183985D01*
X135819086Y-112166742D01*
X135710222Y-112149500D01*
X135489778Y-112149500D01*
X135417201Y-112160995D01*
X135272047Y-112183985D01*
X135062396Y-112252103D01*
X135062393Y-112252104D01*
X134865974Y-112352187D01*
X134687641Y-112481752D01*
X134687636Y-112481756D01*
X134531756Y-112637636D01*
X134531752Y-112637641D01*
X134450318Y-112749727D01*
X134394989Y-112792393D01*
X134325375Y-112798372D01*
X134263580Y-112765767D01*
X134249682Y-112749727D01*
X134168247Y-112637641D01*
X134168243Y-112637636D01*
X134012363Y-112481756D01*
X134012358Y-112481752D01*
X133834025Y-112352187D01*
X133834024Y-112352186D01*
X133834022Y-112352185D01*
X133771096Y-112320122D01*
X133637606Y-112252104D01*
X133637603Y-112252103D01*
X133427952Y-112183985D01*
X133319086Y-112166742D01*
X133210222Y-112149500D01*
X132989778Y-112149500D01*
X132917201Y-112160995D01*
X132772047Y-112183985D01*
X132562396Y-112252103D01*
X132562393Y-112252104D01*
X132365974Y-112352187D01*
X132187641Y-112481752D01*
X132187636Y-112481756D01*
X132031756Y-112637636D01*
X132031752Y-112637641D01*
X131902187Y-112815974D01*
X131802104Y-113012393D01*
X131802103Y-113012396D01*
X131733985Y-113222047D01*
X131699500Y-113439778D01*
X131699500Y-113660221D01*
X131733985Y-113877952D01*
X131802103Y-114087603D01*
X131802104Y-114087606D01*
X131902187Y-114284025D01*
X132031752Y-114462358D01*
X132031756Y-114462363D01*
X132187636Y-114618243D01*
X132187641Y-114618247D01*
X132316965Y-114712205D01*
X132365978Y-114747815D01*
X132494375Y-114813237D01*
X132562393Y-114847895D01*
X132562396Y-114847896D01*
X132634416Y-114871296D01*
X132772049Y-114916015D01*
X132989778Y-114950500D01*
X132989779Y-114950500D01*
X133210221Y-114950500D01*
X133210222Y-114950500D01*
X133427951Y-114916015D01*
X133637606Y-114847895D01*
X133834022Y-114747815D01*
X134012365Y-114618242D01*
X134168242Y-114462365D01*
X134249682Y-114350270D01*
X134305011Y-114307606D01*
X134374624Y-114301627D01*
X134436420Y-114334232D01*
X134450313Y-114350265D01*
X134511657Y-114434698D01*
X134531758Y-114462365D01*
X134687636Y-114618243D01*
X134687641Y-114618247D01*
X134816965Y-114712205D01*
X134865978Y-114747815D01*
X134994375Y-114813237D01*
X135062393Y-114847895D01*
X135062396Y-114847896D01*
X135134416Y-114871296D01*
X135272049Y-114916015D01*
X135489778Y-114950500D01*
X135489779Y-114950500D01*
X135710221Y-114950500D01*
X135710222Y-114950500D01*
X135927951Y-114916015D01*
X136137606Y-114847895D01*
X136334022Y-114747815D01*
X136512365Y-114618242D01*
X136668242Y-114462365D01*
X136797815Y-114284022D01*
X136897895Y-114087606D01*
X136966015Y-113877951D01*
X137000500Y-113660222D01*
X137000500Y-113439778D01*
X136966015Y-113222049D01*
X136943188Y-113151794D01*
X136941193Y-113081953D01*
X136973436Y-113025797D01*
X138405520Y-111593716D01*
X138484577Y-111456784D01*
X138488429Y-111442406D01*
X138524793Y-111382746D01*
X138587640Y-111352216D01*
X138608204Y-111350499D01*
X138822871Y-111350499D01*
X138822872Y-111350499D01*
X138882483Y-111344091D01*
X139017331Y-111293796D01*
X139132546Y-111207546D01*
X139218796Y-111092331D01*
X139267810Y-110960916D01*
X139309681Y-110904984D01*
X139375145Y-110880566D01*
X139443418Y-110895417D01*
X139471673Y-110916569D01*
X139585213Y-111030109D01*
X139757179Y-111155048D01*
X139757181Y-111155049D01*
X139757184Y-111155051D01*
X139946588Y-111251557D01*
X140148757Y-111317246D01*
X140358713Y-111350500D01*
X140358714Y-111350500D01*
X140571286Y-111350500D01*
X140571287Y-111350500D01*
X140781243Y-111317246D01*
X140983412Y-111251557D01*
X141172816Y-111155051D01*
X141214866Y-111124500D01*
X141344786Y-111030109D01*
X141344788Y-111030106D01*
X141344792Y-111030104D01*
X141495104Y-110879792D01*
X141495106Y-110879788D01*
X141495109Y-110879786D01*
X141620048Y-110707820D01*
X141620047Y-110707820D01*
X141620051Y-110707816D01*
X141716557Y-110518412D01*
X141782246Y-110316243D01*
X141815500Y-110106287D01*
X141815500Y-109893713D01*
X141782246Y-109683757D01*
X141716557Y-109481588D01*
X141620051Y-109292184D01*
X141620049Y-109292181D01*
X141620048Y-109292179D01*
X141495109Y-109120213D01*
X141344786Y-108969890D01*
X141172820Y-108844951D01*
X140983414Y-108748444D01*
X140983413Y-108748443D01*
X140983412Y-108748443D01*
X140781243Y-108682754D01*
X140781241Y-108682753D01*
X140781240Y-108682753D01*
X140619957Y-108657208D01*
X140571287Y-108649500D01*
X140358713Y-108649500D01*
X140330006Y-108654046D01*
X140148757Y-108682753D01*
X140106473Y-108696492D01*
X140036632Y-108698486D01*
X139980476Y-108666241D01*
X139645233Y-108330997D01*
X139611748Y-108269674D01*
X139608914Y-108243316D01*
X139608914Y-104242158D01*
X139628599Y-104175119D01*
X139676621Y-104131673D01*
X139716229Y-104111492D01*
X139716229Y-104111491D01*
X139716230Y-104111491D01*
X139807607Y-104045101D01*
X139888200Y-103986549D01*
X139888202Y-103986546D01*
X139888206Y-103986544D01*
X140038518Y-103836232D01*
X140038520Y-103836228D01*
X140038523Y-103836226D01*
X140163462Y-103664260D01*
X140163461Y-103664260D01*
X140163465Y-103664256D01*
X140259971Y-103474852D01*
X140325660Y-103272683D01*
X140358914Y-103062727D01*
X140358914Y-102850153D01*
X140325660Y-102640197D01*
X140259971Y-102438028D01*
X140163465Y-102248624D01*
X140163463Y-102248621D01*
X140163462Y-102248619D01*
X140038523Y-102076653D01*
X139888200Y-101926330D01*
X139716234Y-101801391D01*
X139715529Y-101801031D01*
X139707468Y-101796925D01*
X139656673Y-101748952D01*
X139639877Y-101681132D01*
X139662413Y-101614996D01*
X139707468Y-101575955D01*
X139716230Y-101571491D01*
X139738203Y-101555526D01*
X139888200Y-101446549D01*
X139888202Y-101446546D01*
X139888206Y-101446544D01*
X140038518Y-101296232D01*
X140038520Y-101296228D01*
X140038523Y-101296226D01*
X140163462Y-101124260D01*
X140163461Y-101124260D01*
X140163465Y-101124256D01*
X140259971Y-100934852D01*
X140325660Y-100732683D01*
X140358914Y-100522727D01*
X140358914Y-100310153D01*
X140325660Y-100100197D01*
X140259971Y-99898028D01*
X140163465Y-99708624D01*
X140163463Y-99708621D01*
X140163462Y-99708619D01*
X140038523Y-99536653D01*
X139888200Y-99386330D01*
X139716234Y-99261391D01*
X139715529Y-99261031D01*
X139707468Y-99256925D01*
X139656673Y-99208952D01*
X139639877Y-99141132D01*
X139662413Y-99074996D01*
X139707468Y-99035955D01*
X139716230Y-99031491D01*
X139738203Y-99015526D01*
X139888200Y-98906549D01*
X139888202Y-98906546D01*
X139888206Y-98906544D01*
X140038518Y-98756232D01*
X140038520Y-98756228D01*
X140038523Y-98756226D01*
X140163462Y-98584260D01*
X140163461Y-98584260D01*
X140163465Y-98584256D01*
X140259971Y-98394852D01*
X140325660Y-98192683D01*
X140358914Y-97982727D01*
X140358914Y-97770153D01*
X140325660Y-97560197D01*
X140259971Y-97358028D01*
X140163465Y-97168624D01*
X140163463Y-97168621D01*
X140163462Y-97168619D01*
X140038523Y-96996653D01*
X139888200Y-96846330D01*
X139716234Y-96721391D01*
X139715529Y-96721031D01*
X139707468Y-96716925D01*
X139656673Y-96668952D01*
X139639877Y-96601132D01*
X139662413Y-96534996D01*
X139707468Y-96495955D01*
X139716230Y-96491491D01*
X139738203Y-96475526D01*
X139888200Y-96366549D01*
X139888202Y-96366546D01*
X139888206Y-96366544D01*
X140038518Y-96216232D01*
X140038520Y-96216228D01*
X140038523Y-96216226D01*
X140163462Y-96044260D01*
X140163461Y-96044260D01*
X140163465Y-96044256D01*
X140259971Y-95854852D01*
X140325660Y-95652683D01*
X140358914Y-95442727D01*
X140358914Y-95230153D01*
X140325660Y-95020197D01*
X140259971Y-94818028D01*
X140163465Y-94628624D01*
X140163463Y-94628621D01*
X140163462Y-94628619D01*
X140038523Y-94456653D01*
X139888200Y-94306330D01*
X139716234Y-94181391D01*
X139715529Y-94181031D01*
X139707468Y-94176925D01*
X139656673Y-94128952D01*
X139639877Y-94061132D01*
X139662413Y-93994996D01*
X139707468Y-93955955D01*
X139716230Y-93951491D01*
X139738203Y-93935526D01*
X139888200Y-93826549D01*
X139888202Y-93826546D01*
X139888206Y-93826544D01*
X140038518Y-93676232D01*
X140038520Y-93676228D01*
X140038523Y-93676226D01*
X140152706Y-93519064D01*
X140163465Y-93504256D01*
X140259971Y-93314852D01*
X140325660Y-93112683D01*
X140358914Y-92902727D01*
X140358914Y-92690153D01*
X140325660Y-92480197D01*
X140259971Y-92278028D01*
X140163465Y-92088624D01*
X140163463Y-92088621D01*
X140163462Y-92088619D01*
X140038523Y-91916653D01*
X139888200Y-91766330D01*
X139716234Y-91641391D01*
X139715529Y-91641031D01*
X139707468Y-91636925D01*
X139656673Y-91588952D01*
X139639877Y-91521132D01*
X139662413Y-91454996D01*
X139707468Y-91415955D01*
X139716230Y-91411491D01*
X139738203Y-91395526D01*
X139888200Y-91286549D01*
X139888202Y-91286546D01*
X139888206Y-91286544D01*
X140038518Y-91136232D01*
X140038520Y-91136228D01*
X140038523Y-91136226D01*
X140163462Y-90964260D01*
X140163461Y-90964260D01*
X140163465Y-90964256D01*
X140259971Y-90774852D01*
X140325660Y-90572683D01*
X140358914Y-90362727D01*
X140358914Y-90150153D01*
X140325660Y-89940197D01*
X140259971Y-89738028D01*
X140163465Y-89548624D01*
X140163463Y-89548621D01*
X140163462Y-89548619D01*
X140038523Y-89376653D01*
X139888200Y-89226330D01*
X139716234Y-89101391D01*
X139715529Y-89101031D01*
X139707468Y-89096925D01*
X139656673Y-89048952D01*
X139639877Y-88981132D01*
X139662413Y-88914996D01*
X139707468Y-88875955D01*
X139716230Y-88871491D01*
X139738203Y-88855526D01*
X139888200Y-88746549D01*
X139888202Y-88746546D01*
X139888206Y-88746544D01*
X140038518Y-88596232D01*
X140038520Y-88596228D01*
X140038523Y-88596226D01*
X140163462Y-88424260D01*
X140163461Y-88424260D01*
X140163465Y-88424256D01*
X140259971Y-88234852D01*
X140325660Y-88032683D01*
X140358914Y-87822727D01*
X140358914Y-87610153D01*
X140325660Y-87400197D01*
X140259971Y-87198028D01*
X140163465Y-87008624D01*
X140163463Y-87008621D01*
X140163462Y-87008619D01*
X140038523Y-86836653D01*
X139888200Y-86686330D01*
X139716234Y-86561391D01*
X139715529Y-86561031D01*
X139707468Y-86556925D01*
X139656673Y-86508952D01*
X139639877Y-86441132D01*
X139662413Y-86374996D01*
X139707468Y-86335955D01*
X139716230Y-86331491D01*
X139738203Y-86315526D01*
X139888200Y-86206549D01*
X139888202Y-86206546D01*
X139888206Y-86206544D01*
X140038518Y-86056232D01*
X140038520Y-86056228D01*
X140038523Y-86056226D01*
X140163462Y-85884260D01*
X140163461Y-85884260D01*
X140163465Y-85884256D01*
X140259971Y-85694852D01*
X140325660Y-85492683D01*
X140358914Y-85282727D01*
X140358914Y-85070153D01*
X140325660Y-84860197D01*
X140259971Y-84658028D01*
X140163465Y-84468624D01*
X140163463Y-84468621D01*
X140163462Y-84468619D01*
X140038523Y-84296653D01*
X139888200Y-84146330D01*
X139716234Y-84021391D01*
X139715529Y-84021031D01*
X139707468Y-84016925D01*
X139656673Y-83968952D01*
X139639877Y-83901132D01*
X139662413Y-83834996D01*
X139707468Y-83795955D01*
X139716230Y-83791491D01*
X139738203Y-83775526D01*
X139888200Y-83666549D01*
X139888202Y-83666546D01*
X139888206Y-83666544D01*
X140038518Y-83516232D01*
X140038520Y-83516228D01*
X140038523Y-83516226D01*
X140163462Y-83344260D01*
X140163461Y-83344260D01*
X140163465Y-83344256D01*
X140259971Y-83154852D01*
X140325660Y-82952683D01*
X140358914Y-82742727D01*
X140358914Y-82530153D01*
X140325660Y-82320197D01*
X140259971Y-82118028D01*
X140163465Y-81928624D01*
X140163463Y-81928621D01*
X140163462Y-81928619D01*
X140038523Y-81756653D01*
X139888200Y-81606330D01*
X139716234Y-81481391D01*
X139526828Y-81384884D01*
X139526827Y-81384883D01*
X139526826Y-81384883D01*
X139324657Y-81319194D01*
X139324655Y-81319193D01*
X139324654Y-81319193D01*
X139163371Y-81293648D01*
X139114701Y-81285940D01*
X138902127Y-81285940D01*
X138853456Y-81293648D01*
X138692174Y-81319193D01*
X138489999Y-81384884D01*
X138300593Y-81481391D01*
X138128627Y-81606330D01*
X137978304Y-81756653D01*
X137853362Y-81928624D01*
X137853361Y-81928625D01*
X137833179Y-81968235D01*
X137785205Y-82019031D01*
X137722695Y-82035940D01*
X125294133Y-82035940D01*
X125227094Y-82016255D01*
X125183649Y-81968235D01*
X125163466Y-81928625D01*
X125163465Y-81928624D01*
X125038523Y-81756653D01*
X124888200Y-81606330D01*
X124716234Y-81481391D01*
X124526828Y-81384884D01*
X124526827Y-81384883D01*
X124526826Y-81384883D01*
X124324657Y-81319194D01*
X124324655Y-81319193D01*
X124324654Y-81319193D01*
X124163371Y-81293648D01*
X124114701Y-81285940D01*
X123902127Y-81285940D01*
X123853456Y-81293648D01*
X123692174Y-81319193D01*
X123489999Y-81384884D01*
X123300593Y-81481391D01*
X123128627Y-81606330D01*
X122978304Y-81756653D01*
X122853365Y-81928619D01*
X122756858Y-82118025D01*
X122691167Y-82320200D01*
X122657914Y-82530153D01*
X122657914Y-82742726D01*
X122691167Y-82952679D01*
X122691167Y-82952681D01*
X122691168Y-82952683D01*
X122745845Y-83120962D01*
X122756858Y-83154854D01*
X122853365Y-83344260D01*
X122978304Y-83516226D01*
X123128627Y-83666549D01*
X123300596Y-83791490D01*
X123309360Y-83795956D01*
X123360156Y-83843931D01*
X123376950Y-83911752D01*
X123354412Y-83977887D01*
X123309360Y-84016924D01*
X123300596Y-84021389D01*
X123128627Y-84146330D01*
X122978304Y-84296653D01*
X122853365Y-84468619D01*
X122756858Y-84658025D01*
X122691167Y-84860200D01*
X122657914Y-85070153D01*
X122657914Y-85282726D01*
X122691167Y-85492679D01*
X122756858Y-85694854D01*
X122853365Y-85884260D01*
X122978304Y-86056226D01*
X123128627Y-86206549D01*
X123300596Y-86331490D01*
X123309360Y-86335956D01*
X123360156Y-86383931D01*
X123376950Y-86451752D01*
X123354412Y-86517887D01*
X123309360Y-86556924D01*
X123300596Y-86561389D01*
X123128627Y-86686330D01*
X122978304Y-86836653D01*
X122853365Y-87008619D01*
X122756858Y-87198025D01*
X122691167Y-87400200D01*
X122657914Y-87610153D01*
X122657914Y-87822726D01*
X122691167Y-88032679D01*
X122756858Y-88234854D01*
X122853365Y-88424260D01*
X122978304Y-88596226D01*
X123128627Y-88746549D01*
X123300596Y-88871490D01*
X123309360Y-88875956D01*
X123360156Y-88923931D01*
X123376950Y-88991752D01*
X123354412Y-89057887D01*
X123309360Y-89096924D01*
X123300596Y-89101389D01*
X123128627Y-89226330D01*
X122978304Y-89376653D01*
X122853365Y-89548619D01*
X122756858Y-89738025D01*
X122691167Y-89940200D01*
X122657914Y-90150153D01*
X122657914Y-90362726D01*
X122691167Y-90572679D01*
X122756858Y-90774854D01*
X122853365Y-90964260D01*
X122978304Y-91136226D01*
X123128627Y-91286549D01*
X123300596Y-91411490D01*
X123309360Y-91415956D01*
X123360156Y-91463931D01*
X123376950Y-91531752D01*
X123354412Y-91597887D01*
X123309360Y-91636924D01*
X123300596Y-91641389D01*
X123128627Y-91766330D01*
X122978304Y-91916653D01*
X122853365Y-92088619D01*
X122756858Y-92278025D01*
X122691167Y-92480200D01*
X122657914Y-92690153D01*
X122657914Y-92902726D01*
X122691167Y-93112679D01*
X122756858Y-93314854D01*
X122853365Y-93504260D01*
X122978304Y-93676226D01*
X123128627Y-93826549D01*
X123300596Y-93951490D01*
X123309360Y-93955956D01*
X123360156Y-94003931D01*
X123376950Y-94071752D01*
X123354412Y-94137887D01*
X123309360Y-94176924D01*
X123300596Y-94181389D01*
X123128627Y-94306330D01*
X122978304Y-94456653D01*
X122853363Y-94628622D01*
X122831365Y-94671796D01*
X122783391Y-94722591D01*
X122720881Y-94739500D01*
X119439057Y-94739500D01*
X119280942Y-94739500D01*
X119128215Y-94780423D01*
X119128214Y-94780423D01*
X119128212Y-94780424D01*
X119128209Y-94780425D01*
X119084780Y-94805500D01*
X119084778Y-94805501D01*
X118991290Y-94859475D01*
X118991282Y-94859481D01*
X118879478Y-94971286D01*
X104087584Y-109763181D01*
X104026261Y-109796666D01*
X103999903Y-109799500D01*
X99254499Y-109799500D01*
X99187460Y-109779815D01*
X99141705Y-109727011D01*
X99130499Y-109675500D01*
X99130499Y-109502129D01*
X99130498Y-109502123D01*
X99128290Y-109481585D01*
X99124091Y-109442517D01*
X99122810Y-109439083D01*
X99073797Y-109307671D01*
X99073793Y-109307664D01*
X98987547Y-109192455D01*
X98987544Y-109192452D01*
X98872335Y-109106206D01*
X98872328Y-109106202D01*
X98737482Y-109055908D01*
X98737483Y-109055908D01*
X98677883Y-109049501D01*
X98677881Y-109049500D01*
X98677873Y-109049500D01*
X98677864Y-109049500D01*
X96882129Y-109049500D01*
X96882123Y-109049501D01*
X96822516Y-109055908D01*
X96687671Y-109106202D01*
X96687664Y-109106206D01*
X96572455Y-109192452D01*
X96572452Y-109192455D01*
X96486206Y-109307664D01*
X96486203Y-109307669D01*
X96437189Y-109439083D01*
X96395317Y-109495016D01*
X96329853Y-109519433D01*
X96261580Y-109504581D01*
X96233326Y-109483430D01*
X96119786Y-109369890D01*
X95947820Y-109244951D01*
X95758414Y-109148444D01*
X95758413Y-109148443D01*
X95758412Y-109148443D01*
X95556243Y-109082754D01*
X95556241Y-109082753D01*
X95556240Y-109082753D01*
X95394957Y-109057208D01*
X95346287Y-109049500D01*
X95133713Y-109049500D01*
X95085042Y-109057208D01*
X94923760Y-109082753D01*
X94721585Y-109148444D01*
X94532179Y-109244951D01*
X94360213Y-109369890D01*
X94209890Y-109520213D01*
X94084951Y-109692179D01*
X93988444Y-109881585D01*
X93922753Y-110083760D01*
X93890276Y-110288814D01*
X93889500Y-110293713D01*
X81105117Y-110293713D01*
X81111190Y-82530153D01*
X89877914Y-82530153D01*
X89877914Y-82742726D01*
X89911167Y-82952679D01*
X89911167Y-82952681D01*
X89911168Y-82952683D01*
X89965845Y-83120962D01*
X89976858Y-83154854D01*
X90073365Y-83344260D01*
X90198304Y-83516226D01*
X90348627Y-83666549D01*
X90520596Y-83791490D01*
X90529360Y-83795956D01*
X90580156Y-83843931D01*
X90596950Y-83911752D01*
X90574412Y-83977887D01*
X90529360Y-84016924D01*
X90520596Y-84021389D01*
X90348627Y-84146330D01*
X90198304Y-84296653D01*
X90073365Y-84468619D01*
X89976858Y-84658025D01*
X89911167Y-84860200D01*
X89877914Y-85070153D01*
X89877914Y-85282726D01*
X89911167Y-85492679D01*
X89976858Y-85694854D01*
X90073365Y-85884260D01*
X90198304Y-86056226D01*
X90348627Y-86206549D01*
X90520596Y-86331490D01*
X90529360Y-86335956D01*
X90580156Y-86383931D01*
X90596950Y-86451752D01*
X90574412Y-86517887D01*
X90529360Y-86556924D01*
X90520596Y-86561389D01*
X90348627Y-86686330D01*
X90198304Y-86836653D01*
X90073365Y-87008619D01*
X89976858Y-87198025D01*
X89911167Y-87400200D01*
X89877914Y-87610153D01*
X89877914Y-87822726D01*
X89911167Y-88032679D01*
X89976858Y-88234854D01*
X90073365Y-88424260D01*
X90198304Y-88596226D01*
X90348627Y-88746549D01*
X90520596Y-88871490D01*
X90529360Y-88875956D01*
X90580156Y-88923931D01*
X90596950Y-88991752D01*
X90574412Y-89057887D01*
X90529360Y-89096924D01*
X90520596Y-89101389D01*
X90348627Y-89226330D01*
X90198304Y-89376653D01*
X90073365Y-89548619D01*
X89976858Y-89738025D01*
X89911167Y-89940200D01*
X89877914Y-90150153D01*
X89877914Y-90362726D01*
X89911167Y-90572679D01*
X89976858Y-90774854D01*
X90073365Y-90964260D01*
X90198304Y-91136226D01*
X90348627Y-91286549D01*
X90520596Y-91411490D01*
X90529360Y-91415956D01*
X90580156Y-91463931D01*
X90596950Y-91531752D01*
X90574412Y-91597887D01*
X90529360Y-91636924D01*
X90520596Y-91641389D01*
X90348627Y-91766330D01*
X90198304Y-91916653D01*
X90073365Y-92088619D01*
X89976858Y-92278025D01*
X89911167Y-92480200D01*
X89877914Y-92690153D01*
X89877914Y-92902726D01*
X89911167Y-93112679D01*
X89976858Y-93314854D01*
X90073365Y-93504260D01*
X90198304Y-93676226D01*
X90348627Y-93826549D01*
X90520596Y-93951490D01*
X90529360Y-93955956D01*
X90580156Y-94003931D01*
X90596950Y-94071752D01*
X90574412Y-94137887D01*
X90529360Y-94176924D01*
X90520596Y-94181389D01*
X90348627Y-94306330D01*
X90198304Y-94456653D01*
X90073365Y-94628619D01*
X89976858Y-94818025D01*
X89911167Y-95020200D01*
X89877914Y-95230153D01*
X89877914Y-95442726D01*
X89911167Y-95652679D01*
X89976858Y-95854854D01*
X90073365Y-96044260D01*
X90198304Y-96216226D01*
X90348627Y-96366549D01*
X90520596Y-96491490D01*
X90529360Y-96495956D01*
X90580156Y-96543931D01*
X90596950Y-96611752D01*
X90574412Y-96677887D01*
X90529360Y-96716924D01*
X90520596Y-96721389D01*
X90348627Y-96846330D01*
X90198304Y-96996653D01*
X90073365Y-97168619D01*
X89976858Y-97358025D01*
X89911167Y-97560200D01*
X89877914Y-97770153D01*
X89877914Y-97982726D01*
X89911167Y-98192679D01*
X89976858Y-98394854D01*
X90073365Y-98584260D01*
X90198304Y-98756226D01*
X90348627Y-98906549D01*
X90520596Y-99031490D01*
X90529360Y-99035956D01*
X90580156Y-99083931D01*
X90596950Y-99151752D01*
X90574412Y-99217887D01*
X90529360Y-99256924D01*
X90520596Y-99261389D01*
X90348627Y-99386330D01*
X90198304Y-99536653D01*
X90073365Y-99708619D01*
X89976858Y-99898025D01*
X89911167Y-100100200D01*
X89877914Y-100310153D01*
X89877914Y-100522726D01*
X89911167Y-100732679D01*
X89976858Y-100934854D01*
X90073365Y-101124260D01*
X90198304Y-101296226D01*
X90348627Y-101446549D01*
X90520596Y-101571490D01*
X90529360Y-101575956D01*
X90580156Y-101623931D01*
X90596950Y-101691752D01*
X90574412Y-101757887D01*
X90529360Y-101796924D01*
X90520596Y-101801389D01*
X90348627Y-101926330D01*
X90198304Y-102076653D01*
X90073365Y-102248619D01*
X89976858Y-102438025D01*
X89911167Y-102640200D01*
X89877914Y-102850153D01*
X89877914Y-103062726D01*
X89911167Y-103272679D01*
X89976858Y-103474854D01*
X90073365Y-103664260D01*
X90198304Y-103836226D01*
X90348627Y-103986549D01*
X90520593Y-104111488D01*
X90520595Y-104111489D01*
X90520598Y-104111491D01*
X90710002Y-104207997D01*
X90912171Y-104273686D01*
X91122127Y-104306940D01*
X91122128Y-104306940D01*
X91334700Y-104306940D01*
X91334701Y-104306940D01*
X91544657Y-104273686D01*
X91746826Y-104207997D01*
X91936230Y-104111491D01*
X91958203Y-104095526D01*
X92108200Y-103986549D01*
X92108202Y-103986546D01*
X92108206Y-103986544D01*
X92258518Y-103836232D01*
X92258520Y-103836228D01*
X92258523Y-103836226D01*
X92317075Y-103755633D01*
X92383465Y-103664256D01*
X92383763Y-103663670D01*
X92403649Y-103624645D01*
X92451623Y-103573849D01*
X92514133Y-103556940D01*
X104942695Y-103556940D01*
X105009734Y-103576625D01*
X105053179Y-103624645D01*
X105073361Y-103664254D01*
X105073362Y-103664255D01*
X105198304Y-103836226D01*
X105348627Y-103986549D01*
X105520593Y-104111488D01*
X105520595Y-104111489D01*
X105520598Y-104111491D01*
X105710002Y-104207997D01*
X105912171Y-104273686D01*
X106122127Y-104306940D01*
X106122128Y-104306940D01*
X106334700Y-104306940D01*
X106334701Y-104306940D01*
X106544657Y-104273686D01*
X106746826Y-104207997D01*
X106936230Y-104111491D01*
X106958203Y-104095526D01*
X107108200Y-103986549D01*
X107108202Y-103986546D01*
X107108206Y-103986544D01*
X107258518Y-103836232D01*
X107258520Y-103836228D01*
X107258523Y-103836226D01*
X107383462Y-103664260D01*
X107383461Y-103664260D01*
X107383465Y-103664256D01*
X107479971Y-103474852D01*
X107545660Y-103272683D01*
X107578914Y-103062727D01*
X107578914Y-102850153D01*
X107545660Y-102640197D01*
X107479971Y-102438028D01*
X107383465Y-102248624D01*
X107383463Y-102248621D01*
X107383462Y-102248619D01*
X107258523Y-102076653D01*
X107108200Y-101926330D01*
X106936234Y-101801391D01*
X106935529Y-101801031D01*
X106927468Y-101796925D01*
X106876673Y-101748952D01*
X106859877Y-101681132D01*
X106882413Y-101614996D01*
X106927468Y-101575955D01*
X106936230Y-101571491D01*
X106958203Y-101555526D01*
X107108200Y-101446549D01*
X107108202Y-101446546D01*
X107108206Y-101446544D01*
X107258518Y-101296232D01*
X107258520Y-101296228D01*
X107258523Y-101296226D01*
X107383462Y-101124260D01*
X107383461Y-101124260D01*
X107383465Y-101124256D01*
X107479971Y-100934852D01*
X107545660Y-100732683D01*
X107578914Y-100522727D01*
X107578914Y-100310153D01*
X107545660Y-100100197D01*
X107479971Y-99898028D01*
X107383465Y-99708624D01*
X107383463Y-99708621D01*
X107383462Y-99708619D01*
X107258523Y-99536653D01*
X107108200Y-99386330D01*
X106936234Y-99261391D01*
X106935529Y-99261031D01*
X106927468Y-99256925D01*
X106876673Y-99208952D01*
X106859877Y-99141132D01*
X106882413Y-99074996D01*
X106927468Y-99035955D01*
X106936230Y-99031491D01*
X106958203Y-99015526D01*
X107108200Y-98906549D01*
X107108202Y-98906546D01*
X107108206Y-98906544D01*
X107258518Y-98756232D01*
X107258520Y-98756228D01*
X107258523Y-98756226D01*
X107383462Y-98584260D01*
X107383461Y-98584260D01*
X107383465Y-98584256D01*
X107479971Y-98394852D01*
X107545660Y-98192683D01*
X107578914Y-97982727D01*
X107578914Y-97770153D01*
X107545660Y-97560197D01*
X107479971Y-97358028D01*
X107383465Y-97168624D01*
X107383463Y-97168621D01*
X107383462Y-97168619D01*
X107258523Y-96996653D01*
X107108200Y-96846330D01*
X106936234Y-96721391D01*
X106935529Y-96721031D01*
X106927468Y-96716925D01*
X106876673Y-96668952D01*
X106859877Y-96601132D01*
X106882413Y-96534996D01*
X106927468Y-96495955D01*
X106936230Y-96491491D01*
X106958203Y-96475526D01*
X107108200Y-96366549D01*
X107108202Y-96366546D01*
X107108206Y-96366544D01*
X107258518Y-96216232D01*
X107258520Y-96216228D01*
X107258523Y-96216226D01*
X107383462Y-96044260D01*
X107383461Y-96044260D01*
X107383465Y-96044256D01*
X107479971Y-95854852D01*
X107545660Y-95652683D01*
X107578914Y-95442727D01*
X107578914Y-95230153D01*
X107545660Y-95020197D01*
X107479971Y-94818028D01*
X107383465Y-94628624D01*
X107383463Y-94628621D01*
X107383462Y-94628619D01*
X107258523Y-94456653D01*
X107108200Y-94306330D01*
X106936234Y-94181391D01*
X106935529Y-94181031D01*
X106927468Y-94176925D01*
X106876673Y-94128952D01*
X106859877Y-94061132D01*
X106882413Y-93994996D01*
X106927468Y-93955955D01*
X106936230Y-93951491D01*
X106958203Y-93935526D01*
X107108200Y-93826549D01*
X107108202Y-93826546D01*
X107108206Y-93826544D01*
X107258518Y-93676232D01*
X107258520Y-93676228D01*
X107258523Y-93676226D01*
X107372706Y-93519064D01*
X107383465Y-93504256D01*
X107446189Y-93381153D01*
X112159500Y-93381153D01*
X112159500Y-93538846D01*
X112190261Y-93693489D01*
X112190264Y-93693501D01*
X112250602Y-93839172D01*
X112250609Y-93839185D01*
X112338210Y-93970288D01*
X112338213Y-93970292D01*
X112449707Y-94081786D01*
X112449711Y-94081789D01*
X112580814Y-94169390D01*
X112580827Y-94169397D01*
X112726498Y-94229735D01*
X112726503Y-94229737D01*
X112881158Y-94260500D01*
X112881847Y-94260637D01*
X112943758Y-94293022D01*
X112945337Y-94294573D01*
X113311284Y-94660520D01*
X113311286Y-94660521D01*
X113311290Y-94660524D01*
X113412629Y-94719031D01*
X113448216Y-94739577D01*
X113600943Y-94780501D01*
X113600945Y-94780501D01*
X113766654Y-94780501D01*
X113766670Y-94780500D01*
X113850234Y-94780500D01*
X113917273Y-94800185D01*
X113919125Y-94801398D01*
X114050814Y-94889390D01*
X114050827Y-94889397D01*
X114196498Y-94949735D01*
X114196503Y-94949737D01*
X114351153Y-94980499D01*
X114351156Y-94980500D01*
X114351158Y-94980500D01*
X114508844Y-94980500D01*
X114508845Y-94980499D01*
X114663497Y-94949737D01*
X114809179Y-94889394D01*
X114940289Y-94801789D01*
X115051789Y-94690289D01*
X115139394Y-94559179D01*
X115199737Y-94413497D01*
X115230500Y-94258842D01*
X115230500Y-94101158D01*
X115230500Y-94101155D01*
X115230499Y-94101153D01*
X115222538Y-94061132D01*
X115199737Y-93946503D01*
X115155285Y-93839185D01*
X115139397Y-93800827D01*
X115139390Y-93800814D01*
X115051789Y-93669711D01*
X115051786Y-93669707D01*
X114940292Y-93558213D01*
X114940288Y-93558210D01*
X114809185Y-93470609D01*
X114809172Y-93470602D01*
X114663501Y-93410264D01*
X114663489Y-93410261D01*
X114508845Y-93379500D01*
X114508842Y-93379500D01*
X114351158Y-93379500D01*
X114351155Y-93379500D01*
X114196510Y-93410261D01*
X114196498Y-93410264D01*
X114050827Y-93470602D01*
X114050816Y-93470608D01*
X113996972Y-93506586D01*
X113966669Y-93516073D01*
X113936928Y-93527167D01*
X113933572Y-93526436D01*
X113930295Y-93527463D01*
X113899680Y-93519064D01*
X113868655Y-93512315D01*
X113864939Y-93509533D01*
X113862915Y-93508978D01*
X113840401Y-93491164D01*
X113794573Y-93445336D01*
X113761088Y-93384013D01*
X113760637Y-93381846D01*
X113729738Y-93226510D01*
X113729737Y-93226503D01*
X113682590Y-93112679D01*
X113669397Y-93080827D01*
X113669390Y-93080814D01*
X113581789Y-92949711D01*
X113581786Y-92949707D01*
X113470292Y-92838213D01*
X113470288Y-92838210D01*
X113339185Y-92750609D01*
X113339172Y-92750602D01*
X113193501Y-92690264D01*
X113193489Y-92690261D01*
X113038845Y-92659500D01*
X113038842Y-92659500D01*
X112881158Y-92659500D01*
X112881155Y-92659500D01*
X112726510Y-92690261D01*
X112726498Y-92690264D01*
X112580827Y-92750602D01*
X112580814Y-92750609D01*
X112449711Y-92838210D01*
X112449707Y-92838213D01*
X112338213Y-92949707D01*
X112338210Y-92949711D01*
X112250609Y-93080814D01*
X112250602Y-93080827D01*
X112190264Y-93226498D01*
X112190261Y-93226510D01*
X112159500Y-93381153D01*
X107446189Y-93381153D01*
X107479971Y-93314852D01*
X107545660Y-93112683D01*
X107578914Y-92902727D01*
X107578914Y-92690153D01*
X107545660Y-92480197D01*
X107479971Y-92278028D01*
X107383465Y-92088624D01*
X107383463Y-92088621D01*
X107383462Y-92088619D01*
X107258523Y-91916653D01*
X107108200Y-91766330D01*
X106936234Y-91641391D01*
X106935529Y-91641031D01*
X106927468Y-91636925D01*
X106876673Y-91588952D01*
X106859877Y-91521132D01*
X106882413Y-91454996D01*
X106927468Y-91415955D01*
X106936230Y-91411491D01*
X106958203Y-91395526D01*
X107108200Y-91286549D01*
X107108202Y-91286546D01*
X107108206Y-91286544D01*
X107258518Y-91136232D01*
X107258520Y-91136228D01*
X107258523Y-91136226D01*
X107383462Y-90964260D01*
X107383461Y-90964260D01*
X107383465Y-90964256D01*
X107479971Y-90774852D01*
X107545660Y-90572683D01*
X107578914Y-90362727D01*
X107578914Y-90150153D01*
X107545660Y-89940197D01*
X107479971Y-89738028D01*
X107383465Y-89548624D01*
X107383463Y-89548621D01*
X107383462Y-89548619D01*
X107258523Y-89376653D01*
X107108200Y-89226330D01*
X106936234Y-89101391D01*
X106935529Y-89101031D01*
X106927468Y-89096925D01*
X106876673Y-89048952D01*
X106859877Y-88981132D01*
X106882413Y-88914996D01*
X106927468Y-88875955D01*
X106936230Y-88871491D01*
X106958203Y-88855526D01*
X107108200Y-88746549D01*
X107108202Y-88746546D01*
X107108206Y-88746544D01*
X107258518Y-88596232D01*
X107258520Y-88596228D01*
X107258523Y-88596226D01*
X107383462Y-88424260D01*
X107383461Y-88424260D01*
X107383465Y-88424256D01*
X107479971Y-88234852D01*
X107545660Y-88032683D01*
X107578914Y-87822727D01*
X107578914Y-87610153D01*
X107545660Y-87400197D01*
X107479971Y-87198028D01*
X107383465Y-87008624D01*
X107383463Y-87008621D01*
X107383462Y-87008619D01*
X107258523Y-86836653D01*
X107108200Y-86686330D01*
X106936234Y-86561391D01*
X106935529Y-86561031D01*
X106927468Y-86556925D01*
X106876673Y-86508952D01*
X106859877Y-86441132D01*
X106882413Y-86374996D01*
X106927468Y-86335955D01*
X106936230Y-86331491D01*
X106958203Y-86315526D01*
X107108200Y-86206549D01*
X107108202Y-86206546D01*
X107108206Y-86206544D01*
X107258518Y-86056232D01*
X107258520Y-86056228D01*
X107258523Y-86056226D01*
X107383462Y-85884260D01*
X107383461Y-85884260D01*
X107383465Y-85884256D01*
X107479971Y-85694852D01*
X107545660Y-85492683D01*
X107578914Y-85282727D01*
X107578914Y-85135537D01*
X107598599Y-85068498D01*
X107651403Y-85022743D01*
X107720561Y-85012799D01*
X107784117Y-85041824D01*
X107790595Y-85047856D01*
X112257113Y-89514374D01*
X112257123Y-89514385D01*
X112261453Y-89518715D01*
X112261454Y-89518716D01*
X112373258Y-89630520D01*
X112417288Y-89655940D01*
X112460069Y-89680639D01*
X112460071Y-89680641D01*
X112498125Y-89702611D01*
X112510189Y-89709577D01*
X112662917Y-89750501D01*
X112662920Y-89750501D01*
X112828627Y-89750501D01*
X112828643Y-89750500D01*
X114500234Y-89750500D01*
X114567273Y-89770185D01*
X114569125Y-89771398D01*
X114700814Y-89859390D01*
X114700827Y-89859397D01*
X114846498Y-89919735D01*
X114846503Y-89919737D01*
X114949362Y-89940197D01*
X115001153Y-89950499D01*
X115001156Y-89950500D01*
X115001158Y-89950500D01*
X115158844Y-89950500D01*
X115158845Y-89950499D01*
X115313497Y-89919737D01*
X115459179Y-89859394D01*
X115590289Y-89771789D01*
X115701789Y-89660289D01*
X115789394Y-89529179D01*
X115849737Y-89383497D01*
X115880500Y-89228842D01*
X115880500Y-89071158D01*
X115880500Y-89071155D01*
X115880499Y-89071153D01*
X115863648Y-88986440D01*
X115849737Y-88916503D01*
X115831092Y-88871490D01*
X115789397Y-88770827D01*
X115789390Y-88770814D01*
X115701789Y-88639711D01*
X115701786Y-88639707D01*
X115590292Y-88528213D01*
X115590288Y-88528210D01*
X115459185Y-88440609D01*
X115459172Y-88440602D01*
X115313501Y-88380264D01*
X115313489Y-88380261D01*
X115158845Y-88349500D01*
X115158842Y-88349500D01*
X115001158Y-88349500D01*
X115001155Y-88349500D01*
X114846510Y-88380261D01*
X114846498Y-88380264D01*
X114700827Y-88440602D01*
X114700814Y-88440609D01*
X114569125Y-88528602D01*
X114502447Y-88549480D01*
X114500234Y-88549500D01*
X113042071Y-88549500D01*
X112975032Y-88529815D01*
X112954390Y-88513181D01*
X107562171Y-83120962D01*
X107528686Y-83059639D01*
X107531921Y-82994963D01*
X107545660Y-82952683D01*
X107578914Y-82742727D01*
X107578914Y-82530153D01*
X107545660Y-82320197D01*
X107479971Y-82118028D01*
X107383465Y-81928624D01*
X107383463Y-81928621D01*
X107383462Y-81928619D01*
X107258523Y-81756653D01*
X107108200Y-81606330D01*
X106936234Y-81481391D01*
X106746828Y-81384884D01*
X106746827Y-81384883D01*
X106746826Y-81384883D01*
X106544657Y-81319194D01*
X106544655Y-81319193D01*
X106544654Y-81319193D01*
X106383371Y-81293648D01*
X106334701Y-81285940D01*
X106122127Y-81285940D01*
X106073456Y-81293648D01*
X105912174Y-81319193D01*
X105709999Y-81384884D01*
X105520593Y-81481391D01*
X105348627Y-81606330D01*
X105198304Y-81756653D01*
X105073362Y-81928624D01*
X105073361Y-81928625D01*
X105053179Y-81968235D01*
X105005205Y-82019031D01*
X104942695Y-82035940D01*
X92514133Y-82035940D01*
X92447094Y-82016255D01*
X92403649Y-81968235D01*
X92383466Y-81928625D01*
X92383465Y-81928624D01*
X92258523Y-81756653D01*
X92108200Y-81606330D01*
X91936234Y-81481391D01*
X91746828Y-81384884D01*
X91746827Y-81384883D01*
X91746826Y-81384883D01*
X91544657Y-81319194D01*
X91544655Y-81319193D01*
X91544654Y-81319193D01*
X91383371Y-81293648D01*
X91334701Y-81285940D01*
X91122127Y-81285940D01*
X91073456Y-81293648D01*
X90912174Y-81319193D01*
X90709999Y-81384884D01*
X90520593Y-81481391D01*
X90348627Y-81606330D01*
X90198304Y-81756653D01*
X90073365Y-81928619D01*
X89976858Y-82118025D01*
X89911167Y-82320200D01*
X89877914Y-82530153D01*
X81111190Y-82530153D01*
X81112474Y-76658575D01*
X89877914Y-76658575D01*
X89877914Y-78454310D01*
X89877915Y-78454316D01*
X89884322Y-78513923D01*
X89934616Y-78648768D01*
X89934620Y-78648775D01*
X90020866Y-78763984D01*
X90020869Y-78763987D01*
X90136078Y-78850233D01*
X90136085Y-78850237D01*
X90270931Y-78900531D01*
X90270930Y-78900531D01*
X90277858Y-78901275D01*
X90330541Y-78906940D01*
X92126286Y-78906939D01*
X92185897Y-78900531D01*
X92320745Y-78850236D01*
X92435960Y-78763986D01*
X92522210Y-78648771D01*
X92572505Y-78513923D01*
X92578914Y-78454313D01*
X92578914Y-78380940D01*
X92598599Y-78313901D01*
X92651403Y-78268146D01*
X92702914Y-78256940D01*
X104753915Y-78256940D01*
X104820954Y-78276625D01*
X104866709Y-78329429D01*
X104877915Y-78380940D01*
X104877915Y-78454316D01*
X104884322Y-78513923D01*
X104934616Y-78648768D01*
X104934620Y-78648775D01*
X105020866Y-78763984D01*
X105020869Y-78763987D01*
X105136078Y-78850233D01*
X105136085Y-78850237D01*
X105270931Y-78900531D01*
X105270930Y-78900531D01*
X105277858Y-78901275D01*
X105330541Y-78906940D01*
X107126286Y-78906939D01*
X107185897Y-78900531D01*
X107320745Y-78850236D01*
X107413028Y-78781153D01*
X107428504Y-78769568D01*
X107493968Y-78745150D01*
X107562241Y-78760001D01*
X107590496Y-78781153D01*
X108273266Y-79463923D01*
X108306751Y-79525246D01*
X108307202Y-79527413D01*
X108334103Y-79662658D01*
X108334106Y-79662667D01*
X108401983Y-79826540D01*
X108401990Y-79826553D01*
X108500535Y-79974034D01*
X108500538Y-79974038D01*
X108625961Y-80099461D01*
X108625965Y-80099464D01*
X108773446Y-80198009D01*
X108773459Y-80198016D01*
X108896363Y-80248923D01*
X108937334Y-80265894D01*
X108937336Y-80265894D01*
X108937341Y-80265896D01*
X109111304Y-80300499D01*
X109111307Y-80300500D01*
X109111309Y-80300500D01*
X109288693Y-80300500D01*
X109288694Y-80300499D01*
X109346682Y-80288964D01*
X109462658Y-80265896D01*
X109462661Y-80265894D01*
X109462666Y-80265894D01*
X109626547Y-80198013D01*
X109774035Y-80099464D01*
X109899464Y-79974035D01*
X109998013Y-79826547D01*
X110065894Y-79662666D01*
X110100500Y-79488691D01*
X110100500Y-79311309D01*
X110100500Y-79311306D01*
X110100499Y-79311304D01*
X110065896Y-79137341D01*
X110065893Y-79137332D01*
X109998016Y-78973459D01*
X109998009Y-78973446D01*
X109899464Y-78825965D01*
X109899461Y-78825961D01*
X109774038Y-78700538D01*
X109774034Y-78700535D01*
X109626553Y-78601990D01*
X109626540Y-78601983D01*
X109462667Y-78534106D01*
X109462658Y-78534103D01*
X109327413Y-78507202D01*
X109265502Y-78474817D01*
X109263923Y-78473266D01*
X107802986Y-77012328D01*
X107802983Y-77012325D01*
X107688257Y-76935668D01*
X107688251Y-76935665D01*
X107655459Y-76922082D01*
X107601056Y-76878240D01*
X107578992Y-76811946D01*
X107578913Y-76807521D01*
X107578913Y-76658569D01*
X107578912Y-76658563D01*
X107578911Y-76658556D01*
X107572505Y-76598957D01*
X107523133Y-76466585D01*
X107522211Y-76464111D01*
X107522207Y-76464104D01*
X107435961Y-76348895D01*
X107435958Y-76348892D01*
X107320749Y-76262646D01*
X107320742Y-76262642D01*
X107185896Y-76212348D01*
X107185897Y-76212348D01*
X107126297Y-76205941D01*
X107126295Y-76205940D01*
X107126287Y-76205940D01*
X107126278Y-76205940D01*
X105330543Y-76205940D01*
X105330537Y-76205941D01*
X105270930Y-76212348D01*
X105136085Y-76262642D01*
X105136078Y-76262646D01*
X105020869Y-76348892D01*
X105020866Y-76348895D01*
X104934620Y-76464104D01*
X104934616Y-76464111D01*
X104884322Y-76598957D01*
X104878274Y-76655219D01*
X104877915Y-76658563D01*
X104877914Y-76658575D01*
X104877914Y-76731940D01*
X104858229Y-76798979D01*
X104805425Y-76844734D01*
X104753914Y-76855940D01*
X92702913Y-76855940D01*
X92635874Y-76836255D01*
X92590119Y-76783451D01*
X92578913Y-76731940D01*
X92578913Y-76658569D01*
X92578912Y-76658563D01*
X92578911Y-76658556D01*
X92572505Y-76598957D01*
X92523133Y-76466585D01*
X92522211Y-76464111D01*
X92522207Y-76464104D01*
X92435961Y-76348895D01*
X92435958Y-76348892D01*
X92320749Y-76262646D01*
X92320742Y-76262642D01*
X92185896Y-76212348D01*
X92185897Y-76212348D01*
X92126297Y-76205941D01*
X92126295Y-76205940D01*
X92126287Y-76205940D01*
X92126278Y-76205940D01*
X90330543Y-76205940D01*
X90330537Y-76205941D01*
X90270930Y-76212348D01*
X90136085Y-76262642D01*
X90136078Y-76262646D01*
X90020869Y-76348892D01*
X90020866Y-76348895D01*
X89934620Y-76464104D01*
X89934616Y-76464111D01*
X89884322Y-76598957D01*
X89878274Y-76655219D01*
X89877915Y-76658563D01*
X89877914Y-76658575D01*
X81112474Y-76658575D01*
X81113030Y-74118575D01*
X122657914Y-74118575D01*
X122657914Y-75914310D01*
X122657915Y-75914316D01*
X122664322Y-75973923D01*
X122714616Y-76108768D01*
X122714620Y-76108775D01*
X122800866Y-76223984D01*
X122800869Y-76223987D01*
X122916078Y-76310233D01*
X122916085Y-76310237D01*
X123047496Y-76359250D01*
X123103430Y-76401121D01*
X123127847Y-76466585D01*
X123112996Y-76534858D01*
X123091845Y-76563113D01*
X122978303Y-76676655D01*
X122853365Y-76848619D01*
X122756858Y-77038025D01*
X122691167Y-77240200D01*
X122657914Y-77450153D01*
X122657914Y-77662726D01*
X122691167Y-77872679D01*
X122756858Y-78074854D01*
X122853365Y-78264260D01*
X122978304Y-78436226D01*
X123128627Y-78586549D01*
X123300593Y-78711488D01*
X123300595Y-78711489D01*
X123300598Y-78711491D01*
X123490002Y-78807997D01*
X123692171Y-78873686D01*
X123902127Y-78906940D01*
X123902128Y-78906940D01*
X124114700Y-78906940D01*
X124114701Y-78906940D01*
X124324657Y-78873686D01*
X124526826Y-78807997D01*
X124716230Y-78711491D01*
X124802552Y-78648775D01*
X124888200Y-78586549D01*
X124888202Y-78586546D01*
X124888206Y-78586544D01*
X125038518Y-78436232D01*
X125131643Y-78308054D01*
X125186972Y-78265389D01*
X125231961Y-78256940D01*
X137784867Y-78256940D01*
X137851906Y-78276625D01*
X137885183Y-78308054D01*
X137900714Y-78329429D01*
X137978306Y-78436228D01*
X138128627Y-78586549D01*
X138300593Y-78711488D01*
X138300595Y-78711489D01*
X138300598Y-78711491D01*
X138490002Y-78807997D01*
X138692171Y-78873686D01*
X138902127Y-78906940D01*
X138902128Y-78906940D01*
X139114700Y-78906940D01*
X139114701Y-78906940D01*
X139324657Y-78873686D01*
X139526826Y-78807997D01*
X139716230Y-78711491D01*
X139802552Y-78648775D01*
X139888200Y-78586549D01*
X139888202Y-78586546D01*
X139888206Y-78586544D01*
X140038518Y-78436232D01*
X140038520Y-78436228D01*
X140038523Y-78436226D01*
X140163462Y-78264260D01*
X140163461Y-78264260D01*
X140163465Y-78264256D01*
X140259971Y-78074852D01*
X140325660Y-77872683D01*
X140358914Y-77662727D01*
X140358914Y-77450153D01*
X140325660Y-77240197D01*
X140259971Y-77038028D01*
X140163465Y-76848624D01*
X140163463Y-76848621D01*
X140163462Y-76848619D01*
X140038523Y-76676653D01*
X139924983Y-76563113D01*
X139891498Y-76501790D01*
X139896482Y-76432098D01*
X139938354Y-76376165D01*
X139969329Y-76359250D01*
X140100745Y-76310236D01*
X140215960Y-76223986D01*
X140302210Y-76108771D01*
X140352505Y-75973923D01*
X140358914Y-75914313D01*
X140358913Y-74118568D01*
X140352505Y-74058957D01*
X140302210Y-73924109D01*
X140302209Y-73924108D01*
X140302207Y-73924104D01*
X140215961Y-73808895D01*
X140215958Y-73808892D01*
X140100749Y-73722646D01*
X140100742Y-73722642D01*
X139965896Y-73672348D01*
X139965897Y-73672348D01*
X139906297Y-73665941D01*
X139906295Y-73665940D01*
X139906287Y-73665940D01*
X139906278Y-73665940D01*
X138110543Y-73665940D01*
X138110537Y-73665941D01*
X138050930Y-73672348D01*
X137916085Y-73722642D01*
X137916078Y-73722646D01*
X137800869Y-73808892D01*
X137800866Y-73808895D01*
X137714620Y-73924104D01*
X137714616Y-73924111D01*
X137664322Y-74058957D01*
X137658274Y-74115219D01*
X137657915Y-74118563D01*
X137657914Y-74118575D01*
X137657914Y-74191940D01*
X137638229Y-74258979D01*
X137585425Y-74304734D01*
X137533914Y-74315940D01*
X125482913Y-74315940D01*
X125415874Y-74296255D01*
X125370119Y-74243451D01*
X125358913Y-74191940D01*
X125358913Y-74118569D01*
X125358912Y-74118563D01*
X125358911Y-74118556D01*
X125352505Y-74058957D01*
X125302210Y-73924109D01*
X125302209Y-73924108D01*
X125302207Y-73924104D01*
X125215961Y-73808895D01*
X125215958Y-73808892D01*
X125100749Y-73722646D01*
X125100742Y-73722642D01*
X124965896Y-73672348D01*
X124965897Y-73672348D01*
X124906297Y-73665941D01*
X124906295Y-73665940D01*
X124906287Y-73665940D01*
X124906278Y-73665940D01*
X123110543Y-73665940D01*
X123110537Y-73665941D01*
X123050930Y-73672348D01*
X122916085Y-73722642D01*
X122916078Y-73722646D01*
X122800869Y-73808892D01*
X122800866Y-73808895D01*
X122714620Y-73924104D01*
X122714616Y-73924111D01*
X122664322Y-74058957D01*
X122658274Y-74115219D01*
X122657915Y-74118563D01*
X122657914Y-74118575D01*
X81113030Y-74118575D01*
X81114201Y-68762536D01*
X82413700Y-68762536D01*
X82413700Y-69065863D01*
X82447657Y-69367248D01*
X82447660Y-69367262D01*
X82515153Y-69662971D01*
X82515157Y-69662983D01*
X82615333Y-69949268D01*
X82746933Y-70222538D01*
X82746935Y-70222541D01*
X82908308Y-70479364D01*
X83097421Y-70716504D01*
X83311896Y-70930979D01*
X83549036Y-71120092D01*
X83805859Y-71281465D01*
X84079135Y-71413068D01*
X84294151Y-71488305D01*
X84365416Y-71513242D01*
X84365428Y-71513246D01*
X84661137Y-71580740D01*
X84661146Y-71580741D01*
X84661151Y-71580742D01*
X84862074Y-71603380D01*
X84962537Y-71614699D01*
X84962540Y-71614700D01*
X84962543Y-71614700D01*
X85265860Y-71614700D01*
X85265861Y-71614699D01*
X85419894Y-71597344D01*
X85567248Y-71580742D01*
X85567251Y-71580741D01*
X85567263Y-71580740D01*
X85862972Y-71513246D01*
X86149265Y-71413068D01*
X86422541Y-71281465D01*
X86679364Y-71120092D01*
X86916504Y-70930979D01*
X87130979Y-70716504D01*
X87320092Y-70479364D01*
X87481465Y-70222541D01*
X87613068Y-69949265D01*
X87713246Y-69662972D01*
X87780740Y-69367263D01*
X87814700Y-69065857D01*
X87814700Y-68762543D01*
X87814699Y-68762536D01*
X142413700Y-68762536D01*
X142413700Y-69065863D01*
X142447657Y-69367248D01*
X142447660Y-69367262D01*
X142515153Y-69662971D01*
X142515157Y-69662983D01*
X142615333Y-69949268D01*
X142746933Y-70222538D01*
X142746935Y-70222541D01*
X142908308Y-70479364D01*
X143097421Y-70716504D01*
X143311896Y-70930979D01*
X143549036Y-71120092D01*
X143805859Y-71281465D01*
X144079135Y-71413068D01*
X144294151Y-71488305D01*
X144365416Y-71513242D01*
X144365428Y-71513246D01*
X144661137Y-71580740D01*
X144661146Y-71580741D01*
X144661151Y-71580742D01*
X144862074Y-71603380D01*
X144962537Y-71614699D01*
X144962540Y-71614700D01*
X144962543Y-71614700D01*
X145265860Y-71614700D01*
X145265861Y-71614699D01*
X145419894Y-71597344D01*
X145567248Y-71580742D01*
X145567251Y-71580741D01*
X145567263Y-71580740D01*
X145862972Y-71513246D01*
X146149265Y-71413068D01*
X146422541Y-71281465D01*
X146679364Y-71120092D01*
X146916504Y-70930979D01*
X147130979Y-70716504D01*
X147320092Y-70479364D01*
X147481465Y-70222541D01*
X147613068Y-69949265D01*
X147713246Y-69662972D01*
X147780740Y-69367263D01*
X147814700Y-69065857D01*
X147814700Y-68762543D01*
X147780740Y-68461137D01*
X147713246Y-68165428D01*
X147613068Y-67879135D01*
X147481465Y-67605859D01*
X147320092Y-67349036D01*
X147130979Y-67111896D01*
X146916504Y-66897421D01*
X146679364Y-66708308D01*
X146422541Y-66546935D01*
X146422538Y-66546933D01*
X146149268Y-66415333D01*
X145862983Y-66315157D01*
X145862971Y-66315153D01*
X145634318Y-66262965D01*
X145567263Y-66247660D01*
X145567260Y-66247659D01*
X145567248Y-66247657D01*
X145265863Y-66213700D01*
X145265857Y-66213700D01*
X144962543Y-66213700D01*
X144962536Y-66213700D01*
X144661151Y-66247657D01*
X144661137Y-66247660D01*
X144365428Y-66315153D01*
X144365416Y-66315157D01*
X144079131Y-66415333D01*
X143805861Y-66546933D01*
X143549037Y-66708307D01*
X143311896Y-66897420D01*
X143097420Y-67111896D01*
X142908307Y-67349037D01*
X142746933Y-67605861D01*
X142615333Y-67879131D01*
X142515157Y-68165416D01*
X142515153Y-68165428D01*
X142447660Y-68461137D01*
X142447657Y-68461151D01*
X142413700Y-68762536D01*
X87814699Y-68762536D01*
X87780740Y-68461137D01*
X87713246Y-68165428D01*
X87613068Y-67879135D01*
X87481465Y-67605859D01*
X87320092Y-67349036D01*
X87130979Y-67111896D01*
X86916504Y-66897421D01*
X86679364Y-66708308D01*
X86422541Y-66546935D01*
X86422538Y-66546933D01*
X86149268Y-66415333D01*
X85862983Y-66315157D01*
X85862971Y-66315153D01*
X85634318Y-66262965D01*
X85567263Y-66247660D01*
X85567260Y-66247659D01*
X85567248Y-66247657D01*
X85265863Y-66213700D01*
X85265857Y-66213700D01*
X84962543Y-66213700D01*
X84962536Y-66213700D01*
X84661151Y-66247657D01*
X84661137Y-66247660D01*
X84365428Y-66315153D01*
X84365416Y-66315157D01*
X84079131Y-66415333D01*
X83805861Y-66546933D01*
X83549037Y-66708307D01*
X83311896Y-66897420D01*
X83097420Y-67111896D01*
X82908307Y-67349037D01*
X82746933Y-67605861D01*
X82615333Y-67879131D01*
X82515157Y-68165416D01*
X82515153Y-68165428D01*
X82447660Y-68461137D01*
X82447657Y-68461151D01*
X82413700Y-68762536D01*
X81114201Y-68762536D01*
X81114700Y-66480158D01*
X81114715Y-66480103D01*
X81114714Y-66418597D01*
X81114715Y-66418593D01*
X81115030Y-66409781D01*
X81121797Y-66315154D01*
X81129342Y-66209647D01*
X81131858Y-66192148D01*
X81173568Y-66000410D01*
X81178547Y-65983452D01*
X81247125Y-65799587D01*
X81254460Y-65783525D01*
X81348509Y-65611286D01*
X81358057Y-65596430D01*
X81475653Y-65439338D01*
X81487227Y-65425981D01*
X81625981Y-65287227D01*
X81639338Y-65275653D01*
X81796430Y-65158057D01*
X81811286Y-65148509D01*
X81983525Y-65054460D01*
X81999587Y-65047125D01*
X82183452Y-64978547D01*
X82200410Y-64973568D01*
X82392148Y-64931858D01*
X82409647Y-64929342D01*
X82609776Y-64915030D01*
X82618620Y-64914715D01*
X147548317Y-64914735D01*
G37*
G04 #@! TD.AperFunction*
G04 #@! TD*
M02*
