%TF.GenerationSoftware,KiCad,Pcbnew,9.0.6*%
%TF.CreationDate,2025-12-10T15:06:57+01:00*%
%TF.ProjectId,floppyv3_expansion,666c6f70-7079-4763-935f-657870616e73,rev?*%
%TF.SameCoordinates,Original*%
%TF.FileFunction,Drillmap*%
%TF.FilePolarity,Positive*%
%FSLAX45Y45*%
G04 Gerber Fmt 4.5, Leading zero omitted, Abs format (unit mm)*
G04 Created by KiCad (PCBNEW 9.0.6) date 2025-12-10 15:06:57*
%MOMM*%
%LPD*%
G01*
G04 APERTURE LIST*
%ADD10C,0.100000*%
%ADD11C,0.200000*%
G04 APERTURE END LIST*
D10*
X8061421Y-6641421D02*
X8060000Y-13139919D01*
X14961421Y-13141424D02*
G75*
G02*
X14761421Y-13341421I-199991J-6D01*
G01*
X14761421Y-13341424D02*
X8259999Y-13339995D01*
X8061421Y-6641421D02*
G75*
G02*
X8261421Y-6441421I199999J1D01*
G01*
X8259999Y-13339995D02*
G75*
G02*
X8059995Y-13139919I1J200005D01*
G01*
X14761420Y-6441424D02*
X8261420Y-6441421D01*
X14761421Y-6441424D02*
G75*
G02*
X14961416Y-6641424I-1J-199996D01*
G01*
X14961421Y-13141424D02*
X14961421Y-6641424D01*
D11*
X8315772Y-13657907D02*
X8315772Y-13457907D01*
X8315772Y-13457907D02*
X8363391Y-13457907D01*
X8363391Y-13457907D02*
X8391962Y-13467431D01*
X8391962Y-13467431D02*
X8411010Y-13486479D01*
X8411010Y-13486479D02*
X8420534Y-13505526D01*
X8420534Y-13505526D02*
X8430058Y-13543622D01*
X8430058Y-13543622D02*
X8430058Y-13572193D01*
X8430058Y-13572193D02*
X8420534Y-13610288D01*
X8420534Y-13610288D02*
X8411010Y-13629336D01*
X8411010Y-13629336D02*
X8391962Y-13648384D01*
X8391962Y-13648384D02*
X8363391Y-13657907D01*
X8363391Y-13657907D02*
X8315772Y-13657907D01*
X8515772Y-13657907D02*
X8515772Y-13524574D01*
X8515772Y-13562669D02*
X8525296Y-13543622D01*
X8525296Y-13543622D02*
X8534820Y-13534098D01*
X8534820Y-13534098D02*
X8553867Y-13524574D01*
X8553867Y-13524574D02*
X8572915Y-13524574D01*
X8639581Y-13657907D02*
X8639581Y-13524574D01*
X8639581Y-13457907D02*
X8630058Y-13467431D01*
X8630058Y-13467431D02*
X8639581Y-13476955D01*
X8639581Y-13476955D02*
X8649105Y-13467431D01*
X8649105Y-13467431D02*
X8639581Y-13457907D01*
X8639581Y-13457907D02*
X8639581Y-13476955D01*
X8763391Y-13657907D02*
X8744343Y-13648384D01*
X8744343Y-13648384D02*
X8734820Y-13629336D01*
X8734820Y-13629336D02*
X8734820Y-13457907D01*
X8868153Y-13657907D02*
X8849105Y-13648384D01*
X8849105Y-13648384D02*
X8839581Y-13629336D01*
X8839581Y-13629336D02*
X8839581Y-13457907D01*
X9096724Y-13657907D02*
X9096724Y-13457907D01*
X9096724Y-13457907D02*
X9163391Y-13600764D01*
X9163391Y-13600764D02*
X9230058Y-13457907D01*
X9230058Y-13457907D02*
X9230058Y-13657907D01*
X9411010Y-13657907D02*
X9411010Y-13553145D01*
X9411010Y-13553145D02*
X9401486Y-13534098D01*
X9401486Y-13534098D02*
X9382439Y-13524574D01*
X9382439Y-13524574D02*
X9344343Y-13524574D01*
X9344343Y-13524574D02*
X9325296Y-13534098D01*
X9411010Y-13648384D02*
X9391962Y-13657907D01*
X9391962Y-13657907D02*
X9344343Y-13657907D01*
X9344343Y-13657907D02*
X9325296Y-13648384D01*
X9325296Y-13648384D02*
X9315772Y-13629336D01*
X9315772Y-13629336D02*
X9315772Y-13610288D01*
X9315772Y-13610288D02*
X9325296Y-13591241D01*
X9325296Y-13591241D02*
X9344343Y-13581717D01*
X9344343Y-13581717D02*
X9391962Y-13581717D01*
X9391962Y-13581717D02*
X9411010Y-13572193D01*
X9506248Y-13524574D02*
X9506248Y-13724574D01*
X9506248Y-13534098D02*
X9525296Y-13524574D01*
X9525296Y-13524574D02*
X9563391Y-13524574D01*
X9563391Y-13524574D02*
X9582439Y-13534098D01*
X9582439Y-13534098D02*
X9591962Y-13543622D01*
X9591962Y-13543622D02*
X9601486Y-13562669D01*
X9601486Y-13562669D02*
X9601486Y-13619812D01*
X9601486Y-13619812D02*
X9591962Y-13638860D01*
X9591962Y-13638860D02*
X9582439Y-13648384D01*
X9582439Y-13648384D02*
X9563391Y-13657907D01*
X9563391Y-13657907D02*
X9525296Y-13657907D01*
X9525296Y-13657907D02*
X9506248Y-13648384D01*
X9687201Y-13638860D02*
X9696724Y-13648384D01*
X9696724Y-13648384D02*
X9687201Y-13657907D01*
X9687201Y-13657907D02*
X9677677Y-13648384D01*
X9677677Y-13648384D02*
X9687201Y-13638860D01*
X9687201Y-13638860D02*
X9687201Y-13657907D01*
X9687201Y-13534098D02*
X9696724Y-13543622D01*
X9696724Y-13543622D02*
X9687201Y-13553145D01*
X9687201Y-13553145D02*
X9677677Y-13543622D01*
X9677677Y-13543622D02*
X9687201Y-13534098D01*
X9687201Y-13534098D02*
X9687201Y-13553145D01*
M02*
